{
copyright = "Copyright (c) 2015, Cadson Demak (info@cadsondemak.com)";
customParameters = (
{
name = vendorID;
value = CDK;
},
{
name = description;
value = "Copyright (c) 2015, Cadson Demak (info@cadsondemak.com)";
},
{
name = license;

glyphs = (
{
glyphname = A;
lastChange = "2015-11-30 00:00:46 +0000";
layers = (
{
layerId = "36D117B3-9CBE-4AED-BB8C-253BFD0905A8";
name = Light;
paths = (
{
closed = 1;
nodes = (
"130 0 LINE",
"204 187 LINE",
"526 187 LINE",
"601 0 LINE",
"681 0 LINE",
"402 699 LINE",
"329 699 LINE",
"50 0 LINE"
);
},
{
closed = 1;
nodes = (
"365 609 LINE",
"504 253 LINE",
"227 253 LINE"
);
}
);
width = 731;
}
);
leftKerningGroup = A;
note = A;
rightKerningGroup = A;
unicode = 0041;
},
{
glyphname = Aacute;
lastChange = "2015-11-30 00:00:47 +0000";
layers = (
{
layerId = "36D117B3-9CBE-4AED-BB8C-253BFD0905A8";
name = Light;
paths = (
{
closed = 1;
nodes = (
"130 0 LINE",
"204 187 LINE",
"526 187 LINE",
"601 0 LINE",
"681 0 LINE",
"402 699 LINE",
"329 699 LINE",
"50 0 LINE"
);
},
{
closed = 1;
nodes = (
"365 609 LINE",
"504 253 LINE",
"227 253 LINE"
);
},
{
closed = 1;
nodes = (
"405 742 LINE",
"485 912 LINE",
"404 912 LINE",
"336 742 LINE"
);
}
);
width = 731;
}
);
leftKerningGroup = A;
note = Aacute;
rightKerningGroup = A;
unicode = 00C1;
},
{
glyphname = Abreve;
lastChange = "2015-11-30 00:00:46 +0000";
layers = (
{
layerId = "36D117B3-9CBE-4AED-BB8C-253BFD0905A8";
name = Light;
paths = (
{
closed = 1;
nodes = (
"130 0 LINE",
"204 187 LINE",
"526 187 LINE",
"601 0 LINE",
"681 0 LINE",
"402 699 LINE",
"329 699 LINE",
"50 0 LINE"
);
},
{
closed = 1;
nodes = (
"365 609 LINE",
"504 253 LINE",
"227 253 LINE"
);
},
{
closed = 1;
nodes = (
"451 742 OFFCURVE",
"505 797 OFFCURVE",
"505 872 CURVE",
"446 872 LINE",
"446 826 OFFCURVE",
"416 796 OFFCURVE",
"366 796 CURVE SMOOTH",
"316 796 OFFCURVE",
"286 826 OFFCURVE",
"286 872 CURVE",
"226 872 LINE",
"226 797 OFFCURVE",
"280 742 OFFCURVE",
"366 742 CURVE SMOOTH"
);
}
);
width = 731;
}
);
leftKerningGroup = A;
note = Abreve;
rightKerningGroup = A;
unicode = 0102;
},
{
glyphname = Abreveacute;
lastChange = "2015-11-30 00:00:46 +0000";
layers = (
{
layerId = "36D117B3-9CBE-4AED-BB8C-253BFD0905A8";
name = Light;
paths = (
{
closed = 1;
nodes = (
"130 0 LINE",
"204 187 LINE",
"526 187 LINE",
"601 0 LINE",
"681 0 LINE",
"402 699 LINE",
"329 699 LINE",
"50 0 LINE"
);
},
{
closed = 1;
nodes = (
"365 609 LINE",
"504 253 LINE",
"227 253 LINE"
);
},
{
closed = 1;
nodes = (
"449 742 OFFCURVE",
"502 796 OFFCURVE",
"502 870 CURVE",
"444 870 LINE",
"444 824 OFFCURVE",
"415 795 OFFCURVE",
"365 795 CURVE SMOOTH",
"316 795 OFFCURVE",
"286 824 OFFCURVE",
"286 870 CURVE",
"228 870 LINE",
"228 796 OFFCURVE",
"281 742 OFFCURVE",
"365 742 CURVE SMOOTH"
);
},
{
closed = 1;
nodes = (
"384 855 LINE",
"447 978 LINE",
"383 978 LINE",
"330 855 LINE"
);
}
);
width = 731;
}
);
leftKerningGroup = A;
note = Abreveacute;
rightKerningGroup = A;
unicode = 1EAE;
},
{
glyphname = Abrevedotbelow;
lastChange = "2015-11-30 00:00:45 +0000";
layers = (
{
layerId = "36D117B3-9CBE-4AED-BB8C-253BFD0905A8";
name = Light;
paths = (
{
closed = 1;
nodes = (
"130 0 LINE",
"204 187 LINE",
"526 187 LINE",
"601 0 LINE",
"681 0 LINE",
"402 699 LINE",
"329 699 LINE",
"50 0 LINE"
);
},
{
closed = 1;
nodes = (
"392 -152 OFFCURVE",
"415 -130 OFFCURVE",
"415 -103 CURVE SMOOTH",
"415 -76 OFFCURVE",
"392 -54 OFFCURVE",
"366 -54 CURVE SMOOTH",
"339 -54 OFFCURVE",
"316 -76 OFFCURVE",
"316 -103 CURVE SMOOTH",
"316 -130 OFFCURVE",
"339 -152 OFFCURVE",
"366 -152 CURVE SMOOTH"
);
},
{
closed = 1;
nodes = (
"365 609 LINE",
"504 253 LINE",
"227 253 LINE"
);
},
{
closed = 1;
nodes = (
"451 742 OFFCURVE",
"505 797 OFFCURVE",
"505 872 CURVE",
"446 872 LINE",
"446 826 OFFCURVE",
"416 796 OFFCURVE",
"366 796 CURVE SMOOTH",
"316 796 OFFCURVE",
"286 826 OFFCURVE",
"286 872 CURVE",
"226 872 LINE",
"226 797 OFFCURVE",
"280 742 OFFCURVE",
"366 742 CURVE SMOOTH"
);
}
);
width = 731;
}
);
leftKerningGroup = A;
note = Abrevedotbelow;
rightKerningGroup = A;
unicode = 1EB6;
},
{
glyphname = Abrevegrave;
lastChange = "2015-11-30 00:00:47 +0000";
layers = (
{
layerId = "36D117B3-9CBE-4AED-BB8C-253BFD0905A8";
name = Light;
paths = (
{
closed = 1;
nodes = (
"130 0 LINE",
"204 187 LINE",
"526 187 LINE",
"601 0 LINE",
"681 0 LINE",
"402 699 LINE",
"329 699 LINE",
"50 0 LINE"
);
},
{
closed = 1;
nodes = (
"365 609 LINE",
"504 253 LINE",
"227 253 LINE"
);
},
{
closed = 1;
nodes = (
"449 742 OFFCURVE",
"502 796 OFFCURVE",
"502 870 CURVE",
"444 870 LINE",
"444 824 OFFCURVE",
"415 795 OFFCURVE",
"365 795 CURVE SMOOTH",
"316 795 OFFCURVE",
"286 824 OFFCURVE",
"286 870 CURVE",
"228 870 LINE",
"228 796 OFFCURVE",
"281 742 OFFCURVE",
"365 742 CURVE SMOOTH"
);
},
{
closed = 1;
nodes = (
"401 855 LINE",
"348 978 LINE",
"283 978 LINE",
"347 855 LINE"
);
}
);
width = 731;
}
);
leftKerningGroup = A;
note = Abrevegrave;
rightKerningGroup = A;
unicode = 1EB0;
},
{
glyphname = Abrevehookabove;
lastChange = "2015-11-30 00:00:47 +0000";
layers = (
{
layerId = "36D117B3-9CBE-4AED-BB8C-253BFD0905A8";
name = Light;
paths = (
{
closed = 1;
nodes = (
"130 0 LINE",
"204 187 LINE",
"526 187 LINE",
"601 0 LINE",
"681 0 LINE",
"402 699 LINE",
"329 699 LINE",
"50 0 LINE"
);
},
{
closed = 1;
nodes = (
"365 609 LINE",
"504 253 LINE",
"227 253 LINE"
);
},
{
closed = 1;
nodes = (
"449 742 OFFCURVE",
"502 796 OFFCURVE",
"502 870 CURVE",
"445 870 LINE",
"445 824 OFFCURVE",
"415 794 OFFCURVE",
"365 794 CURVE SMOOTH",
"315 794 OFFCURVE",
"285 824 OFFCURVE",
"285 870 CURVE",
"228 870 LINE",
"228 796 OFFCURVE",
"281 742 OFFCURVE",
"365 742 CURVE SMOOTH"
);
},
{
closed = 1;
nodes = (
"387 842 LINE",
"387 867 LINE",
"430 873 OFFCURVE",
"454 900 OFFCURVE",
"454 932 CURVE SMOOTH",
"454 972 OFFCURVE",
"425 998 OFFCURVE",
"370 998 CURVE SMOOTH",
"349 998 OFFCURVE",
"324 994 OFFCURVE",
"310 989 CURVE",
"310 953 LINE",
"320 958 OFFCURVE",
"339 961 OFFCURVE",
"355 961 CURVE SMOOTH",
"384 961 OFFCURVE",
"399 950 OFFCURVE",
"399 928 CURVE SMOOTH",
"399 904 OFFCURVE",
"380 892 OFFCURVE",
"337 892 CURVE",
"337 842 LINE"
);
}
);
width = 731;
}
);
leftKerningGroup = A;
note = Abrevehookabove;
rightKerningGroup = A;
unicode = 1EB2;
},
{
glyphname = Abrevetilde;
lastChange = "2015-11-30 00:00:47 +0000";
layers = (
{
layerId = "36D117B3-9CBE-4AED-BB8C-253BFD0905A8";
name = Light;
paths = (
{
closed = 1;
nodes = (
"130 0 LINE",
"204 187 LINE",
"526 187 LINE",
"601 0 LINE",
"681 0 LINE",
"402 699 LINE",
"329 699 LINE",
"50 0 LINE"
);
},
{
closed = 1;
nodes = (
"365 609 LINE",
"504 253 LINE",
"227 253 LINE"
);
},
{
closed = 1;
nodes = (
"455 742 OFFCURVE",
"508 796 OFFCURVE",
"508 870 CURVE",
"451 870 LINE",
"451 824 OFFCURVE",
"421 794 OFFCURVE",
"371 794 CURVE SMOOTH",
"321 794 OFFCURVE",
"291 824 OFFCURVE",
"291 870 CURVE",
"234 870 LINE",
"234 796 OFFCURVE",
"287 742 OFFCURVE",
"371 742 CURVE SMOOTH"
);
},
{
closed = 1;
nodes = (
"229 922 OFFCURVE",
"256 932 OFFCURVE",
"286 932 CURVE SMOOTH",
"342 932 OFFCURVE",
"381 889 OFFCURVE",
"445 889 CURVE SMOOTH",
"480 889 OFFCURVE",
"510 897 OFFCURVE",
"528 925 CURVE",
"528 986 LINE",
"504 951 OFFCURVE",
"476 940 OFFCURVE",
"445 940 CURVE SMOOTH",
"388 940 OFFCURVE",
"346 984 OFFCURVE",
"286 984 CURVE SMOOTH",
"252 984 OFFCURVE",
"222 975 OFFCURVE",
"203 947 CURVE",
"203 886 LINE"
);
}
);
width = 731;
}
);
leftKerningGroup = A;
note = Abrevetilde;
rightKerningGroup = A;
unicode = 1EB4;
},
{
glyphname = Acaron;
lastChange = "2015-11-30 00:00:45 +0000";
layers = (
{
layerId = "36D117B3-9CBE-4AED-BB8C-253BFD0905A8";
name = Light;
paths = (
{
closed = 1;
nodes = (
"130 0 LINE",
"204 187 LINE",
"526 187 LINE",
"601 0 LINE",
"681 0 LINE",
"402 699 LINE",
"329 699 LINE",
"50 0 LINE"
);
},
{
closed = 1;
nodes = (
"365 609 LINE",
"504 253 LINE",
"227 253 LINE"
);
},
{
closed = 1;
nodes = (
"399 742 LINE",
"536 903 LINE",
"458 903 LINE",
"366 789 LINE",
"274 903 LINE",
"195 903 LINE",
"332 742 LINE"
);
}
);
width = 731;
}
);
leftKerningGroup = A;
note = Acaron;
rightKerningGroup = A;
unicode = 01CD;
},
{
glyphname = Acircumflex;
lastChange = "2015-11-30 00:00:46 +0000";
layers = (
{
layerId = "36D117B3-9CBE-4AED-BB8C-253BFD0905A8";
name = Light;
paths = (
{
closed = 1;
nodes = (
"130 0 LINE",
"204 187 LINE",
"526 187 LINE",
"601 0 LINE",
"681 0 LINE",
"402 699 LINE",
"329 699 LINE",
"50 0 LINE"
);
},
{
closed = 1;
nodes = (
"365 609 LINE",
"504 253 LINE",
"227 253 LINE"
);
},
{
closed = 1;
nodes = (
"274 742 LINE",
"366 856 LINE",
"458 742 LINE",
"536 742 LINE",
"399 903 LINE",
"332 903 LINE",
"195 742 LINE"
);
}
);
width = 731;
}
);
leftKerningGroup = A;
note = Acircumflex;
rightKerningGroup = A;
unicode = 00C2;
},
{
glyphname = Acircumflexacute;
lastChange = "2015-11-30 00:00:46 +0000";
layers = (
{
layerId = "36D117B3-9CBE-4AED-BB8C-253BFD0905A8";
name = Light;
paths = (
{
closed = 1;
nodes = (
"130 0 LINE",
"204 187 LINE",
"526 187 LINE",
"601 0 LINE",
"681 0 LINE",
"402 699 LINE",
"329 699 LINE",
"50 0 LINE"
);
},
{
closed = 1;
nodes = (
"365 609 LINE",
"504 253 LINE",
"227 253 LINE"
);
},
{
closed = 1;
nodes = (
"269 742 LINE",
"361 837 LINE",
"453 742 LINE",
"531 742 LINE",
"394 880 LINE",
"327 880 LINE",
"190 742 LINE"
);
},
{
closed = 1;
nodes = (
"501 845 LINE",
"582 965 LINE",
"518 965 LINE",
"447 845 LINE"
);
}
);
width = 731;
}
);
leftKerningGroup = A;
note = Acircumflexacute;
rightKerningGroup = A;
unicode = 1EA4;
},
{
glyphname = Acircumflexdotbelow;
lastChange = "2015-11-30 00:00:47 +0000";
layers = (
{
layerId = "36D117B3-9CBE-4AED-BB8C-253BFD0905A8";
name = Light;
paths = (
{
closed = 1;
nodes = (
"130 0 LINE",
"204 187 LINE",
"526 187 LINE",
"601 0 LINE",
"681 0 LINE",
"402 699 LINE",
"329 699 LINE",
"50 0 LINE"
);
},
{
closed = 1;
nodes = (
"392 -152 OFFCURVE",
"415 -130 OFFCURVE",
"415 -103 CURVE SMOOTH",
"415 -76 OFFCURVE",
"392 -54 OFFCURVE",
"366 -54 CURVE SMOOTH",
"339 -54 OFFCURVE",
"316 -76 OFFCURVE",
"316 -103 CURVE SMOOTH",
"316 -130 OFFCURVE",
"339 -152 OFFCURVE",
"366 -152 CURVE SMOOTH"
);
},
{
closed = 1;
nodes = (
"365 609 LINE",
"504 253 LINE",
"227 253 LINE"
);
},
{
closed = 1;
nodes = (
"274 742 LINE",
"366 856 LINE",
"458 742 LINE",
"536 742 LINE",
"399 903 LINE",
"332 903 LINE",
"195 742 LINE"
);
}
);
width = 731;
}
);
leftKerningGroup = A;
note = Acircumflexdotbelow;
rightKerningGroup = A;
unicode = 1EAC;
},
{
glyphname = Acircumflexgrave;
lastChange = "2015-11-30 00:00:46 +0000";
layers = (
{
layerId = "36D117B3-9CBE-4AED-BB8C-253BFD0905A8";
name = Light;
paths = (
{
closed = 1;
nodes = (
"130 0 LINE",
"204 187 LINE",
"526 187 LINE",
"601 0 LINE",
"681 0 LINE",
"402 699 LINE",
"329 699 LINE",
"50 0 LINE"
);
},
{
closed = 1;
nodes = (
"365 609 LINE",
"504 253 LINE",
"227 253 LINE"
);
},
{
closed = 1;
nodes = (
"278 845 LINE",
"207 965 LINE",
"143 965 LINE",
"224 845 LINE"
);
},
{
closed = 1;
nodes = (
"272 742 LINE",
"364 837 LINE",
"456 742 LINE",
"535 742 LINE",
"398 880 LINE",
"331 880 LINE",
"194 742 LINE"
);
}
);
width = 731;
}
);
leftKerningGroup = A;
note = Acircumflexgrave;
rightKerningGroup = A;
unicode = 1EA6;
},
{
glyphname = Acircumflexhookabove;
lastChange = "2015-11-30 00:00:46 +0000";
layers = (
{
layerId = "36D117B3-9CBE-4AED-BB8C-253BFD0905A8";
name = Light;
paths = (
{
closed = 1;
nodes = (
"130 0 LINE",
"204 187 LINE",
"526 187 LINE",
"601 0 LINE",
"681 0 LINE",
"402 699 LINE",
"329 699 LINE",
"50 0 LINE"
);
},
{
closed = 1;
nodes = (
"365 609 LINE",
"504 253 LINE",
"227 253 LINE"
);
},
{
closed = 1;
nodes = (
"274 742 LINE",
"366 837 LINE",
"458 742 LINE",
"537 742 LINE",
"400 880 LINE",
"333 880 LINE",
"196 742 LINE"
);
},
{
closed = 1;
nodes = (
"508 838 LINE",
"508 863 LINE",
"551 869 OFFCURVE",
"575 896 OFFCURVE",
"575 928 CURVE SMOOTH",
"575 968 OFFCURVE",
"546 994 OFFCURVE",
"491 994 CURVE SMOOTH",
"470 994 OFFCURVE",
"445 990 OFFCURVE",
"431 985 CURVE",
"431 949 LINE",
"441 954 OFFCURVE",
"460 957 OFFCURVE",
"476 957 CURVE SMOOTH",
"505 957 OFFCURVE",
"520 946 OFFCURVE",
"520 924 CURVE SMOOTH",
"520 900 OFFCURVE",
"501 888 OFFCURVE",
"458 888 CURVE",
"458 838 LINE"
);
}
);
width = 731;
}
);
leftKerningGroup = A;
note = Acircumflexhookabove;
rightKerningGroup = A;
unicode = 1EA8;
},
{
glyphname = Acircumflextilde;
lastChange = "2015-11-30 00:00:46 +0000";
layers = (
{
layerId = "36D117B3-9CBE-4AED-BB8C-253BFD0905A8";
name = Light;
paths = (
{
closed = 1;
nodes = (
"130 0 LINE",
"204 187 LINE",
"526 187 LINE",
"601 0 LINE",
"681 0 LINE",
"402 699 LINE",
"329 699 LINE",
"50 0 LINE"
);
},
{
closed = 1;
nodes = (
"365 609 LINE",
"504 253 LINE",
"227 253 LINE"
);
},
{
closed = 1;
nodes = (
"273 742 LINE",
"365 837 LINE",
"457 742 LINE",
"536 742 LINE",
"399 880 LINE",
"332 880 LINE",
"195 742 LINE"
);
},
{
closed = 1;
nodes = (
"234 918 OFFCURVE",
"261 928 OFFCURVE",
"291 928 CURVE SMOOTH",
"347 928 OFFCURVE",
"386 885 OFFCURVE",
"450 885 CURVE SMOOTH",
"485 885 OFFCURVE",
"515 893 OFFCURVE",
"533 921 CURVE",
"533 982 LINE",
"509 947 OFFCURVE",
"481 936 OFFCURVE",
"450 936 CURVE SMOOTH",
"393 936 OFFCURVE",
"351 980 OFFCURVE",
"291 980 CURVE SMOOTH",
"257 980 OFFCURVE",
"227 971 OFFCURVE",
"208 943 CURVE",
"208 882 LINE"
);
}
);
width = 731;
}
);
leftKerningGroup = A;
note = Acircumflextilde;
rightKerningGroup = A;
unicode = 1EAA;
},
{
glyphname = Adieresis;
lastChange = "2015-11-30 00:00:45 +0000";
layers = (
{
layerId = "36D117B3-9CBE-4AED-BB8C-253BFD0905A8";
name = Light;
paths = (
{
closed = 1;
nodes = (
"130 0 LINE",
"204 187 LINE",
"526 187 LINE",
"601 0 LINE",
"681 0 LINE",
"402 699 LINE",
"329 699 LINE",
"50 0 LINE"
);
},
{
closed = 1;
nodes = (
"365 609 LINE",
"504 253 LINE",
"227 253 LINE"
);
},
{
closed = 1;
nodes = (
"283 742 OFFCURVE",
"306 764 OFFCURVE",
"306 791 CURVE SMOOTH",
"306 818 OFFCURVE",
"283 840 OFFCURVE",
"257 840 CURVE SMOOTH",
"230 840 OFFCURVE",
"207 818 OFFCURVE",
"207 791 CURVE SMOOTH",
"207 764 OFFCURVE",
"230 742 OFFCURVE",
"257 742 CURVE SMOOTH"
);
},
{
closed = 1;
nodes = (
"500 742 OFFCURVE",
"523 764 OFFCURVE",
"523 791 CURVE SMOOTH",
"523 818 OFFCURVE",
"500 840 OFFCURVE",
"474 840 CURVE SMOOTH",
"447 840 OFFCURVE",
"424 818 OFFCURVE",
"424 791 CURVE SMOOTH",
"424 764 OFFCURVE",
"447 742 OFFCURVE",
"474 742 CURVE SMOOTH"
);
}
);
width = 731;
}
);
leftKerningGroup = A;
note = Adieresis;
rightKerningGroup = A;
unicode = 00C4;
},
{
glyphname = Adotbelow;
lastChange = "2015-11-30 00:00:46 +0000";
layers = (
{
layerId = "36D117B3-9CBE-4AED-BB8C-253BFD0905A8";
name = Light;
paths = (
{
closed = 1;
nodes = (
"130 0 LINE",
"204 187 LINE",
"526 187 LINE",
"601 0 LINE",
"681 0 LINE",
"402 699 LINE",
"329 699 LINE",
"50 0 LINE"
);
},
{
closed = 1;
nodes = (
"392 -152 OFFCURVE",
"415 -130 OFFCURVE",
"415 -103 CURVE SMOOTH",
"415 -76 OFFCURVE",
"392 -54 OFFCURVE",
"366 -54 CURVE SMOOTH",
"339 -54 OFFCURVE",
"316 -76 OFFCURVE",
"316 -103 CURVE SMOOTH",
"316 -130 OFFCURVE",
"339 -152 OFFCURVE",
"366 -152 CURVE SMOOTH"
);
},
{
closed = 1;
nodes = (
"365 609 LINE",
"504 253 LINE",
"227 253 LINE"
);
}
);
width = 731;
}
);
leftKerningGroup = A;
note = Adotbelow;
rightKerningGroup = A;
unicode = 1EA0;
},
{
glyphname = Agrave;
lastChange = "2015-11-30 00:00:46 +0000";
layers = (
{
layerId = "36D117B3-9CBE-4AED-BB8C-253BFD0905A8";
name = Light;
paths = (
{
closed = 1;
nodes = (
"130 0 LINE",
"204 187 LINE",
"526 187 LINE",
"601 0 LINE",
"681 0 LINE",
"402 699 LINE",
"329 699 LINE",
"50 0 LINE"
);
},
{
closed = 1;
nodes = (
"365 609 LINE",
"504 253 LINE",
"227 253 LINE"
);
},
{
closed = 1;
nodes = (
"396 742 LINE",
"328 912 LINE",
"247 912 LINE",
"327 742 LINE"
);
}
);
width = 731;
}
);
leftKerningGroup = A;
note = Agrave;
rightKerningGroup = A;
unicode = 00C0;
},
{
glyphname = Ahookabove;
lastChange = "2015-11-30 00:00:47 +0000";
layers = (
{
layerId = "36D117B3-9CBE-4AED-BB8C-253BFD0905A8";
name = Light;
paths = (
{
closed = 1;
nodes = (
"130 0 LINE",
"204 187 LINE",
"526 187 LINE",
"601 0 LINE",
"681 0 LINE",
"402 699 LINE",
"329 699 LINE",
"50 0 LINE"
);
},
{
closed = 1;
nodes = (
"365 609 LINE",
"504 253 LINE",
"227 253 LINE"
);
},
{
closed = 1;
nodes = (
"398 742 LINE",
"398 777 LINE",
"460 783 OFFCURVE",
"492 823 OFFCURVE",
"492 871 CURVE SMOOTH",
"492 926 OFFCURVE",
"452 964 OFFCURVE",
"370 964 CURVE SMOOTH",
"342 964 OFFCURVE",
"311 959 OFFCURVE",
"294 953 CURVE",
"294 908 LINE",
"306 914 OFFCURVE",
"337 918 OFFCURVE",
"354 918 CURVE SMOOTH",
"401 918 OFFCURVE",
"424 903 OFFCURVE",
"424 868 CURVE SMOOTH",
"424 827 OFFCURVE",
"395 810 OFFCURVE",
"331 810 CURVE",
"331 742 LINE"
);
}
);
width = 731;
}
);
leftKerningGroup = A;
note = Ahookabove;
rightKerningGroup = A;
unicode = 1EA2;
},
{
glyphname = Amacron;
lastChange = "2015-11-30 00:00:46 +0000";
layers = (
{
layerId = "36D117B3-9CBE-4AED-BB8C-253BFD0905A8";
name = Light;
paths = (
{
closed = 1;
nodes = (
"130 0 LINE",
"204 187 LINE",
"526 187 LINE",
"601 0 LINE",
"681 0 LINE",
"402 699 LINE",
"329 699 LINE",
"50 0 LINE"
);
},
{
closed = 1;
nodes = (
"365 609 LINE",
"504 253 LINE",
"227 253 LINE"
);
},
{
closed = 1;
nodes = (
"516 762 LINE",
"516 816 LINE",
"215 816 LINE",
"215 762 LINE"
);
}
);
width = 731;
}
);
leftKerningGroup = A;
note = Amacron;
rightKerningGroup = A;
unicode = 0100;
},
{
glyphname = Aogonek;
lastChange = "2015-11-30 00:00:46 +0000";
layers = (
{
layerId = "36D117B3-9CBE-4AED-BB8C-253BFD0905A8";
name = Light;
paths = (
{
closed = 1;
nodes = (
"130 0 LINE",
"204 187 LINE",
"526 187 LINE",
"601 0 LINE",
"681 0 LINE",
"402 699 LINE",
"329 699 LINE",
"50 0 LINE"
);
},
{
closed = 1;
nodes = (
"647 -210 OFFCURVE",
"671 -206 OFFCURVE",
"687 -199 CURVE",
"687 -149 LINE",
"674 -155 OFFCURVE",
"658 -159 OFFCURVE",
"640 -159 CURVE SMOOTH",
"607 -159 OFFCURVE",
"592 -145 OFFCURVE",
"592 -112 CURVE SMOOTH",
"592 -69 OFFCURVE",
"621 -34 OFFCURVE",
"671 0 CURVE",
"599 0 LINE",
"557 -27 OFFCURVE",
"524 -71 OFFCURVE",
"524 -123 CURVE SMOOTH",
"524 -182 OFFCURVE",
"568 -210 OFFCURVE",
"621 -210 CURVE SMOOTH"
);
},
{
closed = 1;
nodes = (
"365 609 LINE",
"504 253 LINE",
"227 253 LINE"
);
}
);
width = 731;
}
);
leftKerningGroup = A;
note = Aogonek;
rightKerningGroup = A;
unicode = 0104;
},
{
glyphname = Aring;
lastChange = "2015-11-30 00:00:46 +0000";
layers = (
{
layerId = "36D117B3-9CBE-4AED-BB8C-253BFD0905A8";
name = Light;
paths = (
{
closed = 1;
nodes = (
"130 0 LINE",
"204 187 LINE",
"526 187 LINE",
"601 0 LINE",
"681 0 LINE",
"402 699 LINE",
"329 699 LINE",
"50 0 LINE"
);
},
{
closed = 1;
nodes = (
"365 609 LINE",
"504 253 LINE",
"227 253 LINE"
);
},
{
closed = 1;
nodes = (
"424 652 OFFCURVE",
"473 700 OFFCURVE",
"473 760 CURVE SMOOTH",
"473 819 OFFCURVE",
"424 868 OFFCURVE",
"365 868 CURVE SMOOTH",
"305 868 OFFCURVE",
"257 819 OFFCURVE",
"257 760 CURVE SMOOTH",
"257 700 OFFCURVE",
"305 652 OFFCURVE",
"365 652 CURVE SMOOTH"
);
},
{
closed = 1;
nodes = (
"334 702 OFFCURVE",
"308 729 OFFCURVE",
"308 760 CURVE SMOOTH",
"308 791 OFFCURVE",
"333 817 OFFCURVE",
"365 817 CURVE SMOOTH",
"396 817 OFFCURVE",
"422 791 OFFCURVE",
"422 760 CURVE SMOOTH",
"422 729 OFFCURVE",
"396 702 OFFCURVE",
"365 702 CURVE SMOOTH"
);
}
);
width = 731;
}
);
leftKerningGroup = A;
note = Aring;
rightKerningGroup = A;
unicode = 00C5;
},
{
glyphname = Aringacute;
lastChange = "2015-11-30 00:00:47 +0000";
layers = (
{
layerId = "36D117B3-9CBE-4AED-BB8C-253BFD0905A8";
name = Light;
paths = (
{
closed = 1;
nodes = (
"130 0 LINE",
"204 187 LINE",
"526 187 LINE",
"601 0 LINE",
"681 0 LINE",
"402 699 LINE",
"329 699 LINE",
"50 0 LINE"
);
},
{
closed = 1;
nodes = (
"365 609 LINE",
"504 253 LINE",
"227 253 LINE"
);
},
{
closed = 1;
nodes = (
"424 665 OFFCURVE",
"473 713 OFFCURVE",
"473 773 CURVE SMOOTH",
"473 832 OFFCURVE",
"424 881 OFFCURVE",
"365 881 CURVE SMOOTH",
"305 881 OFFCURVE",
"257 832 OFFCURVE",
"257 773 CURVE SMOOTH",
"257 713 OFFCURVE",
"305 665 OFFCURVE",
"365 665 CURVE SMOOTH"
);
},
{
closed = 1;
nodes = (
"334 715 OFFCURVE",
"308 742 OFFCURVE",
"308 773 CURVE SMOOTH",
"308 804 OFFCURVE",
"333 830 OFFCURVE",
"365 830 CURVE SMOOTH",
"396 830 OFFCURVE",
"422 804 OFFCURVE",
"422 773 CURVE SMOOTH",
"422 742 OFFCURVE",
"396 715 OFFCURVE",
"365 715 CURVE SMOOTH"
);
},
{
closed = 1;
nodes = (
"398 906 LINE",
"478 1042 LINE",
"397 1042 LINE",
"329 906 LINE"
);
}
);
width = 731;
}
);
leftKerningGroup = A;
note = Aringacute;
rightKerningGroup = A;
unicode = 01FA;
},
{
glyphname = Atilde;
lastChange = "2015-11-30 00:00:47 +0000";
layers = (
{
layerId = "36D117B3-9CBE-4AED-BB8C-253BFD0905A8";
name = Light;
paths = (
{
closed = 1;
nodes = (
"130 0 LINE",
"204 187 LINE",
"526 187 LINE",
"601 0 LINE",
"681 0 LINE",
"402 699 LINE",
"329 699 LINE",
"50 0 LINE"
);
},
{
closed = 1;
nodes = (
"365 609 LINE",
"504 253 LINE",
"227 253 LINE"
);
},
{
closed = 1;
nodes = (
"209 783 OFFCURVE",
"240 795 OFFCURVE",
"275 795 CURVE SMOOTH",
"339 795 OFFCURVE",
"383 745 OFFCURVE",
"456 745 CURVE SMOOTH",
"496 745 OFFCURVE",
"530 755 OFFCURVE",
"551 787 CURVE",
"551 856 LINE",
"524 816 OFFCURVE",
"492 804 OFFCURVE",
"456 804 CURVE SMOOTH",
"391 804 OFFCURVE",
"343 854 OFFCURVE",
"275 854 CURVE SMOOTH",
"236 854 OFFCURVE",
"201 843 OFFCURVE",
"180 811 CURVE",
"180 742 LINE"
);
}
);
width = 731;
}
);
leftKerningGroup = A;
note = Atilde;
rightKerningGroup = A;
unicode = 00C3;
},
{
glyphname = AE;
lastChange = "2015-11-30 00:00:45 +0000";
layers = (
{
layerId = "36D117B3-9CBE-4AED-BB8C-253BFD0905A8";
name = Light;
paths = (
{
closed = 1;
nodes = (
"130 0 LINE",
"225 187 LINE",
"464 187 LINE",
"464 0 LINE",
"870 0 LINE",
"870 66 LINE",
"542 66 LINE",
"542 317 LINE",
"778 317 LINE",
"778 383 LINE",
"542 383 LINE",
"542 633 LINE",
"870 633 LINE",
"870 699 LINE",
"406 699 LINE",
"50 0 LINE"
);
},
{
closed = 1;
nodes = (
"451 633 LINE",
"464 633 LINE",
"464 253 LINE",
"259 253 LINE"
);
}
);
width = 920;
}
);
leftKerningGroup = A;
note = AE;
rightKerningGroup = E;
unicode = 00C6;
},
{
glyphname = AEacute;
lastChange = "2015-11-30 00:00:46 +0000";
layers = (
{
layerId = "36D117B3-9CBE-4AED-BB8C-253BFD0905A8";
name = Light;
paths = (
{
closed = 1;
nodes = (
"130 0 LINE",
"225 187 LINE",
"464 187 LINE",
"464 0 LINE",
"870 0 LINE",
"870 66 LINE",
"542 66 LINE",
"542 317 LINE",
"778 317 LINE",
"778 383 LINE",
"542 383 LINE",
"542 633 LINE",
"870 633 LINE",
"870 699 LINE",
"406 699 LINE",
"50 0 LINE"
);
},
{
closed = 1;
nodes = (
"451 633 LINE",
"464 633 LINE",
"464 253 LINE",
"259 253 LINE"
);
},
{
closed = 1;
nodes = (
"600 742 LINE",
"680 912 LINE",
"599 912 LINE",
"531 742 LINE"
);
}
);
width = 920;
}
);
leftKerningGroup = A;
note = AEacute;
rightKerningGroup = E;
unicode = 01FC;
},
{
glyphname = B;
lastChange = "2015-11-30 00:00:46 +0000";
layers = (
{
layerId = "36D117B3-9CBE-4AED-BB8C-253BFD0905A8";
name = Light;
paths = (
{
closed = 1;
nodes = (
"397 0 LINE SMOOTH",
"505 0 OFFCURVE",
"591 73 OFFCURVE",
"591 195 CURVE SMOOTH",
"591 289 OFFCURVE",
"548 341 OFFCURVE",
"476 360 CURVE",
"529 384 OFFCURVE",
"567 437 OFFCURVE",
"567 512 CURVE SMOOTH",
"567 635 OFFCURVE",
"501 699 OFFCURVE",
"380 699 CURVE SMOOTH",
"70 699 LINE",
"70 0 LINE"
);
},
{
closed = 1;
nodes = (
"148 325 LINE",
"369 325 LINE SMOOTH",
"465 325 OFFCURVE",
"513 292 OFFCURVE",
"513 197 CURVE SMOOTH",
"513 99 OFFCURVE",
"463 66 OFFCURVE",
"380 66 CURVE SMOOTH",
"148 66 LINE"
);
},
{
closed = 1;
nodes = (
"148 633 LINE",
"366 633 LINE SMOOTH",
"451 633 OFFCURVE",
"489 599 OFFCURVE",
"489 510 CURVE SMOOTH",
"489 432 OFFCURVE",
"448 391 OFFCURVE",
"374 391 CURVE SMOOTH",
"148 391 LINE"
);
}
);
width = 641;
}
);
note = B;
unicode = 0042;
},
{
glyphname = C;
lastChange = "2015-11-30 00:00:42 +0000";
layers = (
{
layerId = "36D117B3-9CBE-4AED-BB8C-253BFD0905A8";
name = Light;
paths = (
{
closed = 1;
nodes = (
"517 -15 OFFCURVE",
"602 7 OFFCURVE",
"666 64 CURVE",
"666 141 LINE",
"598 78 OFFCURVE",
"520 55 OFFCURVE",
"423 55 CURVE SMOOTH",
"255 55 OFFCURVE",
"128 167 OFFCURVE",
"128 349 CURVE SMOOTH",
"128 530 OFFCURVE",
"252 643 OFFCURVE",
"423 643 CURVE SMOOTH",
"514 643 OFFCURVE",
"595 618 OFFCURVE",
"657 562 CURVE",
"657 638 LINE",
"593 689 OFFCURVE",
"513 714 OFFCURVE",
"417 714 CURVE SMOOTH",
"204 714 OFFCURVE",
"50 570 OFFCURVE",
"50 349 CURVE SMOOTH",
"50 128 OFFCURVE",
"204 -15 OFFCURVE",
"417 -15 CURVE SMOOTH"
);
}
);
width = 716;
}
);
leftKerningGroup = C;
note = C;
rightKerningGroup = C;
unicode = 0043;
},
{
glyphname = Cacute;
lastChange = "2015-11-30 00:00:46 +0000";
layers = (
{
layerId = "36D117B3-9CBE-4AED-BB8C-253BFD0905A8";
name = Light;
paths = (
{
closed = 1;
nodes = (
"517 -15 OFFCURVE",
"602 7 OFFCURVE",
"666 64 CURVE",
"666 141 LINE",
"598 78 OFFCURVE",
"520 55 OFFCURVE",
"423 55 CURVE SMOOTH",
"255 55 OFFCURVE",
"128 167 OFFCURVE",
"128 349 CURVE SMOOTH",
"128 530 OFFCURVE",
"252 643 OFFCURVE",
"423 643 CURVE SMOOTH",
"514 643 OFFCURVE",
"595 618 OFFCURVE",
"657 562 CURVE",
"657 638 LINE",
"593 689 OFFCURVE",
"513 714 OFFCURVE",
"417 714 CURVE SMOOTH",
"204 714 OFFCURVE",
"50 570 OFFCURVE",
"50 349 CURVE SMOOTH",
"50 128 OFFCURVE",
"204 -15 OFFCURVE",
"417 -15 CURVE SMOOTH"
);
},
{
closed = 1;
nodes = (
"446 742 LINE",
"526 912 LINE",
"445 912 LINE",
"377 742 LINE"
);
}
);
width = 716;
}
);
leftKerningGroup = C;
note = Cacute;
rightKerningGroup = C;
unicode = 0106;
},
{
glyphname = Ccaron;
lastChange = "2015-11-30 00:00:46 +0000";
layers = (
{
layerId = "36D117B3-9CBE-4AED-BB8C-253BFD0905A8";
name = Light;
paths = (
{
closed = 1;
nodes = (
"517 -15 OFFCURVE",
"602 7 OFFCURVE",
"666 64 CURVE",
"666 141 LINE",
"598 78 OFFCURVE",
"520 55 OFFCURVE",
"423 55 CURVE SMOOTH",
"255 55 OFFCURVE",
"128 167 OFFCURVE",
"128 349 CURVE SMOOTH",
"128 530 OFFCURVE",
"252 643 OFFCURVE",
"423 643 CURVE SMOOTH",
"514 643 OFFCURVE",
"595 618 OFFCURVE",
"657 562 CURVE",
"657 638 LINE",
"593 689 OFFCURVE",
"513 714 OFFCURVE",
"417 714 CURVE SMOOTH",
"204 714 OFFCURVE",
"50 570 OFFCURVE",
"50 349 CURVE SMOOTH",
"50 128 OFFCURVE",
"204 -15 OFFCURVE",
"417 -15 CURVE SMOOTH"
);
},
{
closed = 1;
nodes = (
"451 742 LINE",
"588 903 LINE",
"510 903 LINE",
"418 789 LINE",
"326 903 LINE",
"247 903 LINE",
"384 742 LINE"
);
}
);
width = 716;
}
);
leftKerningGroup = C;
note = Ccaron;
rightKerningGroup = C;
unicode = 010C;
},
{
glyphname = Ccedilla;
lastChange = "2015-11-30 00:00:46 +0000";
layers = (
{
layerId = "36D117B3-9CBE-4AED-BB8C-253BFD0905A8";
name = Light;
paths = (
{
closed = 1;
nodes = (
"517 -15 OFFCURVE",
"602 7 OFFCURVE",
"666 64 CURVE",
"666 141 LINE",
"598 78 OFFCURVE",
"520 55 OFFCURVE",
"423 55 CURVE SMOOTH",
"255 55 OFFCURVE",
"128 167 OFFCURVE",
"128 349 CURVE SMOOTH",
"128 530 OFFCURVE",
"252 643 OFFCURVE",
"423 643 CURVE SMOOTH",
"514 643 OFFCURVE",
"595 618 OFFCURVE",
"657 562 CURVE",
"657 638 LINE",
"593 689 OFFCURVE",
"513 714 OFFCURVE",
"417 714 CURVE SMOOTH",
"204 714 OFFCURVE",
"50 570 OFFCURVE",
"50 349 CURVE SMOOTH",
"50 128 OFFCURVE",
"204 -15 OFFCURVE",
"417 -15 CURVE SMOOTH"
);
},
{
closed = 1;
nodes = (
"488 -248 OFFCURVE",
"534 -206 OFFCURVE",
"534 -152 CURVE SMOOTH",
"534 -101 OFFCURVE",
"505 -68 OFFCURVE",
"441 -60 CURVE",
"465 0 LINE",
"394 0 LINE",
"359 -93 LINE",
"436 -93 OFFCURVE",
"462 -113 OFFCURVE",
"462 -150 CURVE SMOOTH",
"462 -186 OFFCURVE",
"437 -200 OFFCURVE",
"394 -200 CURVE SMOOTH",
"375 -200 OFFCURVE",
"350 -196 OFFCURVE",
"337 -190 CURVE",
"337 -238 LINE",
"352 -244 OFFCURVE",
"382 -248 OFFCURVE",
"410 -248 CURVE SMOOTH"
);
}
);
width = 716;
}
);
leftKerningGroup = C;
note = Ccedilla;
rightKerningGroup = C;
unicode = 00C7;
},
{
glyphname = Ccircumflex;
lastChange = "2015-11-30 00:00:47 +0000";
layers = (
{
layerId = "36D117B3-9CBE-4AED-BB8C-253BFD0905A8";
name = Light;
paths = (
{
closed = 1;
nodes = (
"517 -15 OFFCURVE",
"602 7 OFFCURVE",
"666 64 CURVE",
"666 141 LINE",
"598 78 OFFCURVE",
"520 55 OFFCURVE",
"423 55 CURVE SMOOTH",
"255 55 OFFCURVE",
"128 167 OFFCURVE",
"128 349 CURVE SMOOTH",
"128 530 OFFCURVE",
"252 643 OFFCURVE",
"423 643 CURVE SMOOTH",
"514 643 OFFCURVE",
"595 618 OFFCURVE",
"657 562 CURVE",
"657 638 LINE",
"593 689 OFFCURVE",
"513 714 OFFCURVE",
"417 714 CURVE SMOOTH",
"204 714 OFFCURVE",
"50 570 OFFCURVE",
"50 349 CURVE SMOOTH",
"50 128 OFFCURVE",
"204 -15 OFFCURVE",
"417 -15 CURVE SMOOTH"
);
},
{
closed = 1;
nodes = (
"317 742 LINE",
"409 856 LINE",
"501 742 LINE",
"579 742 LINE",
"442 903 LINE",
"375 903 LINE",
"238 742 LINE"
);
}
);
width = 716;
}
);
leftKerningGroup = C;
note = Ccircumflex;
rightKerningGroup = C;
unicode = 0108;
},
{
glyphname = Cdotaccent;
lastChange = "2015-11-30 00:00:47 +0000";
layers = (
{
layerId = "36D117B3-9CBE-4AED-BB8C-253BFD0905A8";
name = Light;
paths = (
{
closed = 1;
nodes = (
"517 -15 OFFCURVE",
"602 7 OFFCURVE",
"666 64 CURVE",
"666 141 LINE",
"598 78 OFFCURVE",
"520 55 OFFCURVE",
"423 55 CURVE SMOOTH",
"255 55 OFFCURVE",
"128 167 OFFCURVE",
"128 349 CURVE SMOOTH",
"128 530 OFFCURVE",
"252 643 OFFCURVE",
"423 643 CURVE SMOOTH",
"514 643 OFFCURVE",
"595 618 OFFCURVE",
"657 562 CURVE",
"657 638 LINE",
"593 689 OFFCURVE",
"513 714 OFFCURVE",
"417 714 CURVE SMOOTH",
"204 714 OFFCURVE",
"50 570 OFFCURVE",
"50 349 CURVE SMOOTH",
"50 128 OFFCURVE",
"204 -15 OFFCURVE",
"417 -15 CURVE SMOOTH"
);
},
{
closed = 1;
nodes = (
"439 742 OFFCURVE",
"462 764 OFFCURVE",
"462 791 CURVE SMOOTH",
"462 818 OFFCURVE",
"439 840 OFFCURVE",
"413 840 CURVE SMOOTH",
"386 840 OFFCURVE",
"363 818 OFFCURVE",
"363 791 CURVE SMOOTH",
"363 764 OFFCURVE",
"386 742 OFFCURVE",
"413 742 CURVE SMOOTH"
);
}
);
width = 716;
}
);
leftKerningGroup = C;
note = Cdotaccent;
rightKerningGroup = C;
unicode = 010A;
},
{
glyphname = D;
lastChange = "2015-11-30 00:00:46 +0000";
layers = (
{
layerId = "36D117B3-9CBE-4AED-BB8C-253BFD0905A8";
name = Light;
paths = (
{
closed = 1;
nodes = (
"270 0 LINE SMOOTH",
"507 0 OFFCURVE",
"651 116 OFFCURVE",
"651 353 CURVE SMOOTH",
"651 566 OFFCURVE",
"513 699 OFFCURVE",
"286 699 CURVE SMOOTH",
"70 699 LINE",
"70 0 LINE"
);
},
{
closed = 1;
nodes = (
"148 633 LINE",
"285 633 LINE SMOOTH",
"478 633 OFFCURVE",
"573 525 OFFCURVE",
"573 353 CURVE SMOOTH",
"573 168 OFFCURVE",
"480 66 OFFCURVE",
"265 66 CURVE SMOOTH",
"148 66 LINE"
);
}
);
width = 701;
}
);
note = D;
rightKerningGroup = D;
unicode = 0044;
},
{
glyphname = Eth;
lastChange = "2015-11-30 00:00:46 +0000";
layers = (
{
layerId = "36D117B3-9CBE-4AED-BB8C-253BFD0905A8";
name = Light;
paths = (
{
closed = 1;
nodes = (
"299 0 LINE SMOOTH",
"536 0 OFFCURVE",
"680 116 OFFCURVE",
"680 353 CURVE SMOOTH",
"680 566 OFFCURVE",
"542 699 OFFCURVE",
"316 699 CURVE SMOOTH",
"99 699 LINE",
"99 379 LINE",
"30 379 LINE",
"30 319 LINE",
"99 319 LINE",
"99 0 LINE"
);
},
{
closed = 1;
nodes = (
"178 319 LINE",
"375 319 LINE",
"375 379 LINE",
"178 379 LINE",
"178 628 LINE",
"314 628 LINE SMOOTH",
"497 628 OFFCURVE",
"602 525 OFFCURVE",
"602 353 CURVE SMOOTH",
"602 168 OFFCURVE",
"500 71 OFFCURVE",
"295 71 CURVE SMOOTH",
"178 71 LINE"
);
}
);
width = 730;
}
);
note = Eth;
rightKerningGroup = D;
unicode = 00D0;
},
{
glyphname = Dcaron;
lastChange = "2015-11-30 00:00:46 +0000";
layers = (
{
layerId = "36D117B3-9CBE-4AED-BB8C-253BFD0905A8";
name = Light;
paths = (
{
closed = 1;
nodes = (
"270 0 LINE SMOOTH",
"507 0 OFFCURVE",
"651 116 OFFCURVE",
"651 353 CURVE SMOOTH",
"651 566 OFFCURVE",
"513 699 OFFCURVE",
"286 699 CURVE SMOOTH",
"70 699 LINE",
"70 0 LINE"
);
},
{
closed = 1;
nodes = (
"148 633 LINE",
"285 633 LINE SMOOTH",
"478 633 OFFCURVE",
"573 525 OFFCURVE",
"573 353 CURVE SMOOTH",
"573 168 OFFCURVE",
"480 66 OFFCURVE",
"265 66 CURVE SMOOTH",
"148 66 LINE"
);
},
{
closed = 1;
nodes = (
"340 742 LINE",
"477 903 LINE",
"399 903 LINE",
"307 789 LINE",
"215 903 LINE",
"136 903 LINE",
"273 742 LINE"
);
}
);
width = 701;
}
);
note = Dcaron;
rightKerningGroup = D;
unicode = 010E;
},
{
glyphname = Dcroat;
lastChange = "2015-11-30 00:00:46 +0000";
layers = (
{
layerId = "36D117B3-9CBE-4AED-BB8C-253BFD0905A8";
name = Light;
paths = (
{
closed = 1;
nodes = (
"299 0 LINE SMOOTH",
"536 0 OFFCURVE",
"680 116 OFFCURVE",
"680 353 CURVE SMOOTH",
"680 566 OFFCURVE",
"542 699 OFFCURVE",
"316 699 CURVE SMOOTH",
"99 699 LINE",
"99 379 LINE",
"30 379 LINE",
"30 319 LINE",
"99 319 LINE",
"99 0 LINE"
);
},
{
closed = 1;
nodes = (
"178 319 LINE",
"375 319 LINE",
"375 379 LINE",
"178 379 LINE",
"178 628 LINE",
"314 628 LINE SMOOTH",
"497 628 OFFCURVE",
"602 525 OFFCURVE",
"602 353 CURVE SMOOTH",
"602 168 OFFCURVE",
"500 71 OFFCURVE",
"295 71 CURVE SMOOTH",
"178 71 LINE"
);
}
);
width = 730;
}
);
note = Dcroat;
rightKerningGroup = D;
unicode = 0110;
},
{
glyphname = Ddotbelow;
lastChange = "2015-11-30 00:00:47 +0000";
layers = (
{
layerId = "36D117B3-9CBE-4AED-BB8C-253BFD0905A8";
name = Light;
paths = (
{
closed = 1;
nodes = (
"270 0 LINE SMOOTH",
"507 0 OFFCURVE",
"651 116 OFFCURVE",
"651 353 CURVE SMOOTH",
"651 566 OFFCURVE",
"513 699 OFFCURVE",
"286 699 CURVE SMOOTH",
"70 699 LINE",
"70 0 LINE"
);
},
{
closed = 1;
nodes = (
"301 -152 OFFCURVE",
"324 -130 OFFCURVE",
"324 -103 CURVE SMOOTH",
"324 -76 OFFCURVE",
"301 -54 OFFCURVE",
"275 -54 CURVE SMOOTH",
"248 -54 OFFCURVE",
"225 -76 OFFCURVE",
"225 -103 CURVE SMOOTH",
"225 -130 OFFCURVE",
"248 -152 OFFCURVE",
"275 -152 CURVE SMOOTH"
);
},
{
closed = 1;
nodes = (
"148 633 LINE",
"285 633 LINE SMOOTH",
"478 633 OFFCURVE",
"573 525 OFFCURVE",
"573 353 CURVE SMOOTH",
"573 168 OFFCURVE",
"480 66 OFFCURVE",
"265 66 CURVE SMOOTH",
"148 66 LINE"
);
}
);
width = 701;
}
);
note = Ddotbelow;
rightKerningGroup = D;
unicode = 1E0C;
},
{
glyphname = Dlinebelow;
lastChange = "2015-11-30 00:00:46 +0000";
layers = (
{
layerId = "36D117B3-9CBE-4AED-BB8C-253BFD0905A8";
name = Light;
paths = (
{
closed = 1;
nodes = (
"270 0 LINE SMOOTH",
"507 0 OFFCURVE",
"651 116 OFFCURVE",
"651 353 CURVE SMOOTH",
"651 566 OFFCURVE",
"513 699 OFFCURVE",
"286 699 CURVE SMOOTH",
"70 699 LINE",
"70 0 LINE"
);
},
{
closed = 1;
nodes = (
"426 -131 LINE",
"426 -74 LINE",
"121 -74 LINE",
"121 -131 LINE"
);
},
{
closed = 1;
nodes = (
"148 633 LINE",
"285 633 LINE SMOOTH",
"478 633 OFFCURVE",
"573 525 OFFCURVE",
"573 353 CURVE SMOOTH",
"573 168 OFFCURVE",
"480 66 OFFCURVE",
"265 66 CURVE SMOOTH",
"148 66 LINE"
);
}
);
width = 701;
}
);
note = Dlinebelow;
rightKerningGroup = D;
unicode = 1E0E;
},
{
glyphname = E;
lastChange = "2015-11-30 00:00:42 +0000";
layers = (
{
layerId = "36D117B3-9CBE-4AED-BB8C-253BFD0905A8";
name = Light;
paths = (
{
closed = 1;
nodes = (
"520 0 LINE",
"520 66 LINE",
"148 66 LINE",
"148 317 LINE",
"427 317 LINE",
"427 383 LINE",
"148 383 LINE",
"148 633 LINE",
"520 633 LINE",
"520 699 LINE",
"70 699 LINE",
"70 0 LINE"
);
}
);
width = 570;
}
);
leftKerningGroup = E;
note = E;
rightKerningGroup = E;
unicode = 0045;
},
{
glyphname = Eacute;
lastChange = "2015-11-30 00:00:47 +0000";
layers = (
{
layerId = "36D117B3-9CBE-4AED-BB8C-253BFD0905A8";
name = Light;
paths = (
{
closed = 1;
nodes = (
"520 0 LINE",
"520 66 LINE",
"148 66 LINE",
"148 317 LINE",
"427 317 LINE",
"427 383 LINE",
"148 383 LINE",
"148 633 LINE",
"520 633 LINE",
"520 699 LINE",
"70 699 LINE",
"70 0 LINE"
);
},
{
closed = 1;
nodes = (
"318 742 LINE",
"398 912 LINE",
"317 912 LINE",
"249 742 LINE"
);
}
);
width = 570;
}
);
leftKerningGroup = E;
note = Eacute;
rightKerningGroup = E;
unicode = 00C9;
},
{
glyphname = Ebreve;
lastChange = "2015-11-30 00:00:45 +0000";
layers = (
{
layerId = "36D117B3-9CBE-4AED-BB8C-253BFD0905A8";
name = Light;
paths = (
{
closed = 1;
nodes = (
"520 0 LINE",
"520 66 LINE",
"148 66 LINE",
"148 317 LINE",
"427 317 LINE",
"427 383 LINE",
"148 383 LINE",
"148 633 LINE",
"520 633 LINE",
"520 699 LINE",
"70 699 LINE",
"70 0 LINE"
);
},
{
closed = 1;
nodes = (
"381 742 OFFCURVE",
"435 797 OFFCURVE",
"435 872 CURVE",
"376 872 LINE",
"376 826 OFFCURVE",
"346 796 OFFCURVE",
"296 796 CURVE SMOOTH",
"246 796 OFFCURVE",
"216 826 OFFCURVE",
"216 872 CURVE",
"156 872 LINE",
"156 797 OFFCURVE",
"210 742 OFFCURVE",
"296 742 CURVE SMOOTH"
);
}
);
width = 570;
}
);
leftKerningGroup = E;
note = Ebreve;
rightKerningGroup = E;
unicode = 0114;
},
{
glyphname = Ecaron;
lastChange = "2015-11-30 00:00:47 +0000";
layers = (
{
layerId = "36D117B3-9CBE-4AED-BB8C-253BFD0905A8";
name = Light;
paths = (
{
closed = 1;
nodes = (
"520 0 LINE",
"520 66 LINE",
"148 66 LINE",
"148 317 LINE",
"427 317 LINE",
"427 383 LINE",
"148 383 LINE",
"148 633 LINE",
"520 633 LINE",
"520 699 LINE",
"70 699 LINE",
"70 0 LINE"
);
},
{
closed = 1;
nodes = (
"327 742 LINE",
"464 903 LINE",
"386 903 LINE",
"294 789 LINE",
"202 903 LINE",
"123 903 LINE",
"260 742 LINE"
);
}
);
width = 570;
}
);
leftKerningGroup = E;
note = Ecaron;
rightKerningGroup = E;
unicode = 011A;
},
{
glyphname = Ecircumflex;
lastChange = "2015-11-30 00:00:46 +0000";
layers = (
{
layerId = "36D117B3-9CBE-4AED-BB8C-253BFD0905A8";
name = Light;
paths = (
{
closed = 1;
nodes = (
"520 0 LINE",
"520 66 LINE",
"148 66 LINE",
"148 317 LINE",
"427 317 LINE",
"427 383 LINE",
"148 383 LINE",
"148 633 LINE",
"520 633 LINE",
"520 699 LINE",
"70 699 LINE",
"70 0 LINE"
);
},
{
closed = 1;
nodes = (
"199 743 LINE",
"291 857 LINE",
"383 743 LINE",
"461 743 LINE",
"324 904 LINE",
"257 904 LINE",
"120 743 LINE"
);
}
);
width = 570;
}
);
leftKerningGroup = E;
note = Ecircumflex;
rightKerningGroup = E;
unicode = 00CA;
},
{
glyphname = Ecircumflexacute;
lastChange = "2015-11-30 00:00:47 +0000";
layers = (
{
layerId = "36D117B3-9CBE-4AED-BB8C-253BFD0905A8";
name = Light;
paths = (
{
closed = 1;
nodes = (
"520 0 LINE",
"520 66 LINE",
"148 66 LINE",
"148 317 LINE",
"427 317 LINE",
"427 383 LINE",
"148 383 LINE",
"148 633 LINE",
"520 633 LINE",
"520 699 LINE",
"70 699 LINE",
"70 0 LINE"
);
},
{
closed = 1;
nodes = (
"182 742 LINE",
"274 837 LINE",
"366 742 LINE",
"444 742 LINE",
"307 880 LINE",
"240 880 LINE",
"103 742 LINE"
);
},
{
closed = 1;
nodes = (
"414 845 LINE",
"495 965 LINE",
"431 965 LINE",
"360 845 LINE"
);
}
);
width = 570;
}
);
leftKerningGroup = E;
note = Ecircumflexacute;
rightKerningGroup = E;
unicode = 1EBE;
},
{
glyphname = Ecircumflexdotbelow;
lastChange = "2015-11-30 00:00:47 +0000";
layers = (
{
layerId = "36D117B3-9CBE-4AED-BB8C-253BFD0905A8";
name = Light;
paths = (
{
closed = 1;
nodes = (
"520 0 LINE",
"520 66 LINE",
"148 66 LINE",
"148 317 LINE",
"427 317 LINE",
"427 383 LINE",
"148 383 LINE",
"148 633 LINE",
"520 633 LINE",
"520 699 LINE",
"70 699 LINE",
"70 0 LINE"
);
},
{
closed = 1;
nodes = (
"303 -152 OFFCURVE",
"326 -130 OFFCURVE",
"326 -103 CURVE SMOOTH",
"326 -76 OFFCURVE",
"303 -54 OFFCURVE",
"277 -54 CURVE SMOOTH",
"250 -54 OFFCURVE",
"227 -76 OFFCURVE",
"227 -103 CURVE SMOOTH",
"227 -130 OFFCURVE",
"250 -152 OFFCURVE",
"277 -152 CURVE SMOOTH"
);
},
{
closed = 1;
nodes = (
"185 764 LINE",
"277 878 LINE",
"369 764 LINE",
"447 764 LINE",
"310 925 LINE",
"243 925 LINE",
"106 764 LINE"
);
}
);
width = 570;
}
);
leftKerningGroup = E;
note = Ecircumflexdotbelow;
rightKerningGroup = E;
unicode = 1EC6;
},
{
glyphname = Ecircumflexgrave;
lastChange = "2015-11-30 00:00:46 +0000";
layers = (
{
layerId = "36D117B3-9CBE-4AED-BB8C-253BFD0905A8";
name = Light;
paths = (
{
closed = 1;
nodes = (
"559 0 LINE",
"559 66 LINE",
"187 66 LINE",
"187 317 LINE",
"466 317 LINE",
"466 383 LINE",
"187 383 LINE",
"187 633 LINE",
"559 633 LINE",
"559 699 LINE",
"109 699 LINE",
"109 0 LINE"
);
},
{
closed = 1;
nodes = (
"205 845 LINE",
"134 965 LINE",
"70 965 LINE",
"151 845 LINE"
);
},
{
closed = 1;
nodes = (
"199 742 LINE",
"291 837 LINE",
"383 742 LINE",
"462 742 LINE",
"325 880 LINE",
"258 880 LINE",
"121 742 LINE"
);
}
);
width = 609;
}
);
leftKerningGroup = E;
note = Ecircumflexgrave;
rightKerningGroup = E;
unicode = 1EC0;
},
{
glyphname = Ecircumflexhookabove;
lastChange = "2015-11-30 00:00:45 +0000";
layers = (
{
layerId = "36D117B3-9CBE-4AED-BB8C-253BFD0905A8";
name = Light;
paths = (
{
closed = 1;
nodes = (
"520 0 LINE",
"520 66 LINE",
"148 66 LINE",
"148 317 LINE",
"427 317 LINE",
"427 383 LINE",
"148 383 LINE",
"148 633 LINE",
"520 633 LINE",
"520 699 LINE",
"70 699 LINE",
"70 0 LINE"
);
},
{
closed = 1;
nodes = (
"221 742 LINE",
"313 837 LINE",
"405 742 LINE",
"484 742 LINE",
"347 880 LINE",
"280 880 LINE",
"143 742 LINE"
);
},
{
closed = 1;
nodes = (
"455 838 LINE",
"455 863 LINE",
"498 869 OFFCURVE",
"522 896 OFFCURVE",
"522 928 CURVE SMOOTH",
"522 968 OFFCURVE",
"493 994 OFFCURVE",
"438 994 CURVE SMOOTH",
"417 994 OFFCURVE",
"392 990 OFFCURVE",
"378 985 CURVE",
"378 949 LINE",
"388 954 OFFCURVE",
"407 957 OFFCURVE",
"423 957 CURVE SMOOTH",
"452 957 OFFCURVE",
"467 946 OFFCURVE",
"467 924 CURVE SMOOTH",
"467 900 OFFCURVE",
"448 888 OFFCURVE",
"405 888 CURVE",
"405 838 LINE"
);
}
);
width = 572;
}
);
leftKerningGroup = E;
note = Ecircumflexhookabove;
rightKerningGroup = E;
unicode = 1EC2;
},
{
glyphname = Ecircumflextilde;
lastChange = "2015-11-30 00:00:47 +0000";
layers = (
{
layerId = "36D117B3-9CBE-4AED-BB8C-253BFD0905A8";
name = Light;
paths = (
{
closed = 1;
nodes = (
"520 0 LINE",
"520 66 LINE",
"148 66 LINE",
"148 317 LINE",
"427 317 LINE",
"427 383 LINE",
"148 383 LINE",
"148 633 LINE",
"520 633 LINE",
"520 699 LINE",
"70 699 LINE",
"70 0 LINE"
);
},
{
closed = 1;
nodes = (
"223 742 LINE",
"315 837 LINE",
"407 742 LINE",
"486 742 LINE",
"349 880 LINE",
"282 880 LINE",
"145 742 LINE"
);
},
{
closed = 1;
nodes = (
"184 918 OFFCURVE",
"211 928 OFFCURVE",
"241 928 CURVE SMOOTH",
"297 928 OFFCURVE",
"336 885 OFFCURVE",
"400 885 CURVE SMOOTH",
"435 885 OFFCURVE",
"465 893 OFFCURVE",
"483 921 CURVE",
"483 982 LINE",
"459 947 OFFCURVE",
"431 936 OFFCURVE",
"400 936 CURVE SMOOTH",
"343 936 OFFCURVE",
"301 980 OFFCURVE",
"241 980 CURVE SMOOTH",
"207 980 OFFCURVE",
"177 971 OFFCURVE",
"158 943 CURVE",
"158 882 LINE"
);
}
);
width = 570;
}
);
leftKerningGroup = E;
note = Ecircumflextilde;
rightKerningGroup = E;
unicode = 1EC4;
},
{
glyphname = Edieresis;
lastChange = "2015-11-30 00:00:47 +0000";
layers = (
{
layerId = "36D117B3-9CBE-4AED-BB8C-253BFD0905A8";
name = Light;
paths = (
{
closed = 1;
nodes = (
"520 0 LINE",
"520 66 LINE",
"148 66 LINE",
"148 317 LINE",
"427 317 LINE",
"427 383 LINE",
"148 383 LINE",
"148 633 LINE",
"520 633 LINE",
"520 699 LINE",
"70 699 LINE",
"70 0 LINE"
);
},
{
closed = 1;
nodes = (
"219 740 OFFCURVE",
"242 762 OFFCURVE",
"242 789 CURVE SMOOTH",
"242 816 OFFCURVE",
"219 838 OFFCURVE",
"193 838 CURVE SMOOTH",
"166 838 OFFCURVE",
"143 816 OFFCURVE",
"143 789 CURVE SMOOTH",
"143 762 OFFCURVE",
"166 740 OFFCURVE",
"193 740 CURVE SMOOTH"
);
},
{
closed = 1;
nodes = (
"436 740 OFFCURVE",
"459 762 OFFCURVE",
"459 789 CURVE SMOOTH",
"459 816 OFFCURVE",
"436 838 OFFCURVE",
"410 838 CURVE SMOOTH",
"383 838 OFFCURVE",
"360 816 OFFCURVE",
"360 789 CURVE SMOOTH",
"360 762 OFFCURVE",
"383 740 OFFCURVE",
"410 740 CURVE SMOOTH"
);
}
);
width = 570;
}
);
leftKerningGroup = E;
note = Edieresis;
rightKerningGroup = E;
unicode = 00CB;
},
{
glyphname = Edotaccent;
lastChange = "2015-11-30 00:00:46 +0000";
layers = (
{
layerId = "36D117B3-9CBE-4AED-BB8C-253BFD0905A8";
name = Light;
paths = (
{
closed = 1;
nodes = (
"520 0 LINE",
"520 66 LINE",
"148 66 LINE",
"148 317 LINE",
"427 317 LINE",
"427 383 LINE",
"148 383 LINE",
"148 633 LINE",
"520 633 LINE",
"520 699 LINE",
"70 699 LINE",
"70 0 LINE"
);
},
{
closed = 1;
nodes = (
"316 740 OFFCURVE",
"339 762 OFFCURVE",
"339 789 CURVE SMOOTH",
"339 816 OFFCURVE",
"316 838 OFFCURVE",
"290 838 CURVE SMOOTH",
"263 838 OFFCURVE",
"240 816 OFFCURVE",
"240 789 CURVE SMOOTH",
"240 762 OFFCURVE",
"263 740 OFFCURVE",
"290 740 CURVE SMOOTH"
);
}
);
width = 570;
}
);
leftKerningGroup = E;
note = Edotaccent;
rightKerningGroup = E;
unicode = 0116;
},
{
glyphname = Edotbelow;
lastChange = "2015-11-30 00:00:46 +0000";
layers = (
{
layerId = "36D117B3-9CBE-4AED-BB8C-253BFD0905A8";
name = Light;
paths = (
{
closed = 1;
nodes = (
"520 0 LINE",
"520 66 LINE",
"148 66 LINE",
"148 317 LINE",
"427 317 LINE",
"427 383 LINE",
"148 383 LINE",
"148 633 LINE",
"520 633 LINE",
"520 699 LINE",
"70 699 LINE",
"70 0 LINE"
);
},
{
closed = 1;
nodes = (
"305 -152 OFFCURVE",
"328 -130 OFFCURVE",
"328 -103 CURVE SMOOTH",
"328 -76 OFFCURVE",
"305 -54 OFFCURVE",
"279 -54 CURVE SMOOTH",
"252 -54 OFFCURVE",
"229 -76 OFFCURVE",
"229 -103 CURVE SMOOTH",
"229 -130 OFFCURVE",
"252 -152 OFFCURVE",
"279 -152 CURVE SMOOTH"
);
}
);
width = 570;
}
);
leftKerningGroup = E;
note = Edotbelow;
rightKerningGroup = E;
unicode = 1EB8;
},
{
glyphname = Egrave;
lastChange = "2015-11-30 00:00:47 +0000";
layers = (
{
layerId = "36D117B3-9CBE-4AED-BB8C-253BFD0905A8";
name = Light;
paths = (
{
closed = 1;
nodes = (
"520 0 LINE",
"520 66 LINE",
"148 66 LINE",
"148 317 LINE",
"427 317 LINE",
"427 383 LINE",
"148 383 LINE",
"148 633 LINE",
"520 633 LINE",
"520 699 LINE",
"70 699 LINE",
"70 0 LINE"
);
},
{
closed = 1;
nodes = (
"346 742 LINE",
"278 912 LINE",
"197 912 LINE",
"277 742 LINE"
);
}
);
width = 570;
}
);
leftKerningGroup = E;
note = Egrave;
rightKerningGroup = E;
unicode = 00C8;
},
{
glyphname = Ehookabove;
lastChange = "2015-11-30 00:00:45 +0000";
layers = (
{
layerId = "36D117B3-9CBE-4AED-BB8C-253BFD0905A8";
name = Light;
paths = (
{
closed = 1;
nodes = (
"520 0 LINE",
"520 66 LINE",
"148 66 LINE",
"148 317 LINE",
"427 317 LINE",
"427 383 LINE",
"148 383 LINE",
"148 633 LINE",
"520 633 LINE",
"520 699 LINE",
"70 699 LINE",
"70 0 LINE"
);
},
{
closed = 1;
nodes = (
"310 743 LINE",
"310 778 LINE",
"372 784 OFFCURVE",
"404 824 OFFCURVE",
"404 872 CURVE SMOOTH",
"404 927 OFFCURVE",
"364 965 OFFCURVE",
"282 965 CURVE SMOOTH",
"254 965 OFFCURVE",
"223 960 OFFCURVE",
"206 954 CURVE",
"206 909 LINE",
"218 915 OFFCURVE",
"249 919 OFFCURVE",
"266 919 CURVE SMOOTH",
"313 919 OFFCURVE",
"336 904 OFFCURVE",
"336 869 CURVE SMOOTH",
"336 828 OFFCURVE",
"307 811 OFFCURVE",
"243 811 CURVE",
"243 743 LINE"
);
}
);
width = 570;
}
);
leftKerningGroup = E;
note = Ehookabove;
rightKerningGroup = E;
unicode = 1EBA;
},
{
glyphname = Emacron;
lastChange = "2015-11-30 00:00:47 +0000";
layers = (
{
layerId = "36D117B3-9CBE-4AED-BB8C-253BFD0905A8";
name = Light;
paths = (
{
closed = 1;
nodes = (
"520 0 LINE",
"520 66 LINE",
"148 66 LINE",
"148 317 LINE",
"427 317 LINE",
"427 383 LINE",
"148 383 LINE",
"148 633 LINE",
"520 633 LINE",
"520 699 LINE",
"70 699 LINE",
"70 0 LINE"
);
},
{
closed = 1;
nodes = (
"446 762 LINE",
"446 816 LINE",
"145 816 LINE",
"145 762 LINE"
);
}
);
width = 570;
}
);
leftKerningGroup = E;
note = Emacron;
rightKerningGroup = E;
unicode = 0112;
},
{
glyphname = Eogonek;
lastChange = "2015-11-30 00:00:47 +0000";
layers = (
{
layerId = "36D117B3-9CBE-4AED-BB8C-253BFD0905A8";
name = Light;
paths = (
{
closed = 1;
nodes = (
"520 0 LINE",
"520 66 LINE",
"148 66 LINE",
"148 317 LINE",
"427 317 LINE",
"427 383 LINE",
"148 383 LINE",
"148 633 LINE",
"520 633 LINE",
"520 699 LINE",
"70 699 LINE",
"70 0 LINE"
);
},
{
closed = 1;
nodes = (
"468 -210 OFFCURVE",
"492 -206 OFFCURVE",
"508 -199 CURVE",
"508 -149 LINE",
"495 -155 OFFCURVE",
"479 -159 OFFCURVE",
"461 -159 CURVE SMOOTH",
"428 -159 OFFCURVE",
"413 -145 OFFCURVE",
"413 -112 CURVE SMOOTH",
"413 -69 OFFCURVE",
"442 -34 OFFCURVE",
"492 0 CURVE",
"420 0 LINE",
"378 -27 OFFCURVE",
"345 -71 OFFCURVE",
"345 -123 CURVE SMOOTH",
"345 -182 OFFCURVE",
"389 -210 OFFCURVE",
"442 -210 CURVE SMOOTH"
);
}
);
width = 570;
}
);
leftKerningGroup = E;
note = Eogonek;
rightKerningGroup = E;
unicode = 0118;
},
{
glyphname = Etilde;
lastChange = "2015-11-30 00:00:45 +0000";
layers = (
{
layerId = "36D117B3-9CBE-4AED-BB8C-253BFD0905A8";
name = Light;
paths = (
{
closed = 1;
nodes = (
"520 0 LINE",
"520 66 LINE",
"148 66 LINE",
"148 317 LINE",
"427 317 LINE",
"427 383 LINE",
"148 383 LINE",
"148 633 LINE",
"520 633 LINE",
"520 699 LINE",
"70 699 LINE",
"70 0 LINE"
);
},
{
closed = 1;
nodes = (
"127 811 OFFCURVE",
"158 823 OFFCURVE",
"193 823 CURVE SMOOTH",
"257 823 OFFCURVE",
"301 773 OFFCURVE",
"374 773 CURVE SMOOTH",
"414 773 OFFCURVE",
"448 783 OFFCURVE",
"469 815 CURVE",
"469 884 LINE",
"442 844 OFFCURVE",
"410 832 OFFCURVE",
"374 832 CURVE SMOOTH",
"309 832 OFFCURVE",
"261 882 OFFCURVE",
"193 882 CURVE SMOOTH",
"154 882 OFFCURVE",
"119 871 OFFCURVE",
"98 839 CURVE",
"98 770 LINE"
);
}
);
width = 570;
}
);
leftKerningGroup = E;
note = Etilde;
rightKerningGroup = E;
unicode = 1EBC;
},
{
glyphname = F;
lastChange = "2015-11-30 00:00:42 +0000";
layers = (
{
layerId = "36D117B3-9CBE-4AED-BB8C-253BFD0905A8";
name = Light;
paths = (
{
closed = 1;
nodes = (
"148 0 LINE",
"148 317 LINE",
"427 317 LINE",
"427 383 LINE",
"148 383 LINE",
"148 633 LINE",
"520 633 LINE",
"520 699 LINE",
"70 699 LINE",
"70 0 LINE"
);
}
);
width = 550;
}
);
note = F;
unicode = 0046;
},
{
glyphname = G;
lastChange = "2015-11-30 00:00:42 +0000";
layers = (
{
layerId = "36D117B3-9CBE-4AED-BB8C-253BFD0905A8";
name = Light;
paths = (
{
closed = 1;
nodes = (
"520 -15 OFFCURVE",
"603 8 OFFCURVE",
"670 64 CURVE",
"670 378 LINE",
"445 378 LINE",
"445 312 LINE",
"592 312 LINE",
"592 97 LINE",
"553 72 OFFCURVE",
"487 55 OFFCURVE",
"421 55 CURVE SMOOTH",
"253 55 OFFCURVE",
"128 167 OFFCURVE",
"128 349 CURVE SMOOTH",
"128 530 OFFCURVE",
"252 643 OFFCURVE",
"423 643 CURVE SMOOTH",
"514 643 OFFCURVE",
"595 618 OFFCURVE",
"657 562 CURVE",
"657 638 LINE",
"593 689 OFFCURVE",
"513 714 OFFCURVE",
"417 714 CURVE SMOOTH",
"204 714 OFFCURVE",
"50 570 OFFCURVE",
"50 349 CURVE SMOOTH",
"50 128 OFFCURVE",
"204 -15 OFFCURVE",
"417 -15 CURVE SMOOTH"
);
}
);
width = 720;
}
);
leftKerningGroup = C;
note = G;
unicode = 0047;
},
{
glyphname = Gbreve;
lastChange = "2015-11-30 00:00:46 +0000";
layers = (
{
layerId = "36D117B3-9CBE-4AED-BB8C-253BFD0905A8";
name = Light;
paths = (
{
closed = 1;
nodes = (
"520 -15 OFFCURVE",
"603 8 OFFCURVE",
"670 64 CURVE",
"670 378 LINE",
"445 378 LINE",
"445 312 LINE",
"592 312 LINE",
"592 97 LINE",
"553 72 OFFCURVE",
"487 55 OFFCURVE",
"421 55 CURVE SMOOTH",
"253 55 OFFCURVE",
"128 167 OFFCURVE",
"128 349 CURVE SMOOTH",
"128 530 OFFCURVE",
"252 643 OFFCURVE",
"423 643 CURVE SMOOTH",
"514 643 OFFCURVE",
"595 618 OFFCURVE",
"657 562 CURVE",
"657 638 LINE",
"593 689 OFFCURVE",
"513 714 OFFCURVE",
"417 714 CURVE SMOOTH",
"204 714 OFFCURVE",
"50 570 OFFCURVE",
"50 349 CURVE SMOOTH",
"50 128 OFFCURVE",
"204 -15 OFFCURVE",
"417 -15 CURVE SMOOTH"
);
},
{
closed = 1;
nodes = (
"506 742 OFFCURVE",
"560 797 OFFCURVE",
"560 872 CURVE",
"501 872 LINE",
"501 826 OFFCURVE",
"471 796 OFFCURVE",
"421 796 CURVE SMOOTH",
"371 796 OFFCURVE",
"341 826 OFFCURVE",
"341 872 CURVE",
"281 872 LINE",
"281 797 OFFCURVE",
"335 742 OFFCURVE",
"421 742 CURVE SMOOTH"
);
}
);
width = 720;
}
);
leftKerningGroup = C;
note = Gbreve;
unicode = 011E;
},
{
glyphname = Gcaron;
lastChange = "2015-11-30 00:00:46 +0000";
layers = (
{
layerId = "36D117B3-9CBE-4AED-BB8C-253BFD0905A8";
name = Light;
paths = (
{
closed = 1;
nodes = (
"520 -15 OFFCURVE",
"603 8 OFFCURVE",
"670 64 CURVE",
"670 378 LINE",
"445 378 LINE",
"445 312 LINE",
"592 312 LINE",
"592 97 LINE",
"553 72 OFFCURVE",
"487 55 OFFCURVE",
"421 55 CURVE SMOOTH",
"253 55 OFFCURVE",
"128 167 OFFCURVE",
"128 349 CURVE SMOOTH",
"128 530 OFFCURVE",
"252 643 OFFCURVE",
"423 643 CURVE SMOOTH",
"514 643 OFFCURVE",
"595 618 OFFCURVE",
"657 562 CURVE",
"657 638 LINE",
"593 689 OFFCURVE",
"513 714 OFFCURVE",
"417 714 CURVE SMOOTH",
"204 714 OFFCURVE",
"50 570 OFFCURVE",
"50 349 CURVE SMOOTH",
"50 128 OFFCURVE",
"204 -15 OFFCURVE",
"417 -15 CURVE SMOOTH"
);
},
{
closed = 1;
nodes = (
"428 742 LINE",
"565 903 LINE",
"487 903 LINE",
"395 789 LINE",
"303 903 LINE",
"224 903 LINE",
"361 742 LINE"
);
}
);
width = 720;
}
);
leftKerningGroup = C;
note = Gcaron;
unicode = 01E6;
},
{
glyphname = Gcircumflex;
lastChange = "2015-11-30 00:00:46 +0000";
layers = (
{
layerId = "36D117B3-9CBE-4AED-BB8C-253BFD0905A8";
name = Light;
paths = (
{
closed = 1;
nodes = (
"520 -15 OFFCURVE",
"603 8 OFFCURVE",
"670 64 CURVE",
"670 378 LINE",
"445 378 LINE",
"445 312 LINE",
"592 312 LINE",
"592 97 LINE",
"553 72 OFFCURVE",
"487 55 OFFCURVE",
"421 55 CURVE SMOOTH",
"253 55 OFFCURVE",
"128 167 OFFCURVE",
"128 349 CURVE SMOOTH",
"128 530 OFFCURVE",
"252 643 OFFCURVE",
"423 643 CURVE SMOOTH",
"514 643 OFFCURVE",
"595 618 OFFCURVE",
"657 562 CURVE",
"657 638 LINE",
"593 689 OFFCURVE",
"513 714 OFFCURVE",
"417 714 CURVE SMOOTH",
"204 714 OFFCURVE",
"50 570 OFFCURVE",
"50 349 CURVE SMOOTH",
"50 128 OFFCURVE",
"204 -15 OFFCURVE",
"417 -15 CURVE SMOOTH"
);
},
{
closed = 1;
nodes = (
"320 742 LINE",
"412 856 LINE",
"504 742 LINE",
"582 742 LINE",
"445 903 LINE",
"378 903 LINE",
"241 742 LINE"
);
}
);
width = 720;
}
);
leftKerningGroup = C;
note = Gcircumflex;
unicode = 011C;
},
{
glyphname = Gcommaaccent;
lastChange = "2015-11-30 00:00:47 +0000";
layers = (
{
layerId = "36D117B3-9CBE-4AED-BB8C-253BFD0905A8";
name = Light;
paths = (
{
closed = 1;
nodes = (
"520 -15 OFFCURVE",
"603 8 OFFCURVE",
"670 64 CURVE",
"670 378 LINE",
"445 378 LINE",
"445 312 LINE",
"592 312 LINE",
"592 97 LINE",
"553 72 OFFCURVE",
"487 55 OFFCURVE",
"421 55 CURVE SMOOTH",
"253 55 OFFCURVE",
"128 167 OFFCURVE",
"128 349 CURVE SMOOTH",
"128 530 OFFCURVE",
"252 643 OFFCURVE",
"423 643 CURVE SMOOTH",
"514 643 OFFCURVE",
"595 618 OFFCURVE",
"657 562 CURVE",
"657 638 LINE",
"593 689 OFFCURVE",
"513 714 OFFCURVE",
"417 714 CURVE SMOOTH",
"204 714 OFFCURVE",
"50 570 OFFCURVE",
"50 349 CURVE SMOOTH",
"50 128 OFFCURVE",
"204 -15 OFFCURVE",
"417 -15 CURVE SMOOTH"
);
},
{
closed = 1;
nodes = (
"364 -260 LINE",
"455 -63 LINE",
"374 -63 LINE",
"294 -260 LINE"
);
}
);
width = 720;
}
);
leftKerningGroup = C;
note = Gcommaaccent;
unicode = 0122;
},
{
glyphname = Gdotaccent;
lastChange = "2015-11-30 00:00:47 +0000";
layers = (
{
layerId = "36D117B3-9CBE-4AED-BB8C-253BFD0905A8";
name = Light;
paths = (
{
closed = 1;
nodes = (
"520 -15 OFFCURVE",
"603 8 OFFCURVE",
"670 64 CURVE",
"670 378 LINE",
"445 378 LINE",
"445 312 LINE",
"592 312 LINE",
"592 97 LINE",
"553 72 OFFCURVE",
"487 55 OFFCURVE",
"421 55 CURVE SMOOTH",
"253 55 OFFCURVE",
"128 167 OFFCURVE",
"128 349 CURVE SMOOTH",
"128 530 OFFCURVE",
"252 643 OFFCURVE",
"423 643 CURVE SMOOTH",
"514 643 OFFCURVE",
"595 618 OFFCURVE",
"657 562 CURVE",
"657 638 LINE",
"593 689 OFFCURVE",
"513 714 OFFCURVE",
"417 714 CURVE SMOOTH",
"204 714 OFFCURVE",
"50 570 OFFCURVE",
"50 349 CURVE SMOOTH",
"50 128 OFFCURVE",
"204 -15 OFFCURVE",
"417 -15 CURVE SMOOTH"
);
},
{
closed = 1;
nodes = (
"441 742 OFFCURVE",
"464 764 OFFCURVE",
"464 791 CURVE SMOOTH",
"464 818 OFFCURVE",
"441 840 OFFCURVE",
"415 840 CURVE SMOOTH",
"388 840 OFFCURVE",
"365 818 OFFCURVE",
"365 791 CURVE SMOOTH",
"365 764 OFFCURVE",
"388 742 OFFCURVE",
"415 742 CURVE SMOOTH"
);
}
);
width = 720;
}
);
leftKerningGroup = C;
note = Gdotaccent;
unicode = 0120;
},
{
glyphname = Gmacron;
lastChange = "2015-11-30 00:00:45 +0000";
layers = (
{
layerId = "36D117B3-9CBE-4AED-BB8C-253BFD0905A8";
name = Light;
paths = (
{
closed = 1;
nodes = (
"520 -15 OFFCURVE",
"603 8 OFFCURVE",
"670 64 CURVE",
"670 378 LINE",
"445 378 LINE",
"445 312 LINE",
"592 312 LINE",
"592 97 LINE",
"553 72 OFFCURVE",
"487 55 OFFCURVE",
"421 55 CURVE SMOOTH",
"253 55 OFFCURVE",
"128 167 OFFCURVE",
"128 349 CURVE SMOOTH",
"128 530 OFFCURVE",
"252 643 OFFCURVE",
"423 643 CURVE SMOOTH",
"514 643 OFFCURVE",
"595 618 OFFCURVE",
"657 562 CURVE",
"657 638 LINE",
"593 689 OFFCURVE",
"513 714 OFFCURVE",
"417 714 CURVE SMOOTH",
"204 714 OFFCURVE",
"50 570 OFFCURVE",
"50 349 CURVE SMOOTH",
"50 128 OFFCURVE",
"204 -15 OFFCURVE",
"417 -15 CURVE SMOOTH"
);
},
{
closed = 1;
nodes = (
"572 762 LINE",
"572 816 LINE",
"271 816 LINE",
"271 762 LINE"
);
}
);
width = 720;
}
);
leftKerningGroup = C;
note = Gmacron;
unicode = 1E20;
},
{
glyphname = H;
lastChange = "2015-11-30 00:00:42 +0000";
layers = (
{
layerId = "36D117B3-9CBE-4AED-BB8C-253BFD0905A8";
name = Light;
paths = (
{
closed = 1;
nodes = (
"148 0 LINE",
"148 323 LINE",
"542 323 LINE",
"542 0 LINE",
"620 0 LINE",
"620 699 LINE",
"542 699 LINE",
"542 389 LINE",
"148 389 LINE",
"148 699 LINE",
"70 699 LINE",
"70 0 LINE"
);
}
);
width = 690;
}
);
note = H;
unicode = 0048;
},
{
glyphname = Hbar;
lastChange = "2015-11-30 00:00:46 +0000";
layers = (
{
layerId = "36D117B3-9CBE-4AED-BB8C-253BFD0905A8";
name = Light;
paths = (
{
closed = 1;
nodes = (
"155 0 LINE",
"155 321 LINE",
"549 321 LINE",
"549 0 LINE",
"627 0 LINE",
"627 512 LINE",
"685 512 LINE",
"685 573 LINE",
"627 573 LINE",
"627 699 LINE",
"549 699 LINE",
"549 573 LINE",
"155 573 LINE",
"155 699 LINE",
"77 699 LINE",
"77 573 LINE",
"30 573 LINE",
"30 512 LINE",
"77 512 LINE",
"77 0 LINE"
);
},
{
closed = 1;
nodes = (
"155 512 LINE",
"549 512 LINE",
"549 392 LINE",
"155 392 LINE"
);
}
);
width = 715;
}
);
note = Hbar;
unicode = 0126;
},
{
glyphname = Hbrevebelow;
lastChange = "2015-11-30 00:00:46 +0000";
layers = (
{
layerId = "36D117B3-9CBE-4AED-BB8C-253BFD0905A8";
name = Light;
paths = (
{
closed = 1;
nodes = (
"148 0 LINE",
"148 323 LINE",
"542 323 LINE",
"542 0 LINE",
"620 0 LINE",
"620 699 LINE",
"542 699 LINE",
"542 389 LINE",
"148 389 LINE",
"148 699 LINE",
"70 699 LINE",
"70 0 LINE"
);
},
{
closed = 1;
nodes = (
"431 -193 OFFCURVE",
"485 -138 OFFCURVE",
"485 -63 CURVE",
"426 -63 LINE",
"426 -109 OFFCURVE",
"396 -139 OFFCURVE",
"346 -139 CURVE SMOOTH",
"296 -139 OFFCURVE",
"266 -109 OFFCURVE",
"266 -63 CURVE",
"206 -63 LINE",
"206 -138 OFFCURVE",
"260 -193 OFFCURVE",
"346 -193 CURVE SMOOTH"
);
}
);
width = 690;
}
);
note = Hbrevebelow;
unicode = 1E2A;
},
{
glyphname = Hcircumflex;
lastChange = "2015-11-30 00:00:47 +0000";
layers = (
{
layerId = "36D117B3-9CBE-4AED-BB8C-253BFD0905A8";
name = Light;
paths = (
{
closed = 1;
nodes = (
"148 0 LINE",
"148 323 LINE",
"542 323 LINE",
"542 0 LINE",
"620 0 LINE",
"620 699 LINE",
"542 699 LINE",
"542 389 LINE",
"148 389 LINE",
"148 699 LINE",
"70 699 LINE",
"70 0 LINE"
);
},
{
closed = 1;
nodes = (
"254 742 LINE",
"346 856 LINE",
"438 742 LINE",
"516 742 LINE",
"379 903 LINE",
"312 903 LINE",
"175 742 LINE"
);
}
);
width = 690;
}
);
note = Hcircumflex;
unicode = 0124;
},
{
glyphname = Hdotbelow;
lastChange = "2015-11-30 00:00:47 +0000";
layers = (
{
layerId = "36D117B3-9CBE-4AED-BB8C-253BFD0905A8";
name = Light;
paths = (
{
closed = 1;
nodes = (
"148 0 LINE",
"148 323 LINE",
"542 323 LINE",
"542 0 LINE",
"620 0 LINE",
"620 699 LINE",
"542 699 LINE",
"542 389 LINE",
"148 389 LINE",
"148 699 LINE",
"70 699 LINE",
"70 0 LINE"
);
},
{
closed = 1;
nodes = (
"372 -152 OFFCURVE",
"395 -130 OFFCURVE",
"395 -103 CURVE SMOOTH",
"395 -76 OFFCURVE",
"372 -54 OFFCURVE",
"346 -54 CURVE SMOOTH",
"319 -54 OFFCURVE",
"296 -76 OFFCURVE",
"296 -103 CURVE SMOOTH",
"296 -130 OFFCURVE",
"319 -152 OFFCURVE",
"346 -152 CURVE SMOOTH"
);
}
);
width = 690;
}
);
note = Hdotbelow;
unicode = 1E24;
},
{
glyphname = I;
lastChange = "2015-11-30 00:00:42 +0000";
layers = (
{
layerId = "36D117B3-9CBE-4AED-BB8C-253BFD0905A8";
name = Light;
paths = (
{
closed = 1;
nodes = (
"149 0 LINE",
"149 699 LINE",
"71 699 LINE",
"71 0 LINE"
);
}
);
width = 220;
}
);
note = I;
unicode = 0049;
},
{
glyphname = IJ;
lastChange = "2015-11-30 00:00:46 +0000";
layers = (
{
layerId = "36D117B3-9CBE-4AED-BB8C-253BFD0905A8";
name = Light;
paths = (
{
closed = 1;
nodes = (
"457 -15 OFFCURVE",
"528 44 OFFCURVE",
"528 155 CURVE SMOOTH",
"528 699 LINE",
"450 699 LINE",
"450 161 LINE SMOOTH",
"450 88 OFFCURVE",
"413 55 OFFCURVE",
"343 55 CURVE SMOOTH",
"318 55 OFFCURVE",
"278 60 OFFCURVE",
"257 68 CURVE",
"257 0 LINE",
"279 -9 OFFCURVE",
"322 -15 OFFCURVE",
"357 -15 CURVE SMOOTH"
);
},
{
closed = 1;
nodes = (
"149 0 LINE",
"149 699 LINE",
"71 699 LINE",
"71 0 LINE"
);
}
);
width = 593;
}
);
note = IJ;
rightKerningGroup = J;
unicode = 0132;
},
{
glyphname = Iacute;
lastChange = "2015-11-30 00:00:47 +0000";
layers = (
{
layerId = "36D117B3-9CBE-4AED-BB8C-253BFD0905A8";
name = Light;
paths = (
{
closed = 1;
nodes = (
"149 0 LINE",
"149 699 LINE",
"71 699 LINE",
"71 0 LINE"
);
},
{
closed = 1;
nodes = (
"145 742 LINE",
"225 912 LINE",
"144 912 LINE",
"76 742 LINE"
);
}
);
width = 220;
}
);
note = Iacute;
unicode = 00CD;
},
{
glyphname = Ibreve;
lastChange = "2015-11-30 00:00:45 +0000";
layers = (
{
layerId = "36D117B3-9CBE-4AED-BB8C-253BFD0905A8";
name = Light;
paths = (
{
closed = 1;
nodes = (
"149 0 LINE",
"149 699 LINE",
"71 699 LINE",
"71 0 LINE"
);
},
{
closed = 1;
nodes = (
"195 742 OFFCURVE",
"249 797 OFFCURVE",
"249 872 CURVE",
"190 872 LINE",
"190 826 OFFCURVE",
"160 796 OFFCURVE",
"110 796 CURVE SMOOTH",
"60 796 OFFCURVE",
"30 826 OFFCURVE",
"30 872 CURVE",
"-30 872 LINE",
"-30 797 OFFCURVE",
"24 742 OFFCURVE",
"110 742 CURVE SMOOTH"
);
}
);
width = 220;
}
);
note = Ibreve;
unicode = 012C;
},
{
glyphname = Icaron;
lastChange = "2015-11-30 00:00:46 +0000";
layers = (
{
layerId = "36D117B3-9CBE-4AED-BB8C-253BFD0905A8";
name = Light;
paths = (
{
closed = 1;
nodes = (
"144 742 LINE",
"281 903 LINE",
"203 903 LINE",
"111 789 LINE",
"19 903 LINE",
"-60 903 LINE",
"77 742 LINE"
);
},
{
closed = 1;
nodes = (
"149 0 LINE",
"149 699 LINE",
"71 699 LINE",
"71 0 LINE"
);
}
);
width = 220;
}
);
note = Icaron;
unicode = 01CF;
},
{
glyphname = Icircumflex;
lastChange = "2015-11-30 00:00:46 +0000";
layers = (
{
layerId = "36D117B3-9CBE-4AED-BB8C-253BFD0905A8";
name = Light;
paths = (
{
closed = 1;
nodes = (
"18 742 LINE",
"110 856 LINE",
"202 742 LINE",
"280 742 LINE",
"143 903 LINE",
"76 903 LINE",
"-61 742 LINE"
);
},
{
closed = 1;
nodes = (
"149 0 LINE",
"149 699 LINE",
"71 699 LINE",
"71 0 LINE"
);
}
);
width = 220;
}
);
note = Icircumflex;
unicode = 00CE;
},
{
glyphname = Idieresis;
lastChange = "2015-11-30 00:00:46 +0000";
layers = (
{
layerId = "36D117B3-9CBE-4AED-BB8C-253BFD0905A8";
name = Light;
paths = (
{
closed = 1;
nodes = (
"149 0 LINE",
"149 699 LINE",
"71 699 LINE",
"71 0 LINE"
);
},
{
closed = 1;
nodes = (
"27 742 OFFCURVE",
"50 764 OFFCURVE",
"50 791 CURVE SMOOTH",
"50 818 OFFCURVE",
"27 840 OFFCURVE",
"1 840 CURVE SMOOTH",
"-26 840 OFFCURVE",
"-49 818 OFFCURVE",
"-49 791 CURVE SMOOTH",
"-49 764 OFFCURVE",
"-26 742 OFFCURVE",
"1 742 CURVE SMOOTH"
);
},
{
closed = 1;
nodes = (
"244 742 OFFCURVE",
"267 764 OFFCURVE",
"267 791 CURVE SMOOTH",
"267 818 OFFCURVE",
"244 840 OFFCURVE",
"218 840 CURVE SMOOTH",
"191 840 OFFCURVE",
"168 818 OFFCURVE",
"168 791 CURVE SMOOTH",
"168 764 OFFCURVE",
"191 742 OFFCURVE",
"218 742 CURVE SMOOTH"
);
}
);
width = 220;
}
);
note = Idieresis;
unicode = 00CF;
},
{
glyphname = Idotaccent;
lastChange = "2015-11-30 00:00:45 +0000";
layers = (
{
layerId = "36D117B3-9CBE-4AED-BB8C-253BFD0905A8";
name = Light;
paths = (
{
closed = 1;
nodes = (
"149 0 LINE",
"149 699 LINE",
"71 699 LINE",
"71 0 LINE"
);
},
{
closed = 1;
nodes = (
"137 742 OFFCURVE",
"160 764 OFFCURVE",
"160 791 CURVE SMOOTH",
"160 818 OFFCURVE",
"137 840 OFFCURVE",
"111 840 CURVE SMOOTH",
"84 840 OFFCURVE",
"61 818 OFFCURVE",
"61 791 CURVE SMOOTH",
"61 764 OFFCURVE",
"84 742 OFFCURVE",
"111 742 CURVE SMOOTH"
);
}
);
width = 220;
}
);
note = Idotaccent;
unicode = 0130;
},
{
glyphname = Idotbelow;
lastChange = "2015-11-30 00:00:47 +0000";
layers = (
{
layerId = "36D117B3-9CBE-4AED-BB8C-253BFD0905A8";
name = Light;
paths = (
{
closed = 1;
nodes = (
"149 0 LINE",
"149 699 LINE",
"71 699 LINE",
"71 0 LINE"
);
},
{
closed = 1;
nodes = (
"137 -152 OFFCURVE",
"160 -130 OFFCURVE",
"160 -103 CURVE SMOOTH",
"160 -76 OFFCURVE",
"137 -54 OFFCURVE",
"111 -54 CURVE SMOOTH",
"84 -54 OFFCURVE",
"61 -76 OFFCURVE",
"61 -103 CURVE SMOOTH",
"61 -130 OFFCURVE",
"84 -152 OFFCURVE",
"111 -152 CURVE SMOOTH"
);
}
);
width = 220;
}
);
note = Idotbelow;
unicode = 1ECA;
},
{
glyphname = Igrave;
lastChange = "2015-11-30 00:00:45 +0000";
layers = (
{
layerId = "36D117B3-9CBE-4AED-BB8C-253BFD0905A8";
name = Light;
paths = (
{
closed = 1;
nodes = (
"149 0 LINE",
"149 699 LINE",
"71 699 LINE",
"71 0 LINE"
);
},
{
closed = 1;
nodes = (
"145 742 LINE",
"77 912 LINE",
"-4 912 LINE",
"76 742 LINE"
);
}
);
width = 220;
}
);
note = Igrave;
unicode = 00CC;
},
{
glyphname = Ihookabove;
lastChange = "2015-11-30 00:00:46 +0000";
layers = (
{
layerId = "36D117B3-9CBE-4AED-BB8C-253BFD0905A8";
name = Light;
paths = (
{
closed = 1;
nodes = (
"149 0 LINE",
"149 699 LINE",
"71 699 LINE",
"71 0 LINE"
);
},
{
closed = 1;
nodes = (
"143 742 LINE",
"143 777 LINE",
"205 783 OFFCURVE",
"237 823 OFFCURVE",
"237 871 CURVE SMOOTH",
"237 926 OFFCURVE",
"197 964 OFFCURVE",
"115 964 CURVE SMOOTH",
"87 964 OFFCURVE",
"56 959 OFFCURVE",
"39 953 CURVE",
"39 908 LINE",
"51 914 OFFCURVE",
"82 918 OFFCURVE",
"99 918 CURVE SMOOTH",
"146 918 OFFCURVE",
"169 903 OFFCURVE",
"169 868 CURVE SMOOTH",
"169 827 OFFCURVE",
"140 810 OFFCURVE",
"76 810 CURVE",
"76 742 LINE"
);
}
);
width = 220;
}
);
note = Ihookabove;
unicode = 1EC8;
},
{
glyphname = Imacron;
lastChange = "2015-11-30 00:00:47 +0000";
layers = (
{
layerId = "36D117B3-9CBE-4AED-BB8C-253BFD0905A8";
name = Light;
paths = (
{
closed = 1;
nodes = (
"149 0 LINE",
"149 699 LINE",
"71 699 LINE",
"71 0 LINE"
);
},
{
closed = 1;
nodes = (
"262 762 LINE",
"262 819 LINE",
"-43 819 LINE",
"-43 762 LINE"
);
}
);
width = 220;
}
);
note = Imacron;
unicode = 012A;
},
{
glyphname = Iogonek;
lastChange = "2015-11-30 00:00:46 +0000";
layers = (
{
layerId = "36D117B3-9CBE-4AED-BB8C-253BFD0905A8";
name = Light;
paths = (
{
closed = 1;
nodes = (
"149 0 LINE",
"149 699 LINE",
"71 699 LINE",
"71 0 LINE"
);
},
{
closed = 1;
nodes = (
"123 -210 OFFCURVE",
"147 -206 OFFCURVE",
"163 -199 CURVE",
"163 -149 LINE",
"150 -155 OFFCURVE",
"134 -159 OFFCURVE",
"116 -159 CURVE SMOOTH",
"83 -159 OFFCURVE",
"68 -145 OFFCURVE",
"68 -112 CURVE SMOOTH",
"68 -69 OFFCURVE",
"97 -34 OFFCURVE",
"147 0 CURVE",
"75 0 LINE",
"33 -27 OFFCURVE",
"0 -71 OFFCURVE",
"0 -123 CURVE SMOOTH",
"0 -182 OFFCURVE",
"44 -210 OFFCURVE",
"97 -210 CURVE SMOOTH"
);
}
);
width = 220;
}
);
note = Iogonek;
unicode = 012E;
},
{
glyphname = Itilde;
lastChange = "2015-11-30 00:00:45 +0000";
layers = (
{
layerId = "36D117B3-9CBE-4AED-BB8C-253BFD0905A8";
name = Light;
paths = (
{
closed = 1;
nodes = (
"149 0 LINE",
"149 699 LINE",
"71 699 LINE",
"71 0 LINE"
);
},
{
closed = 1;
nodes = (
"-47 783 OFFCURVE",
"-16 795 OFFCURVE",
"19 795 CURVE SMOOTH",
"83 795 OFFCURVE",
"127 745 OFFCURVE",
"200 745 CURVE SMOOTH",
"240 745 OFFCURVE",
"274 755 OFFCURVE",
"295 787 CURVE",
"295 856 LINE",
"268 816 OFFCURVE",
"236 804 OFFCURVE",
"200 804 CURVE SMOOTH",
"135 804 OFFCURVE",
"87 854 OFFCURVE",
"19 854 CURVE SMOOTH",
"-20 854 OFFCURVE",
"-55 843 OFFCURVE",
"-76 811 CURVE",
"-76 742 LINE"
);
}
);
width = 220;
}
);
note = Itilde;
unicode = 0128;
},
{
glyphname = J;
lastChange = "2015-11-30 00:00:42 +0000";
layers = (
{
layerId = "36D117B3-9CBE-4AED-BB8C-253BFD0905A8";
name = Light;
paths = (
{
closed = 1;
nodes = (
"230 -15 OFFCURVE",
"301 44 OFFCURVE",
"301 155 CURVE SMOOTH",
"301 699 LINE",
"223 699 LINE",
"223 161 LINE SMOOTH",
"223 88 OFFCURVE",
"186 55 OFFCURVE",
"116 55 CURVE SMOOTH",
"91 55 OFFCURVE",
"51 60 OFFCURVE",
"30 68 CURVE",
"30 0 LINE",
"52 -9 OFFCURVE",
"95 -15 OFFCURVE",
"130 -15 CURVE SMOOTH"
);
}
);
width = 366;
}
);
note = J;
rightKerningGroup = J;
unicode = 004A;
},
{
glyphname = Jcircumflex;
lastChange = "2015-11-30 00:00:47 +0000";
layers = (
{
layerId = "36D117B3-9CBE-4AED-BB8C-253BFD0905A8";
name = Light;
paths = (
{
closed = 1;
nodes = (
"230 -15 OFFCURVE",
"301 44 OFFCURVE",
"301 155 CURVE SMOOTH",
"301 699 LINE",
"223 699 LINE",
"223 161 LINE SMOOTH",
"223 88 OFFCURVE",
"186 55 OFFCURVE",
"116 55 CURVE SMOOTH",
"91 55 OFFCURVE",
"51 60 OFFCURVE",
"30 68 CURVE",
"30 0 LINE",
"52 -9 OFFCURVE",
"95 -15 OFFCURVE",
"130 -15 CURVE SMOOTH"
);
},
{
closed = 1;
nodes = (
"169 742 LINE",
"261 856 LINE",
"353 742 LINE",
"431 742 LINE",
"294 903 LINE",
"227 903 LINE",
"90 742 LINE"
);
}
);
width = 366;
}
);
note = Jcircumflex;
rightKerningGroup = J;
unicode = 0134;
},
{
glyphname = K;
lastChange = "2015-11-30 00:00:46 +0000";
layers = (
{
layerId = "36D117B3-9CBE-4AED-BB8C-253BFD0905A8";
name = Light;
paths = (
{
closed = 1;
nodes = (
"625 0 LINE",
"277 355 LINE",
"604 699 LINE",
"508 699 LINE",
"181 355 LINE",
"529 0 LINE"
);
},
{
closed = 1;
nodes = (
"148 0 LINE",
"148 699 LINE",
"70 699 LINE",
"70 0 LINE"
);
}
);
width = 655;
}
);
leftKerningGroup = K;
note = K;
rightKerningGroup = K;
unicode = 004B;
},
{
glyphname = Kcommaaccent;
lastChange = "2015-11-30 00:00:45 +0000";
layers = (
{
layerId = "36D117B3-9CBE-4AED-BB8C-253BFD0905A8";
name = Light;
paths = (
{
closed = 1;
nodes = (
"625 0 LINE",
"277 355 LINE",
"604 699 LINE",
"508 699 LINE",
"181 355 LINE",
"529 0 LINE"
);
},
{
closed = 1;
nodes = (
"251 -260 LINE",
"342 -63 LINE",
"261 -63 LINE",
"181 -260 LINE"
);
},
{
closed = 1;
nodes = (
"148 0 LINE",
"148 699 LINE",
"70 699 LINE",
"70 0 LINE"
);
}
);
width = 655;
}
);
leftKerningGroup = K;
note = Kcommaaccent;
rightKerningGroup = K;
unicode = 0136;
},
{
glyphname = L;
lastChange = "2015-11-30 00:00:42 +0000";
layers = (
{
layerId = "36D117B3-9CBE-4AED-BB8C-253BFD0905A8";
name = Light;
paths = (
{
closed = 1;
nodes = (
"520 0 LINE",
"520 66 LINE",
"148 66 LINE",
"148 699 LINE",
"70 699 LINE",
"70 0 LINE"
);
}
);
width = 545;
}
);
note = L;
rightKerningGroup = L;
unicode = 004C;
},
{
glyphname = Lacute;
lastChange = "2015-11-30 00:00:46 +0000";
layers = (
{
layerId = "36D117B3-9CBE-4AED-BB8C-253BFD0905A8";
name = Light;
paths = (
{
closed = 1;
nodes = (
"520 0 LINE",
"520 66 LINE",
"148 66 LINE",
"148 699 LINE",
"70 699 LINE",
"70 0 LINE"
);
},
{
closed = 1;
nodes = (
"143 761 LINE",
"223 931 LINE",
"142 931 LINE",
"74 761 LINE"
);
}
);
width = 545;
}
);
note = Lacute;
rightKerningGroup = L;
unicode = 0139;
},
{
glyphname = Lcaron;
lastChange = "2015-11-30 00:00:46 +0000";
layers = (
{
layerId = "36D117B3-9CBE-4AED-BB8C-253BFD0905A8";
name = Light;
paths = (
{
closed = 1;
nodes = (
"520 0 LINE",
"520 66 LINE",
"148 66 LINE",
"148 699 LINE",
"70 699 LINE",
"70 0 LINE"
);
},
{
closed = 1;
nodes = (
"331 502 LINE",
"422 699 LINE",
"341 699 LINE",
"261 502 LINE"
);
}
);
width = 545;
}
);
note = Lcaron;
rightKerningGroup = L;
unicode = 013D;
},
{
glyphname = Lcommaaccent;
lastChange = "2015-11-30 00:00:46 +0000";
layers = (
{
layerId = "36D117B3-9CBE-4AED-BB8C-253BFD0905A8";
name = Light;
paths = (
{
closed = 1;
nodes = (
"520 0 LINE",
"520 66 LINE",
"148 66 LINE",
"148 699 LINE",
"70 699 LINE",
"70 0 LINE"
);
},
{
closed = 1;
nodes = (
"247 -260 LINE",
"338 -63 LINE",
"257 -63 LINE",
"177 -260 LINE"
);
}
);
width = 545;
}
);
note = Lcommaaccent;
rightKerningGroup = L;
unicode = 013B;
},
{
glyphname = Ldot;
lastChange = "2015-11-30 00:00:47 +0000";
layers = (
{
layerId = "36D117B3-9CBE-4AED-BB8C-253BFD0905A8";
name = Light;
paths = (
{
closed = 1;
nodes = (
"520 0 LINE",
"520 66 LINE",
"148 66 LINE",
"148 699 LINE",
"70 699 LINE",
"70 0 LINE"
);
},
{
closed = 1;
nodes = (
"374 330 OFFCURVE",
"397 352 OFFCURVE",
"397 379 CURVE SMOOTH",
"397 406 OFFCURVE",
"374 428 OFFCURVE",
"348 428 CURVE SMOOTH",
"321 428 OFFCURVE",
"298 406 OFFCURVE",
"298 379 CURVE SMOOTH",
"298 352 OFFCURVE",
"321 330 OFFCURVE",
"348 330 CURVE SMOOTH"
);
}
);
width = 545;
}
);
note = Ldot;
rightKerningGroup = L;
unicode = 013F;
},
{
glyphname = Ldotbelow;
lastChange = "2015-11-30 00:00:47 +0000";
layers = (
{
layerId = "36D117B3-9CBE-4AED-BB8C-253BFD0905A8";
name = Light;
paths = (
{
closed = 1;
nodes = (
"520 0 LINE",
"520 66 LINE",
"148 66 LINE",
"148 699 LINE",
"70 699 LINE",
"70 0 LINE"
);
},
{
closed = 1;
nodes = (
"311 -152 OFFCURVE",
"334 -130 OFFCURVE",
"334 -103 CURVE SMOOTH",
"334 -76 OFFCURVE",
"311 -54 OFFCURVE",
"285 -54 CURVE SMOOTH",
"258 -54 OFFCURVE",
"235 -76 OFFCURVE",
"235 -103 CURVE SMOOTH",
"235 -130 OFFCURVE",
"258 -152 OFFCURVE",
"285 -152 CURVE SMOOTH"
);
}
);
width = 545;
}
);
note = Ldotbelow;
rightKerningGroup = L;
unicode = 1E36;
},
{
glyphname = Ldotbelowmacron;
lastChange = "2015-11-30 00:00:47 +0000";
layers = (
{
layerId = "36D117B3-9CBE-4AED-BB8C-253BFD0905A8";
name = Light;
paths = (
{
closed = 1;
nodes = (
"520 0 LINE",
"520 66 LINE",
"148 66 LINE",
"148 699 LINE",
"70 699 LINE",
"70 0 LINE"
);
},
{
closed = 1;
nodes = (
"315 -152 OFFCURVE",
"338 -130 OFFCURVE",
"338 -103 CURVE SMOOTH",
"338 -76 OFFCURVE",
"315 -54 OFFCURVE",
"289 -54 CURVE SMOOTH",
"262 -54 OFFCURVE",
"239 -76 OFFCURVE",
"239 -103 CURVE SMOOTH",
"239 -130 OFFCURVE",
"262 -152 OFFCURVE",
"289 -152 CURVE SMOOTH"
);
},
{
closed = 1;
nodes = (
"372 784 LINE",
"372 838 LINE",
"71 838 LINE",
"71 784 LINE"
);
}
);
width = 545;
}
);
note = Ldotbelowmacron;
rightKerningGroup = L;
unicode = 1E38;
},
{
glyphname = Llinebelow;
lastChange = "2015-11-30 00:00:47 +0000";
layers = (
{
layerId = "36D117B3-9CBE-4AED-BB8C-253BFD0905A8";
name = Light;
paths = (
{
closed = 1;
nodes = (
"520 0 LINE",
"520 66 LINE",
"148 66 LINE",
"148 699 LINE",
"70 699 LINE",
"70 0 LINE"
);
},
{
closed = 1;
nodes = (
"446 -131 LINE",
"446 -74 LINE",
"141 -74 LINE",
"141 -131 LINE"
);
}
);
width = 545;
}
);
note = Llinebelow;
rightKerningGroup = L;
unicode = 1E3A;
},
{
glyphname = Lslash;
lastChange = "2015-11-30 00:00:42 +0000";
layers = (
{
layerId = "36D117B3-9CBE-4AED-BB8C-253BFD0905A8";
name = Light;
paths = (
{
closed = 1;
nodes = (
"580 0 LINE",
"580 66 LINE",
"208 66 LINE",
"208 346 LINE",
"376 421 LINE",
"376 492 LINE",
"208 417 LINE",
"208 699 LINE",
"130 699 LINE",
"130 382 LINE",
"20 333 LINE",
"20 262 LINE",
"130 311 LINE",
"130 0 LINE"
);
}
);
width = 600;
}
);
note = Lslash;
rightKerningGroup = L;
unicode = 0141;
},
{
glyphname = M;
lastChange = "2015-11-30 00:00:42 +0000";
layers = (
{
layerId = "36D117B3-9CBE-4AED-BB8C-253BFD0905A8";
name = Light;
paths = (
{
closed = 1;
nodes = (
"147 0 LINE",
"147 540 LINE",
"394 0 LINE",
"434 0 LINE",
"681 540 LINE",
"681 0 LINE",
"758 0 LINE",
"758 699 LINE",
"678 699 LINE",
"414 122 LINE",
"150 699 LINE",
"70 699 LINE",
"70 0 LINE"
);
}
);
width = 828;
}
);
note = M;
unicode = 004D;
},
{
glyphname = Mdotbelow;
lastChange = "2015-11-30 00:00:47 +0000";
layers = (
{
layerId = "36D117B3-9CBE-4AED-BB8C-253BFD0905A8";
name = Light;
paths = (
{
closed = 1;
nodes = (
"147 0 LINE",
"147 540 LINE",
"394 0 LINE",
"434 0 LINE",
"681 540 LINE",
"681 0 LINE",
"758 0 LINE",
"758 699 LINE",
"678 699 LINE",
"414 122 LINE",
"150 699 LINE",
"70 699 LINE",
"70 0 LINE"
);
},
{
closed = 1;
nodes = (
"441 -152 OFFCURVE",
"464 -130 OFFCURVE",
"464 -103 CURVE SMOOTH",
"464 -76 OFFCURVE",
"441 -54 OFFCURVE",
"415 -54 CURVE SMOOTH",
"388 -54 OFFCURVE",
"365 -76 OFFCURVE",
"365 -103 CURVE SMOOTH",
"365 -130 OFFCURVE",
"388 -152 OFFCURVE",
"415 -152 CURVE SMOOTH"
);
}
);
width = 828;
}
);
note = Mdotbelow;
unicode = 1E42;
},
{
glyphname = N;
lastChange = "2015-11-30 00:00:42 +0000";
layers = (
{
layerId = "36D117B3-9CBE-4AED-BB8C-253BFD0905A8";
name = Light;
paths = (
{
closed = 1;
nodes = (
"148 0 LINE",
"148 567 LINE",
"533 0 LINE",
"608 0 LINE",
"608 699 LINE",
"530 699 LINE",
"530 133 LINE",
"145 699 LINE",
"70 699 LINE",
"70 0 LINE"
);
}
);
width = 678;
}
);
note = N;
unicode = 004E;
},
{
glyphname = Nacute;
lastChange = "2015-11-30 00:00:45 +0000";
layers = (
{
layerId = "36D117B3-9CBE-4AED-BB8C-253BFD0905A8";
name = Light;
paths = (
{
closed = 1;
nodes = (
"148 0 LINE",
"148 567 LINE",
"533 0 LINE",
"608 0 LINE",
"608 699 LINE",
"530 699 LINE",
"530 133 LINE",
"145 699 LINE",
"70 699 LINE",
"70 0 LINE"
);
},
{
closed = 1;
nodes = (
"372 742 LINE",
"452 912 LINE",
"371 912 LINE",
"303 742 LINE"
);
}
);
width = 678;
}
);
note = Nacute;
unicode = 0143;
},
{
glyphname = Ncaron;
lastChange = "2015-11-30 00:00:45 +0000";
layers = (
{
layerId = "36D117B3-9CBE-4AED-BB8C-253BFD0905A8";
name = Light;
paths = (
{
closed = 1;
nodes = (
"148 0 LINE",
"148 567 LINE",
"533 0 LINE",
"608 0 LINE",
"608 699 LINE",
"530 699 LINE",
"530 133 LINE",
"145 699 LINE",
"70 699 LINE",
"70 0 LINE"
);
},
{
closed = 1;
nodes = (
"377 742 LINE",
"514 903 LINE",
"436 903 LINE",
"344 789 LINE",
"252 903 LINE",
"173 903 LINE",
"310 742 LINE"
);
}
);
width = 678;
}
);
note = Ncaron;
unicode = 0147;
},
{
glyphname = Ncommaaccent;
lastChange = "2015-11-30 00:00:46 +0000";
layers = (
{
layerId = "36D117B3-9CBE-4AED-BB8C-253BFD0905A8";
name = Light;
paths = (
{
closed = 1;
nodes = (
"148 0 LINE",
"148 567 LINE",
"533 0 LINE",
"608 0 LINE",
"608 699 LINE",
"530 699 LINE",
"530 133 LINE",
"145 699 LINE",
"70 699 LINE",
"70 0 LINE"
);
},
{
closed = 1;
nodes = (
"307 -260 LINE",
"398 -63 LINE",
"317 -63 LINE",
"237 -260 LINE"
);
}
);
width = 678;
}
);
note = Ncommaaccent;
unicode = 0145;
},
{
glyphname = Ndotaccent;
lastChange = "2015-11-30 00:00:47 +0000";
layers = (
{
layerId = "36D117B3-9CBE-4AED-BB8C-253BFD0905A8";
name = Light;
paths = (
{
closed = 1;
nodes = (
"148 0 LINE",
"148 567 LINE",
"533 0 LINE",
"608 0 LINE",
"608 699 LINE",
"530 699 LINE",
"530 133 LINE",
"145 699 LINE",
"70 699 LINE",
"70 0 LINE"
);
},
{
closed = 1;
nodes = (
"376 742 OFFCURVE",
"399 764 OFFCURVE",
"399 791 CURVE SMOOTH",
"399 818 OFFCURVE",
"376 840 OFFCURVE",
"350 840 CURVE SMOOTH",
"323 840 OFFCURVE",
"300 818 OFFCURVE",
"300 791 CURVE SMOOTH",
"300 764 OFFCURVE",
"323 742 OFFCURVE",
"350 742 CURVE SMOOTH"
);
}
);
width = 678;
}
);
note = Ndotaccent;
unicode = 1E44;
},
{
glyphname = Ndotbelow;
lastChange = "2015-11-30 00:00:47 +0000";
layers = (
{
layerId = "36D117B3-9CBE-4AED-BB8C-253BFD0905A8";
name = Light;
paths = (
{
closed = 1;
nodes = (
"148 0 LINE",
"148 567 LINE",
"533 0 LINE",
"608 0 LINE",
"608 699 LINE",
"530 699 LINE",
"530 133 LINE",
"145 699 LINE",
"70 699 LINE",
"70 0 LINE"
);
},
{
closed = 1;
nodes = (
"371 -152 OFFCURVE",
"394 -130 OFFCURVE",
"394 -103 CURVE SMOOTH",
"394 -76 OFFCURVE",
"371 -54 OFFCURVE",
"345 -54 CURVE SMOOTH",
"318 -54 OFFCURVE",
"295 -76 OFFCURVE",
"295 -103 CURVE SMOOTH",
"295 -130 OFFCURVE",
"318 -152 OFFCURVE",
"345 -152 CURVE SMOOTH"
);
}
);
width = 678;
}
);
note = Ndotbelow;
unicode = 1E46;
},
{
glyphname = Eng;
lastChange = "2015-11-30 00:00:45 +0000";
layers = (
{
layerId = "36D117B3-9CBE-4AED-BB8C-253BFD0905A8";
name = Light;
paths = (
{
closed = 1;
nodes = (
"148 0 LINE",
"148 567 LINE",
"533 0 LINE",
"608 0 LINE",
"608 699 LINE",
"530 699 LINE",
"530 133 LINE",
"145 699 LINE",
"70 699 LINE",
"70 0 LINE"
);
},
{
closed = 1;
nodes = (
"546 -231 OFFCURVE",
"608 -181 OFFCURVE",
"608 -73 CURVE SMOOTH",
"608 480 LINE",
"531 480 LINE",
"531 -73 LINE SMOOTH",
"531 -140 OFFCURVE",
"508 -170 OFFCURVE",
"443 -170 CURVE SMOOTH",
"423 -170 OFFCURVE",
"401 -165 OFFCURVE",
"385 -157 CURVE",
"385 -222 LINE",
"403 -228 OFFCURVE",
"425 -231 OFFCURVE",
"454 -231 CURVE SMOOTH"
);
}
);
width = 678;
}
);
note = Eng;
unicode = 014A;
},
{
glyphname = Nlinebelow;
lastChange = "2015-11-30 00:00:45 +0000";
layers = (
{
layerId = "36D117B3-9CBE-4AED-BB8C-253BFD0905A8";
name = Light;
paths = (
{
closed = 1;
nodes = (
"148 0 LINE",
"148 567 LINE",
"533 0 LINE",
"608 0 LINE",
"608 699 LINE",
"530 699 LINE",
"530 133 LINE",
"145 699 LINE",
"70 699 LINE",
"70 0 LINE"
);
},
{
closed = 1;
nodes = (
"504 -131 LINE",
"504 -74 LINE",
"199 -74 LINE",
"199 -131 LINE"
);
}
);
width = 678;
}
);
note = Nlinebelow;
unicode = 1E48;
},
{
glyphname = Ntilde;
lastChange = "2015-11-30 00:00:47 +0000";
layers = (
{
layerId = "36D117B3-9CBE-4AED-BB8C-253BFD0905A8";
name = Light;
paths = (
{
closed = 1;
nodes = (
"148 0 LINE",
"148 567 LINE",
"533 0 LINE",
"608 0 LINE",
"608 699 LINE",
"530 699 LINE",
"530 133 LINE",
"145 699 LINE",
"70 699 LINE",
"70 0 LINE"
);
},
{
closed = 1;
nodes = (
"198 783 OFFCURVE",
"229 795 OFFCURVE",
"264 795 CURVE SMOOTH",
"328 795 OFFCURVE",
"372 745 OFFCURVE",
"445 745 CURVE SMOOTH",
"485 745 OFFCURVE",
"519 755 OFFCURVE",
"540 787 CURVE",
"540 856 LINE",
"513 816 OFFCURVE",
"481 804 OFFCURVE",
"445 804 CURVE SMOOTH",
"380 804 OFFCURVE",
"332 854 OFFCURVE",
"264 854 CURVE SMOOTH",
"225 854 OFFCURVE",
"190 843 OFFCURVE",
"169 811 CURVE",
"169 742 LINE"
);
}
);
width = 678;
}
);
note = Ntilde;
unicode = 00D1;
},
{
glyphname = O;
lastChange = "2015-11-30 00:00:46 +0000";
layers = (
{
layerId = "36D117B3-9CBE-4AED-BB8C-253BFD0905A8";
name = Light;
paths = (
{
closed = 1;
nodes = (
"624 -15 OFFCURVE",
"782 131 OFFCURVE",
"782 349 CURVE SMOOTH",
"782 568 OFFCURVE",
"624 714 OFFCURVE",
"416 714 CURVE SMOOTH",
"208 714 OFFCURVE",
"50 568 OFFCURVE",
"50 349 CURVE SMOOTH",
"50 131 OFFCURVE",
"208 -15 OFFCURVE",
"416 -15 CURVE SMOOTH"
);
},
{
closed = 1;
nodes = (
"256 55 OFFCURVE",
"128 167 OFFCURVE",
"128 349 CURVE SMOOTH",
"128 529 OFFCURVE",
"254 642 OFFCURVE",
"416 643 CURVE SMOOTH",
"578 644 OFFCURVE",
"704 529 OFFCURVE",
"704 349 CURVE SMOOTH",
"704 167 OFFCURVE",
"576 55 OFFCURVE",
"416 55 CURVE SMOOTH"
);
}
);
width = 832;
}
);
leftKerningGroup = O;
note = O;
rightKerningGroup = O;
unicode = 004F;
},
{
glyphname = Oacute;
lastChange = "2015-11-30 00:00:46 +0000";
layers = (
{
layerId = "36D117B3-9CBE-4AED-BB8C-253BFD0905A8";
name = Light;
paths = (
{
closed = 1;
nodes = (
"624 -15 OFFCURVE",
"782 131 OFFCURVE",
"782 349 CURVE SMOOTH",
"782 568 OFFCURVE",
"624 714 OFFCURVE",
"416 714 CURVE SMOOTH",
"208 714 OFFCURVE",
"50 568 OFFCURVE",
"50 349 CURVE SMOOTH",
"50 131 OFFCURVE",
"208 -15 OFFCURVE",
"416 -15 CURVE SMOOTH"
);
},
{
closed = 1;
nodes = (
"256 55 OFFCURVE",
"128 167 OFFCURVE",
"128 349 CURVE SMOOTH",
"128 529 OFFCURVE",
"254 642 OFFCURVE",
"416 643 CURVE SMOOTH",
"578 644 OFFCURVE",
"704 529 OFFCURVE",
"704 349 CURVE SMOOTH",
"704 167 OFFCURVE",
"576 55 OFFCURVE",
"416 55 CURVE SMOOTH"
);
},
{
closed = 1;
nodes = (
"450 742 LINE",
"530 912 LINE",
"449 912 LINE",
"381 742 LINE"
);
}
);
width = 832;
}
);
leftKerningGroup = O;
note = Oacute;
rightKerningGroup = O;
unicode = 00D3;
},
{
glyphname = Obreve;
lastChange = "2015-11-30 00:00:46 +0000";
layers = (
{
layerId = "36D117B3-9CBE-4AED-BB8C-253BFD0905A8";
name = Light;
paths = (
{
closed = 1;
nodes = (
"624 -15 OFFCURVE",
"782 131 OFFCURVE",
"782 349 CURVE SMOOTH",
"782 568 OFFCURVE",
"624 714 OFFCURVE",
"416 714 CURVE SMOOTH",
"208 714 OFFCURVE",
"50 568 OFFCURVE",
"50 349 CURVE SMOOTH",
"50 131 OFFCURVE",
"208 -15 OFFCURVE",
"416 -15 CURVE SMOOTH"
);
},
{
closed = 1;
nodes = (
"256 55 OFFCURVE",
"128 167 OFFCURVE",
"128 349 CURVE SMOOTH",
"128 529 OFFCURVE",
"254 642 OFFCURVE",
"416 643 CURVE SMOOTH",
"578 644 OFFCURVE",
"704 529 OFFCURVE",
"704 349 CURVE SMOOTH",
"704 167 OFFCURVE",
"576 55 OFFCURVE",
"416 55 CURVE SMOOTH"
);
},
{
closed = 1;
nodes = (
"502 742 OFFCURVE",
"556 797 OFFCURVE",
"556 872 CURVE",
"497 872 LINE",
"497 826 OFFCURVE",
"467 796 OFFCURVE",
"417 796 CURVE SMOOTH",
"367 796 OFFCURVE",
"337 826 OFFCURVE",
"337 872 CURVE",
"277 872 LINE",
"277 797 OFFCURVE",
"331 742 OFFCURVE",
"417 742 CURVE SMOOTH"
);
}
);
width = 832;
}
);
leftKerningGroup = O;
note = Obreve;
rightKerningGroup = O;
unicode = 014E;
},
{
glyphname = Ocaron;
lastChange = "2015-11-30 00:00:46 +0000";
layers = (
{
layerId = "36D117B3-9CBE-4AED-BB8C-253BFD0905A8";
name = Light;
paths = (
{
closed = 1;
nodes = (
"624 -15 OFFCURVE",
"782 131 OFFCURVE",
"782 349 CURVE SMOOTH",
"782 568 OFFCURVE",
"624 714 OFFCURVE",
"416 714 CURVE SMOOTH",
"208 714 OFFCURVE",
"50 568 OFFCURVE",
"50 349 CURVE SMOOTH",
"50 131 OFFCURVE",
"208 -15 OFFCURVE",
"416 -15 CURVE SMOOTH"
);
},
{
closed = 1;
nodes = (
"256 55 OFFCURVE",
"128 167 OFFCURVE",
"128 349 CURVE SMOOTH",
"128 529 OFFCURVE",
"254 642 OFFCURVE",
"416 643 CURVE SMOOTH",
"578 644 OFFCURVE",
"704 529 OFFCURVE",
"704 349 CURVE SMOOTH",
"704 167 OFFCURVE",
"576 55 OFFCURVE",
"416 55 CURVE SMOOTH"
);
},
{
closed = 1;
nodes = (
"450 742 LINE",
"587 903 LINE",
"509 903 LINE",
"417 789 LINE",
"325 903 LINE",
"246 903 LINE",
"383 742 LINE"
);
}
);
width = 832;
}
);
leftKerningGroup = O;
note = Ocaron;
rightKerningGroup = O;
unicode = 01D1;
},
{
glyphname = Ocircumflex;
lastChange = "2015-11-30 00:00:47 +0000";
layers = (
{
layerId = "36D117B3-9CBE-4AED-BB8C-253BFD0905A8";
name = Light;
paths = (
{
closed = 1;
nodes = (
"624 -15 OFFCURVE",
"782 131 OFFCURVE",
"782 349 CURVE SMOOTH",
"782 568 OFFCURVE",
"624 714 OFFCURVE",
"416 714 CURVE SMOOTH",
"208 714 OFFCURVE",
"50 568 OFFCURVE",
"50 349 CURVE SMOOTH",
"50 131 OFFCURVE",
"208 -15 OFFCURVE",
"416 -15 CURVE SMOOTH"
);
},
{
closed = 1;
nodes = (
"256 55 OFFCURVE",
"128 167 OFFCURVE",
"128 349 CURVE SMOOTH",
"128 529 OFFCURVE",
"254 642 OFFCURVE",
"416 643 CURVE SMOOTH",
"578 644 OFFCURVE",
"704 529 OFFCURVE",
"704 349 CURVE SMOOTH",
"704 167 OFFCURVE",
"576 55 OFFCURVE",
"416 55 CURVE SMOOTH"
);
},
{
closed = 1;
nodes = (
"325 742 LINE",
"417 856 LINE",
"509 742 LINE",
"587 742 LINE",
"450 903 LINE",
"383 903 LINE",
"246 742 LINE"
);
}
);
width = 832;
}
);
leftKerningGroup = O;
note = Ocircumflex;
rightKerningGroup = O;
unicode = 00D4;
},
{
glyphname = Ocircumflexacute;
lastChange = "2015-11-30 00:00:47 +0000";
layers = (
{
layerId = "36D117B3-9CBE-4AED-BB8C-253BFD0905A8";
name = Light;
paths = (
{
closed = 1;
nodes = (
"624 -15 OFFCURVE",
"782 131 OFFCURVE",
"782 349 CURVE SMOOTH",
"782 568 OFFCURVE",
"624 714 OFFCURVE",
"416 714 CURVE SMOOTH",
"208 714 OFFCURVE",
"50 568 OFFCURVE",
"50 349 CURVE SMOOTH",
"50 131 OFFCURVE",
"208 -15 OFFCURVE",
"416 -15 CURVE SMOOTH"
);
},
{
closed = 1;
nodes = (
"256 55 OFFCURVE",
"128 167 OFFCURVE",
"128 349 CURVE SMOOTH",
"128 529 OFFCURVE",
"254 642 OFFCURVE",
"416 643 CURVE SMOOTH",
"578 644 OFFCURVE",
"704 529 OFFCURVE",
"704 349 CURVE SMOOTH",
"704 167 OFFCURVE",
"576 55 OFFCURVE",
"416 55 CURVE SMOOTH"
);
},
{
closed = 1;
nodes = (
"333 742 LINE",
"425 837 LINE",
"517 742 LINE",
"595 742 LINE",
"458 880 LINE",
"391 880 LINE",
"254 742 LINE"
);
},
{
closed = 1;
nodes = (
"565 845 LINE",
"646 965 LINE",
"582 965 LINE",
"511 845 LINE"
);
}
);
width = 832;
}
);
leftKerningGroup = O;
note = Ocircumflexacute;
rightKerningGroup = O;
unicode = 1ED0;
},
{
glyphname = Ocircumflexdotbelow;
lastChange = "2015-11-30 00:00:45 +0000";
layers = (
{
layerId = "36D117B3-9CBE-4AED-BB8C-253BFD0905A8";
name = Light;
paths = (
{
closed = 1;
nodes = (
"624 -15 OFFCURVE",
"782 131 OFFCURVE",
"782 349 CURVE SMOOTH",
"782 568 OFFCURVE",
"624 714 OFFCURVE",
"416 714 CURVE SMOOTH",
"208 714 OFFCURVE",
"50 568 OFFCURVE",
"50 349 CURVE SMOOTH",
"50 131 OFFCURVE",
"208 -15 OFFCURVE",
"416 -15 CURVE SMOOTH"
);
},
{
closed = 1;
nodes = (
"443 -152 OFFCURVE",
"466 -130 OFFCURVE",
"466 -103 CURVE SMOOTH",
"466 -76 OFFCURVE",
"443 -54 OFFCURVE",
"417 -54 CURVE SMOOTH",
"390 -54 OFFCURVE",
"367 -76 OFFCURVE",
"367 -103 CURVE SMOOTH",
"367 -130 OFFCURVE",
"390 -152 OFFCURVE",
"417 -152 CURVE SMOOTH"
);
},
{
closed = 1;
nodes = (
"256 55 OFFCURVE",
"128 167 OFFCURVE",
"128 349 CURVE SMOOTH",
"128 529 OFFCURVE",
"254 642 OFFCURVE",
"416 643 CURVE SMOOTH",
"578 644 OFFCURVE",
"704 529 OFFCURVE",
"704 349 CURVE SMOOTH",
"704 167 OFFCURVE",
"576 55 OFFCURVE",
"416 55 CURVE SMOOTH"
);
},
{
closed = 1;
nodes = (
"324 742 LINE",
"416 856 LINE",
"508 742 LINE",
"586 742 LINE",
"449 903 LINE",
"382 903 LINE",
"245 742 LINE"
);
}
);
width = 832;
}
);
leftKerningGroup = O;
note = Ocircumflexdotbelow;
rightKerningGroup = O;
unicode = 1ED8;
},
{
glyphname = Ocircumflexgrave;
lastChange = "2015-11-30 00:00:47 +0000";
layers = (
{
layerId = "36D117B3-9CBE-4AED-BB8C-253BFD0905A8";
name = Light;
paths = (
{
closed = 1;
nodes = (
"625 -15 OFFCURVE",
"783 131 OFFCURVE",
"783 349 CURVE SMOOTH",
"783 568 OFFCURVE",
"625 714 OFFCURVE",
"417 714 CURVE SMOOTH",
"209 714 OFFCURVE",
"51 568 OFFCURVE",
"51 349 CURVE SMOOTH",
"51 131 OFFCURVE",
"209 -15 OFFCURVE",
"417 -15 CURVE SMOOTH"
);
},
{
closed = 1;
nodes = (
"257 55 OFFCURVE",
"129 167 OFFCURVE",
"129 349 CURVE SMOOTH",
"129 529 OFFCURVE",
"255 642 OFFCURVE",
"417 643 CURVE SMOOTH",
"579 644 OFFCURVE",
"705 529 OFFCURVE",
"705 349 CURVE SMOOTH",
"705 167 OFFCURVE",
"577 55 OFFCURVE",
"417 55 CURVE SMOOTH"
);
},
{
closed = 1;
nodes = (
"314 845 LINE",
"243 965 LINE",
"179 965 LINE",
"260 845 LINE"
);
},
{
closed = 1;
nodes = (
"308 742 LINE",
"400 837 LINE",
"492 742 LINE",
"571 742 LINE",
"434 880 LINE",
"367 880 LINE",
"230 742 LINE"
);
}
);
width = 832;
}
);
leftKerningGroup = O;
note = Ocircumflexgrave;
rightKerningGroup = O;
unicode = 1ED2;
},
{
glyphname = Ocircumflexhookabove;
lastChange = "2015-11-30 00:00:46 +0000";
layers = (
{
layerId = "36D117B3-9CBE-4AED-BB8C-253BFD0905A8";
name = Light;
paths = (
{
closed = 1;
nodes = (
"624 -15 OFFCURVE",
"782 131 OFFCURVE",
"782 349 CURVE SMOOTH",
"782 568 OFFCURVE",
"624 714 OFFCURVE",
"416 714 CURVE SMOOTH",
"208 714 OFFCURVE",
"50 568 OFFCURVE",
"50 349 CURVE SMOOTH",
"50 131 OFFCURVE",
"208 -15 OFFCURVE",
"416 -15 CURVE SMOOTH"
);
},
{
closed = 1;
nodes = (
"256 55 OFFCURVE",
"128 167 OFFCURVE",
"128 349 CURVE SMOOTH",
"128 529 OFFCURVE",
"254 642 OFFCURVE",
"416 643 CURVE SMOOTH",
"578 644 OFFCURVE",
"704 529 OFFCURVE",
"704 349 CURVE SMOOTH",
"704 167 OFFCURVE",
"576 55 OFFCURVE",
"416 55 CURVE SMOOTH"
);
},
{
closed = 1;
nodes = (
"320 742 LINE",
"412 837 LINE",
"504 742 LINE",
"583 742 LINE",
"446 880 LINE",
"379 880 LINE",
"242 742 LINE"
);
},
{
closed = 1;
nodes = (
"554 838 LINE",
"554 863 LINE",
"597 869 OFFCURVE",
"621 896 OFFCURVE",
"621 928 CURVE SMOOTH",
"621 968 OFFCURVE",
"592 994 OFFCURVE",
"537 994 CURVE SMOOTH",
"516 994 OFFCURVE",
"491 990 OFFCURVE",
"477 985 CURVE",
"477 949 LINE",
"487 954 OFFCURVE",
"506 957 OFFCURVE",
"522 957 CURVE SMOOTH",
"551 957 OFFCURVE",
"566 946 OFFCURVE",
"566 924 CURVE SMOOTH",
"566 900 OFFCURVE",
"547 888 OFFCURVE",
"504 888 CURVE",
"504 838 LINE"
);
}
);
width = 832;
}
);
leftKerningGroup = O;
note = Ocircumflexhookabove;
rightKerningGroup = O;
unicode = 1ED4;
},
{
glyphname = Ocircumflextilde;
lastChange = "2015-11-30 00:00:46 +0000";
layers = (
{
layerId = "36D117B3-9CBE-4AED-BB8C-253BFD0905A8";
name = Light;
paths = (
{
closed = 1;
nodes = (
"624 -15 OFFCURVE",
"782 131 OFFCURVE",
"782 349 CURVE SMOOTH",
"782 568 OFFCURVE",
"624 714 OFFCURVE",
"416 714 CURVE SMOOTH",
"208 714 OFFCURVE",
"50 568 OFFCURVE",
"50 349 CURVE SMOOTH",
"50 131 OFFCURVE",
"208 -15 OFFCURVE",
"416 -15 CURVE SMOOTH"
);
},
{
closed = 1;
nodes = (
"256 55 OFFCURVE",
"128 167 OFFCURVE",
"128 349 CURVE SMOOTH",
"128 529 OFFCURVE",
"254 642 OFFCURVE",
"416 643 CURVE SMOOTH",
"578 644 OFFCURVE",
"704 529 OFFCURVE",
"704 349 CURVE SMOOTH",
"704 167 OFFCURVE",
"576 55 OFFCURVE",
"416 55 CURVE SMOOTH"
);
},
{
closed = 1;
nodes = (
"506 742 OFFCURVE",
"559 796 OFFCURVE",
"559 870 CURVE",
"502 870 LINE",
"502 824 OFFCURVE",
"472 794 OFFCURVE",
"422 794 CURVE SMOOTH",
"372 794 OFFCURVE",
"342 824 OFFCURVE",
"342 870 CURVE",
"285 870 LINE",
"285 796 OFFCURVE",
"338 742 OFFCURVE",
"422 742 CURVE SMOOTH"
);
},
{
closed = 1;
nodes = (
"280 922 OFFCURVE",
"307 932 OFFCURVE",
"337 932 CURVE SMOOTH",
"393 932 OFFCURVE",
"432 889 OFFCURVE",
"496 889 CURVE SMOOTH",
"531 889 OFFCURVE",
"561 897 OFFCURVE",
"579 925 CURVE",
"579 986 LINE",
"555 951 OFFCURVE",
"527 940 OFFCURVE",
"496 940 CURVE SMOOTH",
"439 940 OFFCURVE",
"397 984 OFFCURVE",
"337 984 CURVE SMOOTH",
"303 984 OFFCURVE",
"273 975 OFFCURVE",
"254 947 CURVE",
"254 886 LINE"
);
}
);
width = 832;
}
);
leftKerningGroup = O;
note = Ocircumflextilde;
rightKerningGroup = O;
unicode = 1ED6;
},
{
glyphname = Odieresis;
lastChange = "2015-11-30 00:00:46 +0000";
layers = (
{
layerId = "36D117B3-9CBE-4AED-BB8C-253BFD0905A8";
name = Light;
paths = (
{
closed = 1;
nodes = (
"624 -15 OFFCURVE",
"782 131 OFFCURVE",
"782 349 CURVE SMOOTH",
"782 568 OFFCURVE",
"624 714 OFFCURVE",
"416 714 CURVE SMOOTH",
"208 714 OFFCURVE",
"50 568 OFFCURVE",
"50 349 CURVE SMOOTH",
"50 131 OFFCURVE",
"208 -15 OFFCURVE",
"416 -15 CURVE SMOOTH"
);
},
{
closed = 1;
nodes = (
"256 55 OFFCURVE",
"128 167 OFFCURVE",
"128 349 CURVE SMOOTH",
"128 529 OFFCURVE",
"254 642 OFFCURVE",
"416 643 CURVE SMOOTH",
"578 644 OFFCURVE",
"704 529 OFFCURVE",
"704 349 CURVE SMOOTH",
"704 167 OFFCURVE",
"576 55 OFFCURVE",
"416 55 CURVE SMOOTH"
);
},
{
closed = 1;
nodes = (
"334 742 OFFCURVE",
"357 764 OFFCURVE",
"357 791 CURVE SMOOTH",
"357 818 OFFCURVE",
"334 840 OFFCURVE",
"308 840 CURVE SMOOTH",
"281 840 OFFCURVE",
"258 818 OFFCURVE",
"258 791 CURVE SMOOTH",
"258 764 OFFCURVE",
"281 742 OFFCURVE",
"308 742 CURVE SMOOTH"
);
},
{
closed = 1;
nodes = (
"551 742 OFFCURVE",
"574 764 OFFCURVE",
"574 791 CURVE SMOOTH",
"574 818 OFFCURVE",
"551 840 OFFCURVE",
"525 840 CURVE SMOOTH",
"498 840 OFFCURVE",
"475 818 OFFCURVE",
"475 791 CURVE SMOOTH",
"475 764 OFFCURVE",
"498 742 OFFCURVE",
"525 742 CURVE SMOOTH"
);
}
);
width = 832;
}
);
leftKerningGroup = O;
note = Odieresis;
rightKerningGroup = O;
unicode = 00D6;
},
{
glyphname = Odotbelow;
lastChange = "2015-11-30 00:00:47 +0000";
layers = (
{
layerId = "36D117B3-9CBE-4AED-BB8C-253BFD0905A8";
name = Light;
paths = (
{
closed = 1;
nodes = (
"624 -15 OFFCURVE",
"782 131 OFFCURVE",
"782 349 CURVE SMOOTH",
"782 568 OFFCURVE",
"624 714 OFFCURVE",
"416 714 CURVE SMOOTH",
"208 714 OFFCURVE",
"50 568 OFFCURVE",
"50 349 CURVE SMOOTH",
"50 131 OFFCURVE",
"208 -15 OFFCURVE",
"416 -15 CURVE SMOOTH"
);
},
{
closed = 1;
nodes = (
"443 -152 OFFCURVE",
"466 -130 OFFCURVE",
"466 -103 CURVE SMOOTH",
"466 -76 OFFCURVE",
"443 -54 OFFCURVE",
"417 -54 CURVE SMOOTH",
"390 -54 OFFCURVE",
"367 -76 OFFCURVE",
"367 -103 CURVE SMOOTH",
"367 -130 OFFCURVE",
"390 -152 OFFCURVE",
"417 -152 CURVE SMOOTH"
);
},
{
closed = 1;
nodes = (
"256 55 OFFCURVE",
"128 167 OFFCURVE",
"128 349 CURVE SMOOTH",
"128 529 OFFCURVE",
"254 642 OFFCURVE",
"416 643 CURVE SMOOTH",
"578 644 OFFCURVE",
"704 529 OFFCURVE",
"704 349 CURVE SMOOTH",
"704 167 OFFCURVE",
"576 55 OFFCURVE",
"416 55 CURVE SMOOTH"
);
}
);
width = 832;
}
);
leftKerningGroup = O;
note = Odotbelow;
rightKerningGroup = O;
unicode = 1ECC;
},
{
glyphname = Ograve;
lastChange = "2015-11-30 00:00:45 +0000";
layers = (
{
layerId = "36D117B3-9CBE-4AED-BB8C-253BFD0905A8";
name = Light;
paths = (
{
closed = 1;
nodes = (
"624 -15 OFFCURVE",
"782 131 OFFCURVE",
"782 349 CURVE SMOOTH",
"782 568 OFFCURVE",
"624 714 OFFCURVE",
"416 714 CURVE SMOOTH",
"208 714 OFFCURVE",
"50 568 OFFCURVE",
"50 349 CURVE SMOOTH",
"50 131 OFFCURVE",
"208 -15 OFFCURVE",
"416 -15 CURVE SMOOTH"
);
},
{
closed = 1;
nodes = (
"256 55 OFFCURVE",
"128 167 OFFCURVE",
"128 349 CURVE SMOOTH",
"128 529 OFFCURVE",
"254 642 OFFCURVE",
"416 643 CURVE SMOOTH",
"578 644 OFFCURVE",
"704 529 OFFCURVE",
"704 349 CURVE SMOOTH",
"704 167 OFFCURVE",
"576 55 OFFCURVE",
"416 55 CURVE SMOOTH"
);
},
{
closed = 1;
nodes = (
"463 742 LINE",
"395 912 LINE",
"314 912 LINE",
"394 742 LINE"
);
}
);
width = 832;
}
);
leftKerningGroup = O;
note = Ograve;
rightKerningGroup = O;
unicode = 00D2;
},
{
glyphname = Ohookabove;
lastChange = "2015-11-30 00:00:47 +0000";
layers = (
{
layerId = "36D117B3-9CBE-4AED-BB8C-253BFD0905A8";
name = Light;
paths = (
{
closed = 1;
nodes = (
"624 -15 OFFCURVE",
"782 131 OFFCURVE",
"782 349 CURVE SMOOTH",
"782 568 OFFCURVE",
"624 714 OFFCURVE",
"416 714 CURVE SMOOTH",
"208 714 OFFCURVE",
"50 568 OFFCURVE",
"50 349 CURVE SMOOTH",
"50 131 OFFCURVE",
"208 -15 OFFCURVE",
"416 -15 CURVE SMOOTH"
);
},
{
closed = 1;
nodes = (
"256 55 OFFCURVE",
"128 167 OFFCURVE",
"128 349 CURVE SMOOTH",
"128 529 OFFCURVE",
"254 642 OFFCURVE",
"416 643 CURVE SMOOTH",
"578 644 OFFCURVE",
"704 529 OFFCURVE",
"704 349 CURVE SMOOTH",
"704 167 OFFCURVE",
"576 55 OFFCURVE",
"416 55 CURVE SMOOTH"
);
},
{
closed = 1;
nodes = (
"451 742 LINE",
"451 777 LINE",
"513 783 OFFCURVE",
"545 823 OFFCURVE",
"545 871 CURVE SMOOTH",
"545 926 OFFCURVE",
"505 964 OFFCURVE",
"423 964 CURVE SMOOTH",
"395 964 OFFCURVE",
"364 959 OFFCURVE",
"347 953 CURVE",
"347 908 LINE",
"359 914 OFFCURVE",
"390 918 OFFCURVE",
"407 918 CURVE SMOOTH",
"454 918 OFFCURVE",
"477 903 OFFCURVE",
"477 868 CURVE SMOOTH",
"477 827 OFFCURVE",
"448 810 OFFCURVE",
"384 810 CURVE",
"384 742 LINE"
);
}
);
width = 832;
}
);
leftKerningGroup = O;
note = Ohookabove;
rightKerningGroup = O;
unicode = 1ECE;
},
{
glyphname = Ohorn;
lastChange = "2015-11-30 00:00:46 +0000";
layers = (
{
layerId = "36D117B3-9CBE-4AED-BB8C-253BFD0905A8";
name = Light;
paths = (
{
closed = 1;
nodes = (
"624 -15 OFFCURVE",
"782 131 OFFCURVE",
"782 349 CURVE SMOOTH",
"782 434 OFFCURVE",
"758 508 OFFCURVE",
"717 566 CURVE",
"784 583 OFFCURVE",
"828 641 OFFCURVE",
"828 707 CURVE SMOOTH",
"828 747 LINE",
"757 747 LINE",
"757 711 LINE SMOOTH",
"757 656 OFFCURVE",
"727 625 OFFCURVE",
"667 623 CURVE",
"602 681 OFFCURVE",
"515 714 OFFCURVE",
"416 714 CURVE SMOOTH",
"208 714 OFFCURVE",
"50 568 OFFCURVE",
"50 349 CURVE SMOOTH",
"50 131 OFFCURVE",
"208 -15 OFFCURVE",
"416 -15 CURVE SMOOTH"
);
},
{
closed = 1;
nodes = (
"256 55 OFFCURVE",
"128 167 OFFCURVE",
"128 349 CURVE SMOOTH",
"128 529 OFFCURVE",
"254 642 OFFCURVE",
"416 643 CURVE SMOOTH",
"578 644 OFFCURVE",
"704 529 OFFCURVE",
"704 349 CURVE SMOOTH",
"704 167 OFFCURVE",
"576 55 OFFCURVE",
"416 55 CURVE SMOOTH"
);
}
);
width = 853;
}
);
leftKerningGroup = O;
note = Ohorn;
rightKerningGroup = O;
unicode = 01A0;
},
{
glyphname = Ohornacute;
lastChange = "2015-11-30 00:00:47 +0000";
layers = (
{
layerId = "36D117B3-9CBE-4AED-BB8C-253BFD0905A8";
name = Light;
paths = (
{
closed = 1;
nodes = (
"624 -15 OFFCURVE",
"782 131 OFFCURVE",
"782 349 CURVE SMOOTH",
"782 434 OFFCURVE",
"758 508 OFFCURVE",
"717 566 CURVE",
"784 583 OFFCURVE",
"828 641 OFFCURVE",
"828 707 CURVE SMOOTH",
"828 747 LINE",
"757 747 LINE",
"757 711 LINE SMOOTH",
"757 656 OFFCURVE",
"727 625 OFFCURVE",
"667 623 CURVE",
"602 681 OFFCURVE",
"515 714 OFFCURVE",
"416 714 CURVE SMOOTH",
"208 714 OFFCURVE",
"50 568 OFFCURVE",
"50 349 CURVE SMOOTH",
"50 131 OFFCURVE",
"208 -15 OFFCURVE",
"416 -15 CURVE SMOOTH"
);
},
{
closed = 1;
nodes = (
"256 55 OFFCURVE",
"128 167 OFFCURVE",
"128 349 CURVE SMOOTH",
"128 529 OFFCURVE",
"254 642 OFFCURVE",
"416 643 CURVE SMOOTH",
"578 644 OFFCURVE",
"704 529 OFFCURVE",
"704 349 CURVE SMOOTH",
"704 167 OFFCURVE",
"576 55 OFFCURVE",
"416 55 CURVE SMOOTH"
);
},
{
closed = 1;
nodes = (
"456 742 LINE",
"536 912 LINE",
"455 912 LINE",
"387 742 LINE"
);
}
);
width = 853;
}
);
leftKerningGroup = O;
note = Ohornacute;
rightKerningGroup = O;
unicode = 1EDA;
},
{
glyphname = Ohorndotbelow;
lastChange = "2015-11-30 00:00:46 +0000";
layers = (
{
layerId = "36D117B3-9CBE-4AED-BB8C-253BFD0905A8";
name = Light;
paths = (
{
closed = 1;
nodes = (
"624 -15 OFFCURVE",
"782 131 OFFCURVE",
"782 349 CURVE SMOOTH",
"782 434 OFFCURVE",
"758 508 OFFCURVE",
"717 566 CURVE",
"784 583 OFFCURVE",
"828 641 OFFCURVE",
"828 707 CURVE SMOOTH",
"828 747 LINE",
"757 747 LINE",
"757 711 LINE SMOOTH",
"757 656 OFFCURVE",
"727 625 OFFCURVE",
"667 623 CURVE",
"602 681 OFFCURVE",
"515 714 OFFCURVE",
"416 714 CURVE SMOOTH",
"208 714 OFFCURVE",
"50 568 OFFCURVE",
"50 349 CURVE SMOOTH",
"50 131 OFFCURVE",
"208 -15 OFFCURVE",
"416 -15 CURVE SMOOTH"
);
},
{
closed = 1;
nodes = (
"443 -152 OFFCURVE",
"466 -130 OFFCURVE",
"466 -103 CURVE SMOOTH",
"466 -76 OFFCURVE",
"443 -54 OFFCURVE",
"417 -54 CURVE SMOOTH",
"390 -54 OFFCURVE",
"367 -76 OFFCURVE",
"367 -103 CURVE SMOOTH",
"367 -130 OFFCURVE",
"390 -152 OFFCURVE",
"417 -152 CURVE SMOOTH"
);
},
{
closed = 1;
nodes = (
"256 55 OFFCURVE",
"128 167 OFFCURVE",
"128 349 CURVE SMOOTH",
"128 529 OFFCURVE",
"254 642 OFFCURVE",
"416 643 CURVE SMOOTH",
"578 644 OFFCURVE",
"704 529 OFFCURVE",
"704 349 CURVE SMOOTH",
"704 167 OFFCURVE",
"576 55 OFFCURVE",
"416 55 CURVE SMOOTH"
);
}
);
width = 853;
}
);
leftKerningGroup = O;
note = Ohorndotbelow;
rightKerningGroup = O;
unicode = 1EE2;
},
{
glyphname = Ohorngrave;
lastChange = "2015-11-30 00:00:47 +0000";
layers = (
{
layerId = "36D117B3-9CBE-4AED-BB8C-253BFD0905A8";
name = Light;
paths = (
{
closed = 1;
nodes = (
"624 -15 OFFCURVE",
"782 131 OFFCURVE",
"782 349 CURVE SMOOTH",
"782 434 OFFCURVE",
"758 508 OFFCURVE",
"717 566 CURVE",
"784 583 OFFCURVE",
"828 641 OFFCURVE",
"828 707 CURVE SMOOTH",
"828 747 LINE",
"757 747 LINE",
"757 711 LINE SMOOTH",
"757 656 OFFCURVE",
"727 625 OFFCURVE",
"667 623 CURVE",
"602 681 OFFCURVE",
"515 714 OFFCURVE",
"416 714 CURVE SMOOTH",
"208 714 OFFCURVE",
"50 568 OFFCURVE",
"50 349 CURVE SMOOTH",
"50 131 OFFCURVE",
"208 -15 OFFCURVE",
"416 -15 CURVE SMOOTH"
);
},
{
closed = 1;
nodes = (
"256 55 OFFCURVE",
"128 167 OFFCURVE",
"128 349 CURVE SMOOTH",
"128 529 OFFCURVE",
"254 642 OFFCURVE",
"416 643 CURVE SMOOTH",
"578 644 OFFCURVE",
"704 529 OFFCURVE",
"704 349 CURVE SMOOTH",
"704 167 OFFCURVE",
"576 55 OFFCURVE",
"416 55 CURVE SMOOTH"
);
},
{
closed = 1;
nodes = (
"452 742 LINE",
"384 912 LINE",
"303 912 LINE",
"383 742 LINE"
);
}
);
width = 853;
}
);
leftKerningGroup = O;
note = Ohorngrave;
rightKerningGroup = O;
unicode = 1EDC;
},
{
glyphname = Ohornhookabove;
lastChange = "2015-11-30 00:00:47 +0000";
layers = (
{
layerId = "36D117B3-9CBE-4AED-BB8C-253BFD0905A8";
name = Light;
paths = (
{
closed = 1;
nodes = (
"624 -15 OFFCURVE",
"782 131 OFFCURVE",
"782 349 CURVE SMOOTH",
"782 434 OFFCURVE",
"758 508 OFFCURVE",
"717 566 CURVE",
"784 583 OFFCURVE",
"828 641 OFFCURVE",
"828 707 CURVE SMOOTH",
"828 747 LINE",
"757 747 LINE",
"757 711 LINE SMOOTH",
"757 656 OFFCURVE",
"727 625 OFFCURVE",
"667 623 CURVE",
"602 681 OFFCURVE",
"515 714 OFFCURVE",
"416 714 CURVE SMOOTH",
"208 714 OFFCURVE",
"50 568 OFFCURVE",
"50 349 CURVE SMOOTH",
"50 131 OFFCURVE",
"208 -15 OFFCURVE",
"416 -15 CURVE SMOOTH"
);
},
{
closed = 1;
nodes = (
"256 55 OFFCURVE",
"128 167 OFFCURVE",
"128 349 CURVE SMOOTH",
"128 529 OFFCURVE",
"254 642 OFFCURVE",
"416 643 CURVE SMOOTH",
"578 644 OFFCURVE",
"704 529 OFFCURVE",
"704 349 CURVE SMOOTH",
"704 167 OFFCURVE",
"576 55 OFFCURVE",
"416 55 CURVE SMOOTH"
);
},
{
closed = 1;
nodes = (
"452 742 LINE",
"452 777 LINE",
"514 783 OFFCURVE",
"546 823 OFFCURVE",
"546 871 CURVE SMOOTH",
"546 926 OFFCURVE",
"506 964 OFFCURVE",
"424 964 CURVE SMOOTH",
"396 964 OFFCURVE",
"365 959 OFFCURVE",
"348 953 CURVE",
"348 908 LINE",
"360 914 OFFCURVE",
"391 918 OFFCURVE",
"408 918 CURVE SMOOTH",
"455 918 OFFCURVE",
"478 903 OFFCURVE",
"478 868 CURVE SMOOTH",
"478 827 OFFCURVE",
"449 810 OFFCURVE",
"385 810 CURVE",
"385 742 LINE"
);
}
);
width = 853;
}
);
leftKerningGroup = O;
note = Ohornhookabove;
rightKerningGroup = O;
unicode = 1EDE;
},
{
glyphname = Ohorntilde;
lastChange = "2015-11-30 00:00:45 +0000";
layers = (
{
layerId = "36D117B3-9CBE-4AED-BB8C-253BFD0905A8";
name = Light;
paths = (
{
closed = 1;
nodes = (
"624 -15 OFFCURVE",
"782 131 OFFCURVE",
"782 349 CURVE SMOOTH",
"782 434 OFFCURVE",
"758 508 OFFCURVE",
"717 566 CURVE",
"784 583 OFFCURVE",
"828 641 OFFCURVE",
"828 707 CURVE SMOOTH",
"828 747 LINE",
"757 747 LINE",
"757 711 LINE SMOOTH",
"757 656 OFFCURVE",
"727 625 OFFCURVE",
"667 623 CURVE",
"602 681 OFFCURVE",
"515 714 OFFCURVE",
"416 714 CURVE SMOOTH",
"208 714 OFFCURVE",
"50 568 OFFCURVE",
"50 349 CURVE SMOOTH",
"50 131 OFFCURVE",
"208 -15 OFFCURVE",
"416 -15 CURVE SMOOTH"
);
},
{
closed = 1;
nodes = (
"256 55 OFFCURVE",
"128 167 OFFCURVE",
"128 349 CURVE SMOOTH",
"128 529 OFFCURVE",
"254 642 OFFCURVE",
"416 643 CURVE SMOOTH",
"578 644 OFFCURVE",
"704 529 OFFCURVE",
"704 349 CURVE SMOOTH",
"704 167 OFFCURVE",
"576 55 OFFCURVE",
"416 55 CURVE SMOOTH"
);
},
{
closed = 1;
nodes = (
"282 783 OFFCURVE",
"313 795 OFFCURVE",
"348 795 CURVE SMOOTH",
"412 795 OFFCURVE",
"456 745 OFFCURVE",
"529 745 CURVE SMOOTH",
"569 745 OFFCURVE",
"603 755 OFFCURVE",
"624 787 CURVE",
"624 856 LINE",
"597 816 OFFCURVE",
"565 804 OFFCURVE",
"529 804 CURVE SMOOTH",
"464 804 OFFCURVE",
"416 854 OFFCURVE",
"348 854 CURVE SMOOTH",
"309 854 OFFCURVE",
"274 843 OFFCURVE",
"253 811 CURVE",
"253 742 LINE"
);
}
);
width = 853;
}
);
leftKerningGroup = O;
note = Ohorntilde;
rightKerningGroup = O;
unicode = 1EE0;
},
{
glyphname = Ohungarumlaut;
lastChange = "2015-11-30 00:00:46 +0000";
layers = (
{
layerId = "36D117B3-9CBE-4AED-BB8C-253BFD0905A8";
name = Light;
paths = (
{
closed = 1;
nodes = (
"624 -15 OFFCURVE",
"782 131 OFFCURVE",
"782 349 CURVE SMOOTH",
"782 568 OFFCURVE",
"624 714 OFFCURVE",
"416 714 CURVE SMOOTH",
"208 714 OFFCURVE",
"50 568 OFFCURVE",
"50 349 CURVE SMOOTH",
"50 131 OFFCURVE",
"208 -15 OFFCURVE",
"416 -15 CURVE SMOOTH"
);
},
{
closed = 1;
nodes = (
"256 55 OFFCURVE",
"128 167 OFFCURVE",
"128 349 CURVE SMOOTH",
"128 529 OFFCURVE",
"254 642 OFFCURVE",
"416 643 CURVE SMOOTH",
"578 644 OFFCURVE",
"704 529 OFFCURVE",
"704 349 CURVE SMOOTH",
"704 167 OFFCURVE",
"576 55 OFFCURVE",
"416 55 CURVE SMOOTH"
);
},
{
closed = 1;
nodes = (
"347 742 LINE",
"427 912 LINE",
"346 912 LINE",
"278 742 LINE"
);
},
{
closed = 1;
nodes = (
"537 742 LINE",
"617 912 LINE",
"536 912 LINE",
"468 742 LINE"
);
}
);
width = 832;
}
);
leftKerningGroup = O;
note = Ohungarumlaut;
rightKerningGroup = O;
unicode = 0150;
},
{
glyphname = Omacron;
lastChange = "2015-11-30 00:00:46 +0000";
layers = (
{
layerId = "36D117B3-9CBE-4AED-BB8C-253BFD0905A8";
name = Light;
paths = (
{
closed = 1;
nodes = (
"624 -15 OFFCURVE",
"782 131 OFFCURVE",
"782 349 CURVE SMOOTH",
"782 568 OFFCURVE",
"624 714 OFFCURVE",
"416 714 CURVE SMOOTH",
"208 714 OFFCURVE",
"50 568 OFFCURVE",
"50 349 CURVE SMOOTH",
"50 131 OFFCURVE",
"208 -15 OFFCURVE",
"416 -15 CURVE SMOOTH"
);
},
{
closed = 1;
nodes = (
"256 55 OFFCURVE",
"128 167 OFFCURVE",
"128 349 CURVE SMOOTH",
"128 529 OFFCURVE",
"254 642 OFFCURVE",
"416 643 CURVE SMOOTH",
"578 644 OFFCURVE",
"704 529 OFFCURVE",
"704 349 CURVE SMOOTH",
"704 167 OFFCURVE",
"576 55 OFFCURVE",
"416 55 CURVE SMOOTH"
);
},
{
closed = 1;
nodes = (
"567 762 LINE",
"567 816 LINE",
"266 816 LINE",
"266 762 LINE"
);
}
);
width = 832;
}
);
leftKerningGroup = O;
note = Omacron;
rightKerningGroup = O;
unicode = 014C;
},
{
glyphname = Oslash;
lastChange = "2015-11-30 00:00:47 +0000";
layers = (
{
layerId = "36D117B3-9CBE-4AED-BB8C-253BFD0905A8";
name = Light;
paths = (
{
closed = 1;
nodes = (
"283 -86 LINE",
"316 -3 LINE",
"348 -11 OFFCURVE",
"381 -15 OFFCURVE",
"416 -15 CURVE SMOOTH",
"624 -15 OFFCURVE",
"782 131 OFFCURVE",
"782 349 CURVE SMOOTH",
"782 501 OFFCURVE",
"706 618 OFFCURVE",
"589 675 CURVE",
"633 784 LINE",
"557 784 LINE",
"523 700 LINE",
"489 709 OFFCURVE",
"453 714 OFFCURVE",
"416 714 CURVE SMOOTH",
"208 714 OFFCURVE",
"50 568 OFFCURVE",
"50 349 CURVE SMOOTH",
"50 194 OFFCURVE",
"129 76 OFFCURVE",
"250 20 CURVE",
"207 -86 LINE"
);
},
{
closed = 1;
nodes = (
"188 132 OFFCURVE",
"128 224 OFFCURVE",
"128 349 CURVE SMOOTH",
"128 529 OFFCURVE",
"254 642 OFFCURVE",
"416 643 CURVE SMOOTH",
"444 643 OFFCURVE",
"471 640 OFFCURVE",
"496 633 CURVE",
"277 87 LINE"
);
},
{
closed = 1;
nodes = (
"390 55 OFFCURVE",
"366 58 OFFCURVE",
"343 63 CURVE",
"562 607 LINE",
"647 560 OFFCURVE",
"704 469 OFFCURVE",
"704 349 CURVE SMOOTH",
"704 167 OFFCURVE",
"576 55 OFFCURVE",
"416 55 CURVE SMOOTH"
);
}
);
width = 832;
}
);
leftKerningGroup = O;
note = Oslash;
rightKerningGroup = O;
unicode = 00D8;
},
{
glyphname = Oslashacute;
lastChange = "2015-11-30 00:00:46 +0000";
layers = (
{
layerId = "36D117B3-9CBE-4AED-BB8C-253BFD0905A8";
name = Light;
paths = (
{
closed = 1;
nodes = (
"283 -86 LINE",
"316 -3 LINE",
"348 -11 OFFCURVE",
"381 -15 OFFCURVE",
"416 -15 CURVE SMOOTH",
"624 -15 OFFCURVE",
"782 131 OFFCURVE",
"782 349 CURVE SMOOTH",
"782 501 OFFCURVE",
"706 618 OFFCURVE",
"589 675 CURVE",
"633 784 LINE",
"557 784 LINE",
"523 700 LINE",
"489 709 OFFCURVE",
"453 714 OFFCURVE",
"416 714 CURVE SMOOTH",
"208 714 OFFCURVE",
"50 568 OFFCURVE",
"50 349 CURVE SMOOTH",
"50 194 OFFCURVE",
"129 76 OFFCURVE",
"250 20 CURVE",
"207 -86 LINE"
);
},
{
closed = 1;
nodes = (
"188 132 OFFCURVE",
"128 224 OFFCURVE",
"128 349 CURVE SMOOTH",
"128 529 OFFCURVE",
"254 642 OFFCURVE",
"416 643 CURVE SMOOTH",
"444 643 OFFCURVE",
"471 640 OFFCURVE",
"496 633 CURVE",
"277 87 LINE"
);
},
{
closed = 1;
nodes = (
"390 55 OFFCURVE",
"366 58 OFFCURVE",
"343 63 CURVE",
"562 607 LINE",
"647 560 OFFCURVE",
"704 469 OFFCURVE",
"704 349 CURVE SMOOTH",
"704 167 OFFCURVE",
"576 55 OFFCURVE",
"416 55 CURVE SMOOTH"
);
},
{
closed = 1;
nodes = (
"452 755 LINE",
"532 925 LINE",
"451 925 LINE",
"383 755 LINE"
);
}
);
width = 832;
}
);
leftKerningGroup = O;
note = Oslashacute;
rightKerningGroup = O;
unicode = 01FE;
},
{
glyphname = Otilde;
lastChange = "2015-11-30 00:00:45 +0000";
layers = (
{
layerId = "36D117B3-9CBE-4AED-BB8C-253BFD0905A8";
name = Light;
paths = (
{
closed = 1;
nodes = (
"624 -15 OFFCURVE",
"782 131 OFFCURVE",
"782 349 CURVE SMOOTH",
"782 568 OFFCURVE",
"624 714 OFFCURVE",
"416 714 CURVE SMOOTH",
"208 714 OFFCURVE",
"50 568 OFFCURVE",
"50 349 CURVE SMOOTH",
"50 131 OFFCURVE",
"208 -15 OFFCURVE",
"416 -15 CURVE SMOOTH"
);
},
{
closed = 1;
nodes = (
"256 55 OFFCURVE",
"128 167 OFFCURVE",
"128 349 CURVE SMOOTH",
"128 529 OFFCURVE",
"254 642 OFFCURVE",
"416 643 CURVE SMOOTH",
"578 644 OFFCURVE",
"704 529 OFFCURVE",
"704 349 CURVE SMOOTH",
"704 167 OFFCURVE",
"576 55 OFFCURVE",
"416 55 CURVE SMOOTH"
);
},
{
closed = 1;
nodes = (
"260 783 OFFCURVE",
"291 795 OFFCURVE",
"326 795 CURVE SMOOTH",
"390 795 OFFCURVE",
"434 745 OFFCURVE",
"507 745 CURVE SMOOTH",
"547 745 OFFCURVE",
"581 755 OFFCURVE",
"602 787 CURVE",
"602 856 LINE",
"575 816 OFFCURVE",
"543 804 OFFCURVE",
"507 804 CURVE SMOOTH",
"442 804 OFFCURVE",
"394 854 OFFCURVE",
"326 854 CURVE SMOOTH",
"287 854 OFFCURVE",
"252 843 OFFCURVE",
"231 811 CURVE",
"231 742 LINE"
);
}
);
width = 832;
}
);
leftKerningGroup = O;
note = Otilde;
rightKerningGroup = O;
unicode = 00D5;
},
{
glyphname = OE;
lastChange = "2015-11-30 00:00:46 +0000";
layers = (
{
layerId = "36D117B3-9CBE-4AED-BB8C-253BFD0905A8";
name = Light;
paths = (
{
closed = 1;
nodes = (
"839 0 LINE",
"839 66 LINE",
"521 66 LINE",
"521 317 LINE",
"747 317 LINE",
"747 383 LINE",
"521 383 LINE",
"521 633 LINE",
"839 633 LINE",
"839 699 LINE",
"422 699 LINE SMOOTH",
"210 699 OFFCURVE",
"50 568 OFFCURVE",
"50 349 CURVE SMOOTH",
"50 131 OFFCURVE",
"210 0 OFFCURVE",
"422 0 CURVE SMOOTH"
);
},
{
closed = 1;
nodes = (
"259 66 OFFCURVE",
"128 168 OFFCURVE",
"128 349 CURVE SMOOTH",
"128 531 OFFCURVE",
"257 633 OFFCURVE",
"417 633 CURVE SMOOTH",
"443 633 LINE",
"443 66 LINE",
"417 66 LINE SMOOTH"
);
}
);
width = 889;
}
);
leftKerningGroup = O;
note = OE;
rightKerningGroup = E;
unicode = 0152;
},
{
glyphname = P;
lastChange = "2015-11-30 00:00:46 +0000";
layers = (
{
layerId = "36D117B3-9CBE-4AED-BB8C-253BFD0905A8";
name = Light;
paths = (
{
closed = 1;
nodes = (
"148 0 LINE",
"148 288 LINE",
"329 288 LINE SMOOTH",
"473 288 OFFCURVE",
"562 353 OFFCURVE",
"562 493 CURVE SMOOTH",
"562 631 OFFCURVE",
"473 699 OFFCURVE",
"329 699 CURVE SMOOTH",
"70 699 LINE",
"70 0 LINE"
);
},
{
closed = 1;
nodes = (
"148 633 LINE",
"323 633 LINE SMOOTH",
"412 633 OFFCURVE",
"484 606 OFFCURVE",
"484 493 CURVE SMOOTH",
"484 381 OFFCURVE",
"412 354 OFFCURVE",
"323 354 CURVE SMOOTH",
"148 354 LINE"
);
}
);
width = 592;
}
);
note = P;
unicode = 0050;
},
{
glyphname = Thorn;
lastChange = "2015-11-30 00:00:47 +0000";
layers = (
{
layerId = "36D117B3-9CBE-4AED-BB8C-253BFD0905A8";
name = Light;
paths = (
{
closed = 1;
nodes = (
"148 0 LINE",
"148 149 LINE",
"333 149 LINE SMOOTH",
"477 149 OFFCURVE",
"562 210 OFFCURVE",
"562 350 CURVE SMOOTH",
"562 491 OFFCURVE",
"477 552 OFFCURVE",
"333 552 CURVE SMOOTH",
"148 552 LINE",
"148 699 LINE",
"70 699 LINE",
"70 0 LINE"
);
},
{
closed = 1;
nodes = (
"148 486 LINE",
"323 486 LINE SMOOTH",
"412 486 OFFCURVE",
"484 463 OFFCURVE",
"484 350 CURVE SMOOTH",
"484 238 OFFCURVE",
"412 215 OFFCURVE",
"323 215 CURVE SMOOTH",
"148 215 LINE"
);
}
);
width = 592;
}
);
note = Thorn;
unicode = 00DE;
},
{
glyphname = Q;
lastChange = "2015-11-30 00:00:45 +0000";
layers = (
{
layerId = "36D117B3-9CBE-4AED-BB8C-253BFD0905A8";
name = Light;
paths = (
{
closed = 1;
nodes = (
"790 0 LINE",
"790 66 LINE",
"616 66 LINE",
"716 114 OFFCURVE",
"781 218 OFFCURVE",
"781 350 CURVE SMOOTH",
"781 569 OFFCURVE",
"623 714 OFFCURVE",
"416 714 CURVE SMOOTH",
"208 714 OFFCURVE",
"50 569 OFFCURVE",
"50 350 CURVE SMOOTH",
"50 137 OFFCURVE",
"210 0 OFFCURVE",
"435 0 CURVE SMOOTH"
);
},
{
closed = 1;
nodes = (
"252 72 OFFCURVE",
"129 170 OFFCURVE",
"129 350 CURVE SMOOTH",
"129 529 OFFCURVE",
"256 642 OFFCURVE",
"416 642 CURVE SMOOTH",
"575 642 OFFCURVE",
"702 529 OFFCURVE",
"702 350 CURVE SMOOTH",
"702 171 OFFCURVE",
"577 72 OFFCURVE",
"416 72 CURVE SMOOTH"
);
}
);
width = 820;
}
);
leftKerningGroup = O;
note = Q;
rightKerningGroup = O;
unicode = 0051;
},
{
glyphname = R;
lastChange = "2015-11-30 00:00:46 +0000";
layers = (
{
layerId = "36D117B3-9CBE-4AED-BB8C-253BFD0905A8";
name = Light;
paths = (
{
closed = 1;
nodes = (
"148 0 LINE",
"148 297 LINE",
"315 297 LINE",
"479 0 LINE",
"560 0 LINE",
"394 301 LINE",
"500 320 OFFCURVE",
"562 396 OFFCURVE",
"562 497 CURVE SMOOTH",
"562 630 OFFCURVE",
"485 699 OFFCURVE",
"340 699 CURVE SMOOTH",
"70 699 LINE",
"70 0 LINE"
);
},
{
closed = 1;
nodes = (
"148 633 LINE",
"330 633 LINE SMOOTH",
"420 633 OFFCURVE",
"484 602 OFFCURVE",
"484 497 CURVE SMOOTH",
"484 407 OFFCURVE",
"423 363 OFFCURVE",
"330 363 CURVE SMOOTH",
"148 363 LINE"
);
}
);
width = 612;
}
);
note = R;
rightKerningGroup = R;
unicode = 0052;
},
{
glyphname = Racute;
lastChange = "2015-11-30 00:00:46 +0000";
layers = (
{
layerId = "36D117B3-9CBE-4AED-BB8C-253BFD0905A8";
name = Light;
paths = (
{
closed = 1;
nodes = (
"148 0 LINE",
"148 297 LINE",
"315 297 LINE",
"479 0 LINE",
"560 0 LINE",
"394 301 LINE",
"500 320 OFFCURVE",
"562 396 OFFCURVE",
"562 497 CURVE SMOOTH",
"562 630 OFFCURVE",
"485 699 OFFCURVE",
"340 699 CURVE SMOOTH",
"70 699 LINE",
"70 0 LINE"
);
},
{
closed = 1;
nodes = (
"148 633 LINE",
"330 633 LINE SMOOTH",
"420 633 OFFCURVE",
"484 602 OFFCURVE",
"484 497 CURVE SMOOTH",
"484 407 OFFCURVE",
"423 363 OFFCURVE",
"330 363 CURVE SMOOTH",
"148 363 LINE"
);
},
{
closed = 1;
nodes = (
"304 742 LINE",
"384 912 LINE",
"303 912 LINE",
"235 742 LINE"
);
}
);
width = 612;
}
);
note = Racute;
rightKerningGroup = R;
unicode = 0154;
},
{
glyphname = Rcaron;
lastChange = "2015-11-30 00:00:47 +0000";
layers = (
{
layerId = "36D117B3-9CBE-4AED-BB8C-253BFD0905A8";
name = Light;
paths = (
{
closed = 1;
nodes = (
"148 0 LINE",
"148 297 LINE",
"315 297 LINE",
"479 0 LINE",
"560 0 LINE",
"394 301 LINE",
"500 320 OFFCURVE",
"562 396 OFFCURVE",
"562 497 CURVE SMOOTH",
"562 630 OFFCURVE",
"485 699 OFFCURVE",
"340 699 CURVE SMOOTH",
"70 699 LINE",
"70 0 LINE"
);
},
{
closed = 1;
nodes = (
"148 633 LINE",
"330 633 LINE SMOOTH",
"420 633 OFFCURVE",
"484 602 OFFCURVE",
"484 497 CURVE SMOOTH",
"484 407 OFFCURVE",
"423 363 OFFCURVE",
"330 363 CURVE SMOOTH",
"148 363 LINE"
);
},
{
closed = 1;
nodes = (
"318 742 LINE",
"455 903 LINE",
"377 903 LINE",
"285 789 LINE",
"193 903 LINE",
"114 903 LINE",
"251 742 LINE"
);
}
);
width = 612;
}
);
note = Rcaron;
rightKerningGroup = R;
unicode = 0158;
},
{
glyphname = Rcommaaccent;
lastChange = "2015-11-30 00:00:47 +0000";
layers = (
{
layerId = "36D117B3-9CBE-4AED-BB8C-253BFD0905A8";
name = Light;
paths = (
{
closed = 1;
nodes = (
"148 0 LINE",
"148 297 LINE",
"315 297 LINE",
"479 0 LINE",
"560 0 LINE",
"394 301 LINE",
"500 320 OFFCURVE",
"562 396 OFFCURVE",
"562 497 CURVE SMOOTH",
"562 630 OFFCURVE",
"485 699 OFFCURVE",
"340 699 CURVE SMOOTH",
"70 699 LINE",
"70 0 LINE"
);
},
{
closed = 1;
nodes = (
"244 -260 LINE",
"335 -63 LINE",
"254 -63 LINE",
"174 -260 LINE"
);
},
{
closed = 1;
nodes = (
"148 633 LINE",
"330 633 LINE SMOOTH",
"420 633 OFFCURVE",
"484 602 OFFCURVE",
"484 497 CURVE SMOOTH",
"484 407 OFFCURVE",
"423 363 OFFCURVE",
"330 363 CURVE SMOOTH",
"148 363 LINE"
);
}
);
width = 612;
}
);
note = Rcommaaccent;
rightKerningGroup = R;
unicode = 0156;
},
{
glyphname = Rdotbelow;
lastChange = "2015-11-30 00:00:46 +0000";
layers = (
{
layerId = "36D117B3-9CBE-4AED-BB8C-253BFD0905A8";
name = Light;
paths = (
{
closed = 1;
nodes = (
"148 0 LINE",
"148 297 LINE",
"315 297 LINE",
"479 0 LINE",
"560 0 LINE",
"394 301 LINE",
"500 320 OFFCURVE",
"562 396 OFFCURVE",
"562 497 CURVE SMOOTH",
"562 630 OFFCURVE",
"485 699 OFFCURVE",
"340 699 CURVE SMOOTH",
"70 699 LINE",
"70 0 LINE"
);
},
{
closed = 1;
nodes = (
"323 -152 OFFCURVE",
"346 -130 OFFCURVE",
"346 -103 CURVE SMOOTH",
"346 -76 OFFCURVE",
"323 -54 OFFCURVE",
"297 -54 CURVE SMOOTH",
"270 -54 OFFCURVE",
"247 -76 OFFCURVE",
"247 -103 CURVE SMOOTH",
"247 -130 OFFCURVE",
"270 -152 OFFCURVE",
"297 -152 CURVE SMOOTH"
);
},
{
closed = 1;
nodes = (
"148 633 LINE",
"330 633 LINE SMOOTH",
"420 633 OFFCURVE",
"484 602 OFFCURVE",
"484 497 CURVE SMOOTH",
"484 407 OFFCURVE",
"423 363 OFFCURVE",
"330 363 CURVE SMOOTH",
"148 363 LINE"
);
}
);
width = 612;
}
);
note = Rdotbelow;
rightKerningGroup = R;
unicode = 1E5A;
},
{
glyphname = Rdotbelowmacron;
lastChange = "2015-11-30 00:00:47 +0000";
layers = (
{
layerId = "36D117B3-9CBE-4AED-BB8C-253BFD0905A8";
name = Light;
paths = (
{
closed = 1;
nodes = (
"148 0 LINE",
"148 297 LINE",
"315 297 LINE",
"479 0 LINE",
"560 0 LINE",
"394 301 LINE",
"500 320 OFFCURVE",
"562 396 OFFCURVE",
"562 497 CURVE SMOOTH",
"562 630 OFFCURVE",
"485 699 OFFCURVE",
"340 699 CURVE SMOOTH",
"70 699 LINE",
"70 0 LINE"
);
},
{
closed = 1;
nodes = (
"301 -152 OFFCURVE",
"324 -130 OFFCURVE",
"324 -103 CURVE SMOOTH",
"324 -76 OFFCURVE",
"301 -54 OFFCURVE",
"275 -54 CURVE SMOOTH",
"248 -54 OFFCURVE",
"225 -76 OFFCURVE",
"225 -103 CURVE SMOOTH",
"225 -130 OFFCURVE",
"248 -152 OFFCURVE",
"275 -152 CURVE SMOOTH"
);
},
{
closed = 1;
nodes = (
"148 633 LINE",
"330 633 LINE SMOOTH",
"420 633 OFFCURVE",
"484 602 OFFCURVE",
"484 497 CURVE SMOOTH",
"484 407 OFFCURVE",
"423 363 OFFCURVE",
"330 363 CURVE SMOOTH",
"148 363 LINE"
);
},
{
closed = 1;
nodes = (
"426 787 LINE",
"426 841 LINE",
"125 841 LINE",
"125 787 LINE"
);
}
);
width = 612;
}
);
note = Rdotbelowmacron;
rightKerningGroup = R;
unicode = 1E5C;
},
{
glyphname = Rlinebelow;
lastChange = "2015-11-30 00:00:46 +0000";
layers = (
{
layerId = "36D117B3-9CBE-4AED-BB8C-253BFD0905A8";
name = Light;
paths = (
{
closed = 1;
nodes = (
"148 0 LINE",
"148 297 LINE",
"315 297 LINE",
"479 0 LINE",
"560 0 LINE",
"394 301 LINE",
"500 320 OFFCURVE",
"562 396 OFFCURVE",
"562 497 CURVE SMOOTH",
"562 630 OFFCURVE",
"485 699 OFFCURVE",
"340 699 CURVE SMOOTH",
"70 699 LINE",
"70 0 LINE"
);
},
{
closed = 1;
nodes = (
"440 -131 LINE",
"440 -74 LINE",
"135 -74 LINE",
"135 -131 LINE"
);
},
{
closed = 1;
nodes = (
"148 633 LINE",
"330 633 LINE SMOOTH",
"420 633 OFFCURVE",
"484 602 OFFCURVE",
"484 497 CURVE SMOOTH",
"484 407 OFFCURVE",
"423 363 OFFCURVE",
"330 363 CURVE SMOOTH",
"148 363 LINE"
);
}
);
width = 612;
}
);
note = Rlinebelow;
rightKerningGroup = R;
unicode = 1E5E;
},
{
glyphname = S;
lastChange = "2015-11-30 00:00:42 +0000";
layers = (
{
layerId = "36D117B3-9CBE-4AED-BB8C-253BFD0905A8";
name = Light;
paths = (
{
closed = 1;
nodes = (
"422 -15 OFFCURVE",
"505 54 OFFCURVE",
"505 171 CURVE SMOOTH",
"505 293 OFFCURVE",
"433 333 OFFCURVE",
"306 382 CURVE SMOOTH",
"184 429 OFFCURVE",
"135 463 OFFCURVE",
"135 534 CURVE SMOOTH",
"135 602 OFFCURVE",
"188 644 OFFCURVE",
"297 644 CURVE SMOOTH",
"361 644 OFFCURVE",
"416 632 OFFCURVE",
"473 607 CURVE",
"473 678 LINE",
"416 703 OFFCURVE",
"360 714 OFFCURVE",
"286 714 CURVE SMOOTH",
"149 714 OFFCURVE",
"57 642 OFFCURVE",
"57 534 CURVE SMOOTH",
"57 435 OFFCURVE",
"116 378 OFFCURVE",
"245 326 CURVE SMOOTH",
"376 273 OFFCURVE",
"427 255 OFFCURVE",
"427 171 CURVE SMOOTH",
"427 94 OFFCURVE",
"374 55 OFFCURVE",
"252 55 CURVE SMOOTH",
"184 55 OFFCURVE",
"114 68 OFFCURVE",
"50 96 CURVE",
"50 22 LINE",
"98 -1 OFFCURVE",
"179 -15 OFFCURVE",
"256 -15 CURVE SMOOTH"
);
}
);
width = 555;
}
);
leftKerningGroup = S;
note = S;
rightKerningGroup = S;
unicode = 0053;
},
{
glyphname = Sacute;
lastChange = "2015-11-30 00:00:47 +0000";
layers = (
{
layerId = "36D117B3-9CBE-4AED-BB8C-253BFD0905A8";
name = Light;
paths = (
{
closed = 1;
nodes = (
"422 -15 OFFCURVE",
"505 54 OFFCURVE",
"505 171 CURVE SMOOTH",
"505 293 OFFCURVE",
"433 333 OFFCURVE",
"306 382 CURVE SMOOTH",
"184 429 OFFCURVE",
"135 463 OFFCURVE",
"135 534 CURVE SMOOTH",
"135 602 OFFCURVE",
"188 644 OFFCURVE",
"297 644 CURVE SMOOTH",
"361 644 OFFCURVE",
"416 632 OFFCURVE",
"473 607 CURVE",
"473 678 LINE",
"416 703 OFFCURVE",
"360 714 OFFCURVE",
"286 714 CURVE SMOOTH",
"149 714 OFFCURVE",
"57 642 OFFCURVE",
"57 534 CURVE SMOOTH",
"57 435 OFFCURVE",
"116 378 OFFCURVE",
"245 326 CURVE SMOOTH",
"376 273 OFFCURVE",
"427 255 OFFCURVE",
"427 171 CURVE SMOOTH",
"427 94 OFFCURVE",
"374 55 OFFCURVE",
"252 55 CURVE SMOOTH",
"184 55 OFFCURVE",
"114 68 OFFCURVE",
"50 96 CURVE",
"50 22 LINE",
"98 -1 OFFCURVE",
"179 -15 OFFCURVE",
"256 -15 CURVE SMOOTH"
);
},
{
closed = 1;
nodes = (
"311 742 LINE",
"391 912 LINE",
"310 912 LINE",
"242 742 LINE"
);
}
);
width = 555;
}
);
leftKerningGroup = S;
note = Sacute;
rightKerningGroup = S;
unicode = 015A;
},
{
glyphname = Scaron;
lastChange = "2015-11-30 00:00:47 +0000";
layers = (
{
layerId = "36D117B3-9CBE-4AED-BB8C-253BFD0905A8";
name = Light;
paths = (
{
closed = 1;
nodes = (
"422 -15 OFFCURVE",
"505 54 OFFCURVE",
"505 171 CURVE SMOOTH",
"505 293 OFFCURVE",
"433 333 OFFCURVE",
"306 382 CURVE SMOOTH",
"184 429 OFFCURVE",
"135 463 OFFCURVE",
"135 534 CURVE SMOOTH",
"135 602 OFFCURVE",
"188 644 OFFCURVE",
"297 644 CURVE SMOOTH",
"361 644 OFFCURVE",
"416 632 OFFCURVE",
"473 607 CURVE",
"473 678 LINE",
"416 703 OFFCURVE",
"360 714 OFFCURVE",
"286 714 CURVE SMOOTH",
"149 714 OFFCURVE",
"57 642 OFFCURVE",
"57 534 CURVE SMOOTH",
"57 435 OFFCURVE",
"116 378 OFFCURVE",
"245 326 CURVE SMOOTH",
"376 273 OFFCURVE",
"427 255 OFFCURVE",
"427 171 CURVE SMOOTH",
"427 94 OFFCURVE",
"374 55 OFFCURVE",
"252 55 CURVE SMOOTH",
"184 55 OFFCURVE",
"114 68 OFFCURVE",
"50 96 CURVE",
"50 22 LINE",
"98 -1 OFFCURVE",
"179 -15 OFFCURVE",
"256 -15 CURVE SMOOTH"
);
},
{
closed = 1;
nodes = (
"330 742 LINE",
"467 903 LINE",
"389 903 LINE",
"297 789 LINE",
"205 903 LINE",
"126 903 LINE",
"263 742 LINE"
);
}
);
width = 555;
}
);
leftKerningGroup = S;
note = Scaron;
rightKerningGroup = S;
unicode = 0160;
},
{
glyphname = Scedilla;
lastChange = "2015-11-30 00:00:47 +0000";
layers = (
{
layerId = "36D117B3-9CBE-4AED-BB8C-253BFD0905A8";
name = Light;
paths = (
{
closed = 1;
nodes = (
"422 -15 OFFCURVE",
"505 54 OFFCURVE",
"505 171 CURVE SMOOTH",
"505 293 OFFCURVE",
"433 333 OFFCURVE",
"306 382 CURVE SMOOTH",
"184 429 OFFCURVE",
"135 463 OFFCURVE",
"135 534 CURVE SMOOTH",
"135 602 OFFCURVE",
"188 644 OFFCURVE",
"297 644 CURVE SMOOTH",
"361 644 OFFCURVE",
"416 632 OFFCURVE",
"473 607 CURVE",
"473 678 LINE",
"416 703 OFFCURVE",
"360 714 OFFCURVE",
"286 714 CURVE SMOOTH",
"149 714 OFFCURVE",
"57 642 OFFCURVE",
"57 534 CURVE SMOOTH",
"57 435 OFFCURVE",
"116 378 OFFCURVE",
"245 326 CURVE SMOOTH",
"376 273 OFFCURVE",
"427 255 OFFCURVE",
"427 171 CURVE SMOOTH",
"427 94 OFFCURVE",
"374 55 OFFCURVE",
"252 55 CURVE SMOOTH",
"184 55 OFFCURVE",
"114 68 OFFCURVE",
"50 96 CURVE",
"50 22 LINE",
"98 -1 OFFCURVE",
"179 -15 OFFCURVE",
"256 -15 CURVE SMOOTH"
);
},
{
closed = 1;
nodes = (
"330 -248 OFFCURVE",
"376 -206 OFFCURVE",
"376 -152 CURVE SMOOTH",
"376 -101 OFFCURVE",
"347 -68 OFFCURVE",
"283 -60 CURVE",
"307 0 LINE",
"236 0 LINE",
"201 -93 LINE",
"278 -93 OFFCURVE",
"304 -113 OFFCURVE",
"304 -150 CURVE SMOOTH",
"304 -186 OFFCURVE",
"279 -200 OFFCURVE",
"236 -200 CURVE SMOOTH",
"217 -200 OFFCURVE",
"192 -196 OFFCURVE",
"179 -190 CURVE",
"179 -238 LINE",
"194 -244 OFFCURVE",
"224 -248 OFFCURVE",
"252 -248 CURVE SMOOTH"
);
}
);
width = 555;
}
);
leftKerningGroup = S;
note = Scedilla;
rightKerningGroup = S;
unicode = 015E;
},
{
glyphname = Scircumflex;
lastChange = "2015-11-30 00:00:47 +0000";
layers = (
{
layerId = "36D117B3-9CBE-4AED-BB8C-253BFD0905A8";
name = Light;
paths = (
{
closed = 1;
nodes = (
"422 -15 OFFCURVE",
"505 54 OFFCURVE",
"505 171 CURVE SMOOTH",
"505 293 OFFCURVE",
"433 333 OFFCURVE",
"306 382 CURVE SMOOTH",
"184 429 OFFCURVE",
"135 463 OFFCURVE",
"135 534 CURVE SMOOTH",
"135 602 OFFCURVE",
"188 644 OFFCURVE",
"297 644 CURVE SMOOTH",
"361 644 OFFCURVE",
"416 632 OFFCURVE",
"473 607 CURVE",
"473 678 LINE",
"416 703 OFFCURVE",
"360 714 OFFCURVE",
"286 714 CURVE SMOOTH",
"149 714 OFFCURVE",
"57 642 OFFCURVE",
"57 534 CURVE SMOOTH",
"57 435 OFFCURVE",
"116 378 OFFCURVE",
"245 326 CURVE SMOOTH",
"376 273 OFFCURVE",
"427 255 OFFCURVE",
"427 171 CURVE SMOOTH",
"427 94 OFFCURVE",
"374 55 OFFCURVE",
"252 55 CURVE SMOOTH",
"184 55 OFFCURVE",
"114 68 OFFCURVE",
"50 96 CURVE",
"50 22 LINE",
"98 -1 OFFCURVE",
"179 -15 OFFCURVE",
"256 -15 CURVE SMOOTH"
);
},
{
closed = 1;
nodes = (
"196 742 LINE",
"288 856 LINE",
"380 742 LINE",
"458 742 LINE",
"321 903 LINE",
"254 903 LINE",
"117 742 LINE"
);
}
);
width = 555;
}
);
leftKerningGroup = S;
note = Scircumflex;
rightKerningGroup = S;
unicode = 015C;
},
{
glyphname = Scommaaccent;
lastChange = "2015-11-30 00:00:45 +0000";
layers = (
{
layerId = "36D117B3-9CBE-4AED-BB8C-253BFD0905A8";
name = Light;
paths = (
{
closed = 1;
nodes = (
"422 -15 OFFCURVE",
"505 54 OFFCURVE",
"505 171 CURVE SMOOTH",
"505 293 OFFCURVE",
"433 333 OFFCURVE",
"306 382 CURVE SMOOTH",
"184 429 OFFCURVE",
"135 463 OFFCURVE",
"135 534 CURVE SMOOTH",
"135 602 OFFCURVE",
"188 644 OFFCURVE",
"297 644 CURVE SMOOTH",
"361 644 OFFCURVE",
"416 632 OFFCURVE",
"473 607 CURVE",
"473 678 LINE",
"416 703 OFFCURVE",
"360 714 OFFCURVE",
"286 714 CURVE SMOOTH",
"149 714 OFFCURVE",
"57 642 OFFCURVE",
"57 534 CURVE SMOOTH",
"57 435 OFFCURVE",
"116 378 OFFCURVE",
"245 326 CURVE SMOOTH",
"376 273 OFFCURVE",
"427 255 OFFCURVE",
"427 171 CURVE SMOOTH",
"427 94 OFFCURVE",
"374 55 OFFCURVE",
"252 55 CURVE SMOOTH",
"184 55 OFFCURVE",
"114 68 OFFCURVE",
"50 96 CURVE",
"50 22 LINE",
"98 -1 OFFCURVE",
"179 -15 OFFCURVE",
"256 -15 CURVE SMOOTH"
);
},
{
closed = 1;
nodes = (
"229 -259 LINE",
"321 -63 LINE",
"240 -63 LINE",
"159 -259 LINE"
);
}
);
width = 555;
}
);
leftKerningGroup = S;
note = Scommaaccent;
rightKerningGroup = S;
unicode = 0218;
},
{
glyphname = Sdotaccent;
lastChange = "2015-11-30 00:00:46 +0000";
layers = (
{
layerId = "36D117B3-9CBE-4AED-BB8C-253BFD0905A8";
name = Light;
paths = (
{
closed = 1;
nodes = (
"422 -15 OFFCURVE",
"505 54 OFFCURVE",
"505 171 CURVE SMOOTH",
"505 293 OFFCURVE",
"433 333 OFFCURVE",
"306 382 CURVE SMOOTH",
"184 429 OFFCURVE",
"135 463 OFFCURVE",
"135 534 CURVE SMOOTH",
"135 602 OFFCURVE",
"188 644 OFFCURVE",
"297 644 CURVE SMOOTH",
"361 644 OFFCURVE",
"416 632 OFFCURVE",
"473 607 CURVE",
"473 678 LINE",
"416 703 OFFCURVE",
"360 714 OFFCURVE",
"286 714 CURVE SMOOTH",
"149 714 OFFCURVE",
"57 642 OFFCURVE",
"57 534 CURVE SMOOTH",
"57 435 OFFCURVE",
"116 378 OFFCURVE",
"245 326 CURVE SMOOTH",
"376 273 OFFCURVE",
"427 255 OFFCURVE",
"427 171 CURVE SMOOTH",
"427 94 OFFCURVE",
"374 55 OFFCURVE",
"252 55 CURVE SMOOTH",
"184 55 OFFCURVE",
"114 68 OFFCURVE",
"50 96 CURVE",
"50 22 LINE",
"98 -1 OFFCURVE",
"179 -15 OFFCURVE",
"256 -15 CURVE SMOOTH"
);
},
{
closed = 1;
nodes = (
"318 742 OFFCURVE",
"341 764 OFFCURVE",
"341 791 CURVE SMOOTH",
"341 818 OFFCURVE",
"318 840 OFFCURVE",
"292 840 CURVE SMOOTH",
"265 840 OFFCURVE",
"242 818 OFFCURVE",
"242 791 CURVE SMOOTH",
"242 764 OFFCURVE",
"265 742 OFFCURVE",
"292 742 CURVE SMOOTH"
);
}
);
width = 555;
}
);
leftKerningGroup = S;
note = Sdotaccent;
rightKerningGroup = S;
unicode = 1E60;
},
{
glyphname = Sdotbelow;
lastChange = "2015-11-30 00:00:47 +0000";
layers = (
{
layerId = "36D117B3-9CBE-4AED-BB8C-253BFD0905A8";
name = Light;
paths = (
{
closed = 1;
nodes = (
"422 -15 OFFCURVE",
"505 54 OFFCURVE",
"505 171 CURVE SMOOTH",
"505 293 OFFCURVE",
"433 333 OFFCURVE",
"306 382 CURVE SMOOTH",
"184 429 OFFCURVE",
"135 463 OFFCURVE",
"135 534 CURVE SMOOTH",
"135 602 OFFCURVE",
"188 644 OFFCURVE",
"297 644 CURVE SMOOTH",
"361 644 OFFCURVE",
"416 632 OFFCURVE",
"473 607 CURVE",
"473 678 LINE",
"416 703 OFFCURVE",
"360 714 OFFCURVE",
"286 714 CURVE SMOOTH",
"149 714 OFFCURVE",
"57 642 OFFCURVE",
"57 534 CURVE SMOOTH",
"57 435 OFFCURVE",
"116 378 OFFCURVE",
"245 326 CURVE SMOOTH",
"376 273 OFFCURVE",
"427 255 OFFCURVE",
"427 171 CURVE SMOOTH",
"427 94 OFFCURVE",
"374 55 OFFCURVE",
"252 55 CURVE SMOOTH",
"184 55 OFFCURVE",
"114 68 OFFCURVE",
"50 96 CURVE",
"50 22 LINE",
"98 -1 OFFCURVE",
"179 -15 OFFCURVE",
"256 -15 CURVE SMOOTH"
);
},
{
closed = 1;
nodes = (
"296 -152 OFFCURVE",
"319 -130 OFFCURVE",
"319 -103 CURVE SMOOTH",
"319 -76 OFFCURVE",
"296 -54 OFFCURVE",
"270 -54 CURVE SMOOTH",
"243 -54 OFFCURVE",
"220 -76 OFFCURVE",
"220 -103 CURVE SMOOTH",
"220 -130 OFFCURVE",
"243 -152 OFFCURVE",
"270 -152 CURVE SMOOTH"
);
}
);
width = 555;
}
);
leftKerningGroup = S;
note = Sdotbelow;
rightKerningGroup = S;
unicode = 1E62;
},
{
glyphname = Germandbls;
lastChange = "2015-11-30 00:00:42 +0000";
layers = (
{
layerId = "36D117B3-9CBE-4AED-BB8C-253BFD0905A8";
name = Light;
paths = (
{
closed = 1;
nodes = (
"492 -15 OFFCURVE",
"564 76 OFFCURVE",
"564 198 CURVE SMOOTH",
"564 316 OFFCURVE",
"497 380 OFFCURVE",
"366 389 CURVE",
"502 521 LINE",
"499 625 OFFCURVE",
"430 714 OFFCURVE",
"289 714 CURVE SMOOTH",
"154 714 OFFCURVE",
"65 641 OFFCURVE",
"65 480 CURVE SMOOTH",
"65 0 LINE",
"143 0 LINE",
"143 484 LINE SMOOTH",
"143 602 OFFCURVE",
"211 643 OFFCURVE",
"289 643 CURVE SMOOTH",
"365 643 OFFCURVE",
"413 598 OFFCURVE",
"419 532 CURVE",
"272 387 LINE",
"272 335 LINE",
"310 335 LINE SMOOTH",
"404 335 OFFCURVE",
"486 306 OFFCURVE",
"486 198 CURVE SMOOTH",
"486 104 OFFCURVE",
"438 55 OFFCURVE",
"331 55 CURVE SMOOTH",
"282 55 OFFCURVE",
"247 60 OFFCURVE",
"211 76 CURVE",
"211 5 LINE",
"245 -10 OFFCURVE",
"294 -15 OFFCURVE",
"345 -15 CURVE SMOOTH"
);
}
);
width = 614;
}
);
note = uni1E9E;
unicode = 1E9E;
},
{
glyphname = Schwa;
lastChange = "2015-11-30 00:00:45 +0000";
layers = (
{
layerId = "36D117B3-9CBE-4AED-BB8C-253BFD0905A8";
name = Light;
paths = (
{
closed = 1;
nodes = (
"645 -15 OFFCURVE",
"771 129 OFFCURVE",
"771 350 CURVE SMOOTH",
"771 581 OFFCURVE",
"626 714 OFFCURVE",
"375 714 CURVE SMOOTH",
"281 714 OFFCURVE",
"175 693 OFFCURVE",
"119 670 CURVE",
"119 600 LINE",
"182 625 OFFCURVE",
"276 643 OFFCURVE",
"366 643 CURVE SMOOTH",
"571 643 OFFCURVE",
"681 551 OFFCURVE",
"687 376 CURVE",
"50 376 LINE",
"50 331 LINE SMOOTH",
"50 136 OFFCURVE",
"170 -15 OFFCURVE",
"410 -15 CURVE SMOOTH"
);
},
{
closed = 1;
nodes = (
"214 55 OFFCURVE",
"130 164 OFFCURVE",
"127 315 CURVE",
"688 315 LINE",
"684 165 OFFCURVE",
"599 55 OFFCURVE",
"408 55 CURVE SMOOTH"
);
}
);
width = 821;
}
);
note = uni018F;
unicode = 018F;
},
{
glyphname = T;
lastChange = "2015-11-30 00:00:42 +0000";
layers = (
{
layerId = "36D117B3-9CBE-4AED-BB8C-253BFD0905A8";
name = Light;
paths = (
{
closed = 1;
nodes = (
"332 0 LINE",
"332 633 LINE",
"556 633 LINE",
"556 699 LINE",
"30 699 LINE",
"30 633 LINE",
"254 633 LINE",
"254 0 LINE"
);
}
);
width = 586;
}
);
leftKerningGroup = T;
note = T;
rightKerningGroup = T;
unicode = 0054;
},
{
glyphname = Tbar;
lastChange = "2015-11-30 00:00:46 +0000";
layers = (
{
layerId = "36D117B3-9CBE-4AED-BB8C-253BFD0905A8";
name = Light;
paths = (
{
closed = 1;
nodes = (
"332 0 LINE",
"332 633 LINE",
"556 633 LINE",
"556 699 LINE",
"30 699 LINE",
"30 633 LINE",
"254 633 LINE",
"254 0 LINE"
);
},
{
closed = 1;
nodes = (
"463 305 LINE",
"463 370 LINE",
"122 370 LINE",
"122 305 LINE"
);
}
);
width = 586;
}
);
leftKerningGroup = T;
note = Tbar;
rightKerningGroup = T;
unicode = 0166;
},
{
glyphname = Tcaron;
lastChange = "2015-11-30 00:00:45 +0000";
layers = (
{
layerId = "36D117B3-9CBE-4AED-BB8C-253BFD0905A8";
name = Light;
paths = (
{
closed = 1;
nodes = (
"332 0 LINE",
"332 633 LINE",
"556 633 LINE",
"556 699 LINE",
"30 699 LINE",
"30 633 LINE",
"254 633 LINE",
"254 0 LINE"
);
},
{
closed = 1;
nodes = (
"327 742 LINE",
"464 903 LINE",
"386 903 LINE",
"294 789 LINE",
"202 903 LINE",
"123 903 LINE",
"260 742 LINE"
);
}
);
width = 586;
}
);
leftKerningGroup = T;
note = Tcaron;
rightKerningGroup = T;
unicode = 0164;
},
{
glyphname = Tcedilla;
lastChange = "2015-11-30 00:00:46 +0000";
layers = (
{
layerId = "36D117B3-9CBE-4AED-BB8C-253BFD0905A8";
name = Light;
paths = (
{
closed = 1;
nodes = (
"332 0 LINE",
"332 633 LINE",
"556 633 LINE",
"556 699 LINE",
"30 699 LINE",
"30 633 LINE",
"254 633 LINE",
"254 0 LINE"
);
},
{
closed = 1;
nodes = (
"352 -248 OFFCURVE",
"398 -206 OFFCURVE",
"398 -152 CURVE SMOOTH",
"398 -101 OFFCURVE",
"369 -68 OFFCURVE",
"305 -60 CURVE",
"329 0 LINE",
"258 0 LINE",
"223 -93 LINE",
"300 -93 OFFCURVE",
"326 -113 OFFCURVE",
"326 -150 CURVE SMOOTH",
"326 -186 OFFCURVE",
"301 -200 OFFCURVE",
"258 -200 CURVE SMOOTH",
"239 -200 OFFCURVE",
"214 -196 OFFCURVE",
"201 -190 CURVE",
"201 -238 LINE",
"216 -244 OFFCURVE",
"246 -248 OFFCURVE",
"274 -248 CURVE SMOOTH"
);
}
);
width = 586;
}
);
leftKerningGroup = T;
note = Tcedilla;
rightKerningGroup = T;
unicode = 0162;
},
{
glyphname = Tcommaaccent;
lastChange = "2015-11-30 00:00:47 +0000";
layers = (
{
layerId = "36D117B3-9CBE-4AED-BB8C-253BFD0905A8";
name = Light;
paths = (
{
closed = 1;
nodes = (
"332 0 LINE",
"332 633 LINE",
"556 633 LINE",
"556 699 LINE",
"30 699 LINE",
"30 633 LINE",
"254 633 LINE",
"254 0 LINE"
);
},
{
closed = 1;
nodes = (
"241 -260 LINE",
"332 -63 LINE",
"251 -63 LINE",
"171 -260 LINE"
);
}
);
width = 586;
}
);
leftKerningGroup = T;
note = Tcommaaccent;
rightKerningGroup = T;
unicode = 021A;
},
{
glyphname = Tdotbelow;
lastChange = "2015-11-30 00:00:46 +0000";
layers = (
{
layerId = "36D117B3-9CBE-4AED-BB8C-253BFD0905A8";
name = Light;
paths = (
{
closed = 1;
nodes = (
"332 0 LINE",
"332 633 LINE",
"556 633 LINE",
"556 699 LINE",
"30 699 LINE",
"30 633 LINE",
"254 633 LINE",
"254 0 LINE"
);
},
{
closed = 1;
nodes = (
"320 -152 OFFCURVE",
"343 -130 OFFCURVE",
"343 -103 CURVE SMOOTH",
"343 -76 OFFCURVE",
"320 -54 OFFCURVE",
"294 -54 CURVE SMOOTH",
"267 -54 OFFCURVE",
"244 -76 OFFCURVE",
"244 -103 CURVE SMOOTH",
"244 -130 OFFCURVE",
"267 -152 OFFCURVE",
"294 -152 CURVE SMOOTH"
);
}
);
width = 586;
}
);
leftKerningGroup = T;
note = Tdotbelow;
rightKerningGroup = T;
unicode = 1E6C;
},
{
glyphname = Tlinebelow;
lastChange = "2015-11-30 00:00:47 +0000";
layers = (
{
layerId = "36D117B3-9CBE-4AED-BB8C-253BFD0905A8";
name = Light;
paths = (
{
closed = 1;
nodes = (
"332 0 LINE",
"332 633 LINE",
"556 633 LINE",
"556 699 LINE",
"30 699 LINE",
"30 633 LINE",
"254 633 LINE",
"254 0 LINE"
);
},
{
closed = 1;
nodes = (
"445 -131 LINE",
"445 -74 LINE",
"140 -74 LINE",
"140 -131 LINE"
);
}
);
width = 586;
}
);
leftKerningGroup = T;
note = Tlinebelow;
rightKerningGroup = T;
unicode = 1E6E;
},
{
glyphname = U;
lastChange = "2015-11-30 00:00:42 +0000";
layers = (
{
layerId = "36D117B3-9CBE-4AED-BB8C-253BFD0905A8";
name = Light;
paths = (
{
closed = 1;
nodes = (
"532 -15 OFFCURVE",
"623 88 OFFCURVE",
"623 250 CURVE SMOOTH",
"623 699 LINE",
"545 699 LINE",
"545 244 LINE SMOOTH",
"545 113 OFFCURVE",
"466 55 OFFCURVE",
"344 55 CURVE SMOOTH",
"222 55 OFFCURVE",
"143 113 OFFCURVE",
"143 244 CURVE SMOOTH",
"143 699 LINE",
"65 699 LINE",
"65 250 LINE SMOOTH",
"65 88 OFFCURVE",
"156 -15 OFFCURVE",
"344 -15 CURVE SMOOTH"
);
}
);
width = 688;
}
);
leftKerningGroup = U;
note = U;
rightKerningGroup = U;
unicode = 0055;
},
{
glyphname = Uacute;
lastChange = "2015-11-30 00:00:46 +0000";
layers = (
{
layerId = "36D117B3-9CBE-4AED-BB8C-253BFD0905A8";
name = Light;
paths = (
{
closed = 1;
nodes = (
"532 -15 OFFCURVE",
"623 88 OFFCURVE",
"623 250 CURVE SMOOTH",
"623 699 LINE",
"545 699 LINE",
"545 244 LINE SMOOTH",
"545 113 OFFCURVE",
"466 55 OFFCURVE",
"344 55 CURVE SMOOTH",
"222 55 OFFCURVE",
"143 113 OFFCURVE",
"143 244 CURVE SMOOTH",
"143 699 LINE",
"65 699 LINE",
"65 250 LINE SMOOTH",
"65 88 OFFCURVE",
"156 -15 OFFCURVE",
"344 -15 CURVE SMOOTH"
);
},
{
closed = 1;
nodes = (
"371 742 LINE",
"451 912 LINE",
"370 912 LINE",
"302 742 LINE"
);
}
);
width = 688;
}
);
leftKerningGroup = U;
note = Uacute;
rightKerningGroup = U;
unicode = 00DA;
},
{
glyphname = Ubreve;
lastChange = "2015-11-30 00:00:46 +0000";
layers = (
{
layerId = "36D117B3-9CBE-4AED-BB8C-253BFD0905A8";
name = Light;
paths = (
{
closed = 1;
nodes = (
"532 -15 OFFCURVE",
"623 88 OFFCURVE",
"623 250 CURVE SMOOTH",
"623 699 LINE",
"545 699 LINE",
"545 244 LINE SMOOTH",
"545 113 OFFCURVE",
"466 55 OFFCURVE",
"344 55 CURVE SMOOTH",
"222 55 OFFCURVE",
"143 113 OFFCURVE",
"143 244 CURVE SMOOTH",
"143 699 LINE",
"65 699 LINE",
"65 250 LINE SMOOTH",
"65 88 OFFCURVE",
"156 -15 OFFCURVE",
"344 -15 CURVE SMOOTH"
);
},
{
closed = 1;
nodes = (
"430 742 OFFCURVE",
"484 797 OFFCURVE",
"484 872 CURVE",
"425 872 LINE",
"425 826 OFFCURVE",
"395 796 OFFCURVE",
"345 796 CURVE SMOOTH",
"295 796 OFFCURVE",
"265 826 OFFCURVE",
"265 872 CURVE",
"205 872 LINE",
"205 797 OFFCURVE",
"259 742 OFFCURVE",
"345 742 CURVE SMOOTH"
);
}
);
width = 688;
}
);
leftKerningGroup = U;
note = Ubreve;
rightKerningGroup = U;
unicode = 016C;
},
{
glyphname = Ucaron;
lastChange = "2015-11-30 00:00:45 +0000";
layers = (
{
layerId = "36D117B3-9CBE-4AED-BB8C-253BFD0905A8";
name = Light;
paths = (
{
closed = 1;
nodes = (
"532 -15 OFFCURVE",
"623 88 OFFCURVE",
"623 250 CURVE SMOOTH",
"623 699 LINE",
"545 699 LINE",
"545 244 LINE SMOOTH",
"545 113 OFFCURVE",
"466 55 OFFCURVE",
"344 55 CURVE SMOOTH",
"222 55 OFFCURVE",
"143 113 OFFCURVE",
"143 244 CURVE SMOOTH",
"143 699 LINE",
"65 699 LINE",
"65 250 LINE SMOOTH",
"65 88 OFFCURVE",
"156 -15 OFFCURVE",
"344 -15 CURVE SMOOTH"
);
},
{
closed = 1;
nodes = (
"378 742 LINE",
"515 903 LINE",
"437 903 LINE",
"345 789 LINE",
"253 903 LINE",
"174 903 LINE",
"311 742 LINE"
);
}
);
width = 688;
}
);
leftKerningGroup = U;
note = Ucaron;
rightKerningGroup = U;
unicode = 01D3;
},
{
glyphname = Ucircumflex;
lastChange = "2015-11-30 00:00:47 +0000";
layers = (
{
layerId = "36D117B3-9CBE-4AED-BB8C-253BFD0905A8";
name = Light;
paths = (
{
closed = 1;
nodes = (
"532 -15 OFFCURVE",
"623 88 OFFCURVE",
"623 250 CURVE SMOOTH",
"623 699 LINE",
"545 699 LINE",
"545 244 LINE SMOOTH",
"545 113 OFFCURVE",
"466 55 OFFCURVE",
"344 55 CURVE SMOOTH",
"222 55 OFFCURVE",
"143 113 OFFCURVE",
"143 244 CURVE SMOOTH",
"143 699 LINE",
"65 699 LINE",
"65 250 LINE SMOOTH",
"65 88 OFFCURVE",
"156 -15 OFFCURVE",
"344 -15 CURVE SMOOTH"
);
},
{
closed = 1;
nodes = (
"253 742 LINE",
"345 856 LINE",
"437 742 LINE",
"515 742 LINE",
"378 903 LINE",
"311 903 LINE",
"174 742 LINE"
);
}
);
width = 688;
}
);
leftKerningGroup = U;
note = Ucircumflex;
rightKerningGroup = U;
unicode = 00DB;
},
{
glyphname = Udieresis;
lastChange = "2015-11-30 00:00:46 +0000";
layers = (
{
layerId = "36D117B3-9CBE-4AED-BB8C-253BFD0905A8";
name = Light;
paths = (
{
closed = 1;
nodes = (
"532 -15 OFFCURVE",
"623 88 OFFCURVE",
"623 250 CURVE SMOOTH",
"623 699 LINE",
"545 699 LINE",
"545 244 LINE SMOOTH",
"545 113 OFFCURVE",
"466 55 OFFCURVE",
"344 55 CURVE SMOOTH",
"222 55 OFFCURVE",
"143 113 OFFCURVE",
"143 244 CURVE SMOOTH",
"143 699 LINE",
"65 699 LINE",
"65 250 LINE SMOOTH",
"65 88 OFFCURVE",
"156 -15 OFFCURVE",
"344 -15 CURVE SMOOTH"
);
},
{
closed = 1;
nodes = (
"262 742 OFFCURVE",
"285 764 OFFCURVE",
"285 791 CURVE SMOOTH",
"285 818 OFFCURVE",
"262 840 OFFCURVE",
"236 840 CURVE SMOOTH",
"209 840 OFFCURVE",
"186 818 OFFCURVE",
"186 791 CURVE SMOOTH",
"186 764 OFFCURVE",
"209 742 OFFCURVE",
"236 742 CURVE SMOOTH"
);
},
{
closed = 1;
nodes = (
"479 742 OFFCURVE",
"502 764 OFFCURVE",
"502 791 CURVE SMOOTH",
"502 818 OFFCURVE",
"479 840 OFFCURVE",
"453 840 CURVE SMOOTH",
"426 840 OFFCURVE",
"403 818 OFFCURVE",
"403 791 CURVE SMOOTH",
"403 764 OFFCURVE",
"426 742 OFFCURVE",
"453 742 CURVE SMOOTH"
);
}
);
width = 688;
}
);
leftKerningGroup = U;
note = Udieresis;
rightKerningGroup = U;
unicode = 00DC;
},
{
glyphname = Udieresisacute;
lastChange = "2015-11-30 00:00:47 +0000";
layers = (
{
layerId = "36D117B3-9CBE-4AED-BB8C-253BFD0905A8";
name = Light;
paths = (
{
closed = 1;
nodes = (
"532 -15 OFFCURVE",
"623 88 OFFCURVE",
"623 250 CURVE SMOOTH",
"623 699 LINE",
"545 699 LINE",
"545 244 LINE SMOOTH",
"545 113 OFFCURVE",
"466 55 OFFCURVE",
"344 55 CURVE SMOOTH",
"222 55 OFFCURVE",
"143 113 OFFCURVE",
"143 244 CURVE SMOOTH",
"143 699 LINE",
"65 699 LINE",
"65 250 LINE SMOOTH",
"65 88 OFFCURVE",
"156 -15 OFFCURVE",
"344 -15 CURVE SMOOTH"
);
},
{
closed = 1;
nodes = (
"266 742 OFFCURVE",
"289 764 OFFCURVE",
"289 791 CURVE SMOOTH",
"289 818 OFFCURVE",
"266 840 OFFCURVE",
"240 840 CURVE SMOOTH",
"213 840 OFFCURVE",
"190 818 OFFCURVE",
"190 791 CURVE SMOOTH",
"190 764 OFFCURVE",
"213 742 OFFCURVE",
"240 742 CURVE SMOOTH"
);
},
{
closed = 1;
nodes = (
"483 742 OFFCURVE",
"506 764 OFFCURVE",
"506 791 CURVE SMOOTH",
"506 818 OFFCURVE",
"483 840 OFFCURVE",
"457 840 CURVE SMOOTH",
"430 840 OFFCURVE",
"407 818 OFFCURVE",
"407 791 CURVE SMOOTH",
"407 764 OFFCURVE",
"430 742 OFFCURVE",
"457 742 CURVE SMOOTH"
);
},
{
closed = 1;
nodes = (
"369 823 LINE",
"432 946 LINE",
"368 946 LINE",
"315 823 LINE"
);
}
);
width = 688;
}
);
leftKerningGroup = U;
note = Udieresisacute;
rightKerningGroup = U;
unicode = 01D7;
},
{
glyphname = Udieresiscaron;
lastChange = "2015-11-30 00:00:46 +0000";
layers = (
{
layerId = "36D117B3-9CBE-4AED-BB8C-253BFD0905A8";
name = Light;
paths = (
{
closed = 1;
nodes = (
"532 -15 OFFCURVE",
"623 88 OFFCURVE",
"623 250 CURVE SMOOTH",
"623 699 LINE",
"545 699 LINE",
"545 244 LINE SMOOTH",
"545 113 OFFCURVE",
"466 55 OFFCURVE",
"344 55 CURVE SMOOTH",
"222 55 OFFCURVE",
"143 113 OFFCURVE",
"143 244 CURVE SMOOTH",
"143 699 LINE",
"65 699 LINE",
"65 250 LINE SMOOTH",
"65 88 OFFCURVE",
"156 -15 OFFCURVE",
"344 -15 CURVE SMOOTH"
);
},
{
closed = 1;
nodes = (
"262 742 OFFCURVE",
"285 764 OFFCURVE",
"285 791 CURVE SMOOTH",
"285 818 OFFCURVE",
"262 840 OFFCURVE",
"235 840 CURVE SMOOTH",
"209 840 OFFCURVE",
"186 818 OFFCURVE",
"186 791 CURVE SMOOTH",
"186 764 OFFCURVE",
"209 742 OFFCURVE",
"235 742 CURVE SMOOTH"
);
},
{
closed = 1;
nodes = (
"374 819 LINE",
"494 941 LINE",
"425 941 LINE",
"345 857 LINE",
"265 941 LINE",
"195 941 LINE",
"316 819 LINE"
);
},
{
closed = 1;
nodes = (
"479 742 OFFCURVE",
"502 764 OFFCURVE",
"502 791 CURVE SMOOTH",
"502 818 OFFCURVE",
"479 840 OFFCURVE",
"452 840 CURVE SMOOTH",
"426 840 OFFCURVE",
"403 818 OFFCURVE",
"403 791 CURVE SMOOTH",
"403 764 OFFCURVE",
"426 742 OFFCURVE",
"452 742 CURVE SMOOTH"
);
}
);
width = 688;
}
);
leftKerningGroup = U;
note = Udieresiscaron;
rightKerningGroup = U;
unicode = 01D9;
},
{
glyphname = Udieresisgrave;
lastChange = "2015-11-30 00:00:47 +0000";
layers = (
{
layerId = "36D117B3-9CBE-4AED-BB8C-253BFD0905A8";
name = Light;
paths = (
{
closed = 1;
nodes = (
"532 -15 OFFCURVE",
"623 88 OFFCURVE",
"623 250 CURVE SMOOTH",
"623 699 LINE",
"545 699 LINE",
"545 244 LINE SMOOTH",
"545 113 OFFCURVE",
"466 55 OFFCURVE",
"344 55 CURVE SMOOTH",
"222 55 OFFCURVE",
"143 113 OFFCURVE",
"143 244 CURVE SMOOTH",
"143 699 LINE",
"65 699 LINE",
"65 250 LINE SMOOTH",
"65 88 OFFCURVE",
"156 -15 OFFCURVE",
"344 -15 CURVE SMOOTH"
);
},
{
closed = 1;
nodes = (
"264 742 OFFCURVE",
"287 764 OFFCURVE",
"287 791 CURVE SMOOTH",
"287 818 OFFCURVE",
"264 840 OFFCURVE",
"237 840 CURVE SMOOTH",
"211 840 OFFCURVE",
"188 818 OFFCURVE",
"188 791 CURVE SMOOTH",
"188 764 OFFCURVE",
"211 742 OFFCURVE",
"237 742 CURVE SMOOTH"
);
},
{
closed = 1;
nodes = (
"379 823 LINE",
"326 946 LINE",
"262 946 LINE",
"325 823 LINE"
);
},
{
closed = 1;
nodes = (
"481 742 OFFCURVE",
"504 764 OFFCURVE",
"504 791 CURVE SMOOTH",
"504 818 OFFCURVE",
"481 840 OFFCURVE",
"454 840 CURVE SMOOTH",
"428 840 OFFCURVE",
"405 818 OFFCURVE",
"405 791 CURVE SMOOTH",
"405 764 OFFCURVE",
"428 742 OFFCURVE",
"454 742 CURVE SMOOTH"
);
}
);
width = 688;
}
);
leftKerningGroup = U;
note = Udieresisgrave;
rightKerningGroup = U;
unicode = 01DB;
},
{
glyphname = Udieresismacron;
lastChange = "2015-11-30 00:00:47 +0000";
layers = (
{
layerId = "36D117B3-9CBE-4AED-BB8C-253BFD0905A8";
name = Light;
paths = (
{
closed = 1;
nodes = (
"532 -15 OFFCURVE",
"623 88 OFFCURVE",
"623 250 CURVE SMOOTH",
"623 699 LINE",
"545 699 LINE",
"545 244 LINE SMOOTH",
"545 113 OFFCURVE",
"466 55 OFFCURVE",
"344 55 CURVE SMOOTH",
"222 55 OFFCURVE",
"143 113 OFFCURVE",
"143 244 CURVE SMOOTH",
"143 699 LINE",
"65 699 LINE",
"65 250 LINE SMOOTH",
"65 88 OFFCURVE",
"156 -15 OFFCURVE",
"344 -15 CURVE SMOOTH"
);
},
{
closed = 1;
nodes = (
"261 742 OFFCURVE",
"284 764 OFFCURVE",
"284 791 CURVE SMOOTH",
"284 818 OFFCURVE",
"261 840 OFFCURVE",
"235 840 CURVE SMOOTH",
"208 840 OFFCURVE",
"185 818 OFFCURVE",
"185 791 CURVE SMOOTH",
"185 764 OFFCURVE",
"208 742 OFFCURVE",
"235 742 CURVE SMOOTH"
);
},
{
closed = 1;
nodes = (
"478 742 OFFCURVE",
"501 764 OFFCURVE",
"501 791 CURVE SMOOTH",
"501 818 OFFCURVE",
"478 840 OFFCURVE",
"452 840 CURVE SMOOTH",
"425 840 OFFCURVE",
"402 818 OFFCURVE",
"402 791 CURVE SMOOTH",
"402 764 OFFCURVE",
"425 742 OFFCURVE",
"452 742 CURVE SMOOTH"
);
},
{
closed = 1;
nodes = (
"494 913 LINE",
"494 967 LINE",
"193 967 LINE",
"193 913 LINE"
);
}
);
width = 688;
}
);
leftKerningGroup = U;
note = Udieresismacron;
rightKerningGroup = U;
unicode = 01D5;
},
{
glyphname = Udotbelow;
lastChange = "2015-11-30 00:00:47 +0000";
layers = (
{
layerId = "36D117B3-9CBE-4AED-BB8C-253BFD0905A8";
name = Light;
paths = (
{
closed = 1;
nodes = (
"532 -15 OFFCURVE",
"623 88 OFFCURVE",
"623 250 CURVE SMOOTH",
"623 699 LINE",
"545 699 LINE",
"545 244 LINE SMOOTH",
"545 113 OFFCURVE",
"466 55 OFFCURVE",
"344 55 CURVE SMOOTH",
"222 55 OFFCURVE",
"143 113 OFFCURVE",
"143 244 CURVE SMOOTH",
"143 699 LINE",
"65 699 LINE",
"65 250 LINE SMOOTH",
"65 88 OFFCURVE",
"156 -15 OFFCURVE",
"344 -15 CURVE SMOOTH"
);
},
{
closed = 1;
nodes = (
"371 -152 OFFCURVE",
"394 -130 OFFCURVE",
"394 -103 CURVE SMOOTH",
"394 -76 OFFCURVE",
"371 -54 OFFCURVE",
"345 -54 CURVE SMOOTH",
"318 -54 OFFCURVE",
"295 -76 OFFCURVE",
"295 -103 CURVE SMOOTH",
"295 -130 OFFCURVE",
"318 -152 OFFCURVE",
"345 -152 CURVE SMOOTH"
);
}
);
width = 688;
}
);
leftKerningGroup = U;
note = Udotbelow;
rightKerningGroup = U;
unicode = 1EE4;
},
{
glyphname = Ugrave;
lastChange = "2015-11-30 00:00:46 +0000";
layers = (
{
layerId = "36D117B3-9CBE-4AED-BB8C-253BFD0905A8";
name = Light;
paths = (
{
closed = 1;
nodes = (
"532 -15 OFFCURVE",
"623 88 OFFCURVE",
"623 250 CURVE SMOOTH",
"623 699 LINE",
"545 699 LINE",
"545 244 LINE SMOOTH",
"545 113 OFFCURVE",
"466 55 OFFCURVE",
"344 55 CURVE SMOOTH",
"222 55 OFFCURVE",
"143 113 OFFCURVE",
"143 244 CURVE SMOOTH",
"143 699 LINE",
"65 699 LINE",
"65 250 LINE SMOOTH",
"65 88 OFFCURVE",
"156 -15 OFFCURVE",
"344 -15 CURVE SMOOTH"
);
},
{
closed = 1;
nodes = (
"385 742 LINE",
"317 912 LINE",
"236 912 LINE",
"316 742 LINE"
);
}
);
width = 688;
}
);
leftKerningGroup = U;
note = Ugrave;
rightKerningGroup = U;
unicode = 00D9;
},
{
glyphname = Uhookabove;
lastChange = "2015-11-30 00:00:47 +0000";
layers = (
{
layerId = "36D117B3-9CBE-4AED-BB8C-253BFD0905A8";
name = Light;
paths = (
{
closed = 1;
nodes = (
"532 -15 OFFCURVE",
"623 88 OFFCURVE",
"623 250 CURVE SMOOTH",
"623 699 LINE",
"545 699 LINE",
"545 244 LINE SMOOTH",
"545 113 OFFCURVE",
"466 55 OFFCURVE",
"344 55 CURVE SMOOTH",
"222 55 OFFCURVE",
"143 113 OFFCURVE",
"143 244 CURVE SMOOTH",
"143 699 LINE",
"65 699 LINE",
"65 250 LINE SMOOTH",
"65 88 OFFCURVE",
"156 -15 OFFCURVE",
"344 -15 CURVE SMOOTH"
);
},
{
closed = 1;
nodes = (
"368 742 LINE",
"368 777 LINE",
"430 783 OFFCURVE",
"462 823 OFFCURVE",
"462 871 CURVE SMOOTH",
"462 926 OFFCURVE",
"422 964 OFFCURVE",
"340 964 CURVE SMOOTH",
"312 964 OFFCURVE",
"281 959 OFFCURVE",
"264 953 CURVE",
"264 908 LINE",
"276 914 OFFCURVE",
"307 918 OFFCURVE",
"324 918 CURVE SMOOTH",
"371 918 OFFCURVE",
"394 903 OFFCURVE",
"394 868 CURVE SMOOTH",
"394 827 OFFCURVE",
"365 810 OFFCURVE",
"301 810 CURVE",
"301 742 LINE"
);
}
);
width = 688;
}
);
leftKerningGroup = U;
note = Uhookabove;
rightKerningGroup = U;
unicode = 1EE6;
},
{
glyphname = Uhorn;
lastChange = "2015-11-30 00:00:42 +0000";
layers = (
{
layerId = "36D117B3-9CBE-4AED-BB8C-253BFD0905A8";
name = Light;
paths = (
{
closed = 1;
nodes = (
"532 -15 OFFCURVE",
"623 88 OFFCURVE",
"623 250 CURVE SMOOTH",
"623 561 LINE",
"729 561 OFFCURVE",
"789 628 OFFCURVE",
"789 707 CURVE SMOOTH",
"789 747 LINE",
"718 747 LINE",
"718 711 LINE SMOOTH",
"718 654 OFFCURVE",
"689 623 OFFCURVE",
"623 623 CURVE",
"623 699 LINE",
"545 699 LINE",
"545 244 LINE SMOOTH",
"545 113 OFFCURVE",
"466 55 OFFCURVE",
"344 55 CURVE SMOOTH",
"222 55 OFFCURVE",
"143 113 OFFCURVE",
"143 244 CURVE SMOOTH",
"143 699 LINE",
"65 699 LINE",
"65 250 LINE SMOOTH",
"65 88 OFFCURVE",
"156 -15 OFFCURVE",
"344 -15 CURVE SMOOTH"
);
}
);
width = 814;
}
);
leftKerningGroup = U;
note = Uhorn;
rightKerningGroup = U;
unicode = 01AF;
},
{
glyphname = Uhornacute;
lastChange = "2015-11-30 00:00:46 +0000";
layers = (
{
layerId = "36D117B3-9CBE-4AED-BB8C-253BFD0905A8";
name = Light;
paths = (
{
closed = 1;
nodes = (
"532 -15 OFFCURVE",
"623 88 OFFCURVE",
"623 250 CURVE SMOOTH",
"623 561 LINE",
"729 561 OFFCURVE",
"789 628 OFFCURVE",
"789 707 CURVE SMOOTH",
"789 747 LINE",
"718 747 LINE",
"718 711 LINE SMOOTH",
"718 654 OFFCURVE",
"689 623 OFFCURVE",
"623 623 CURVE",
"623 699 LINE",
"545 699 LINE",
"545 244 LINE SMOOTH",
"545 113 OFFCURVE",
"466 55 OFFCURVE",
"344 55 CURVE SMOOTH",
"222 55 OFFCURVE",
"143 113 OFFCURVE",
"143 244 CURVE SMOOTH",
"143 699 LINE",
"65 699 LINE",
"65 250 LINE SMOOTH",
"65 88 OFFCURVE",
"156 -15 OFFCURVE",
"344 -15 CURVE SMOOTH"
);
},
{
closed = 1;
nodes = (
"378 742 LINE",
"458 912 LINE",
"377 912 LINE",
"309 742 LINE"
);
}
);
width = 814;
}
);
leftKerningGroup = U;
note = Uhornacute;
rightKerningGroup = U;
unicode = 1EE8;
},
{
glyphname = Uhorndotbelow;
lastChange = "2015-11-30 00:00:47 +0000";
layers = (
{
layerId = "36D117B3-9CBE-4AED-BB8C-253BFD0905A8";
name = Light;
paths = (
{
closed = 1;
nodes = (
"532 -15 OFFCURVE",
"623 88 OFFCURVE",
"623 250 CURVE SMOOTH",
"623 561 LINE",
"729 561 OFFCURVE",
"789 628 OFFCURVE",
"789 707 CURVE SMOOTH",
"789 747 LINE",
"718 747 LINE",
"718 711 LINE SMOOTH",
"718 654 OFFCURVE",
"689 623 OFFCURVE",
"623 623 CURVE",
"623 699 LINE",
"545 699 LINE",
"545 244 LINE SMOOTH",
"545 113 OFFCURVE",
"466 55 OFFCURVE",
"344 55 CURVE SMOOTH",
"222 55 OFFCURVE",
"143 113 OFFCURVE",
"143 244 CURVE SMOOTH",
"143 699 LINE",
"65 699 LINE",
"65 250 LINE SMOOTH",
"65 88 OFFCURVE",
"156 -15 OFFCURVE",
"344 -15 CURVE SMOOTH"
);
},
{
closed = 1;
nodes = (
"368 -152 OFFCURVE",
"391 -130 OFFCURVE",
"391 -103 CURVE SMOOTH",
"391 -76 OFFCURVE",
"368 -54 OFFCURVE",
"342 -54 CURVE SMOOTH",
"315 -54 OFFCURVE",
"292 -76 OFFCURVE",
"292 -103 CURVE SMOOTH",
"292 -130 OFFCURVE",
"315 -152 OFFCURVE",
"342 -152 CURVE SMOOTH"
);
}
);
width = 814;
}
);
leftKerningGroup = U;
note = Uhorndotbelow;
rightKerningGroup = U;
unicode = 1EF0;
},
{
glyphname = Uhorngrave;
lastChange = "2015-11-30 00:00:45 +0000";
layers = (
{
layerId = "36D117B3-9CBE-4AED-BB8C-253BFD0905A8";
name = Light;
paths = (
{
closed = 1;
nodes = (
"532 -15 OFFCURVE",
"623 88 OFFCURVE",
"623 250 CURVE SMOOTH",
"623 561 LINE",
"729 561 OFFCURVE",
"789 628 OFFCURVE",
"789 707 CURVE SMOOTH",
"789 747 LINE",
"718 747 LINE",
"718 711 LINE SMOOTH",
"718 654 OFFCURVE",
"689 623 OFFCURVE",
"623 623 CURVE",
"623 699 LINE",
"545 699 LINE",
"545 244 LINE SMOOTH",
"545 113 OFFCURVE",
"466 55 OFFCURVE",
"344 55 CURVE SMOOTH",
"222 55 OFFCURVE",
"143 113 OFFCURVE",
"143 244 CURVE SMOOTH",
"143 699 LINE",
"65 699 LINE",
"65 250 LINE SMOOTH",
"65 88 OFFCURVE",
"156 -15 OFFCURVE",
"344 -15 CURVE SMOOTH"
);
},
{
closed = 1;
nodes = (
"392 742 LINE",
"324 912 LINE",
"243 912 LINE",
"323 742 LINE"
);
}
);
width = 814;
}
);
leftKerningGroup = U;
note = Uhorngrave;
rightKerningGroup = U;
unicode = 1EEA;
},
{
glyphname = Uhornhookabove;
lastChange = "2015-11-30 00:00:46 +0000";
layers = (
{
layerId = "36D117B3-9CBE-4AED-BB8C-253BFD0905A8";
name = Light;
paths = (
{
closed = 1;
nodes = (
"532 -15 OFFCURVE",
"623 88 OFFCURVE",
"623 250 CURVE SMOOTH",
"623 561 LINE",
"729 561 OFFCURVE",
"789 628 OFFCURVE",
"789 707 CURVE SMOOTH",
"789 747 LINE",
"718 747 LINE",
"718 711 LINE SMOOTH",
"718 654 OFFCURVE",
"689 623 OFFCURVE",
"623 623 CURVE",
"623 699 LINE",
"545 699 LINE",
"545 244 LINE SMOOTH",
"545 113 OFFCURVE",
"466 55 OFFCURVE",
"344 55 CURVE SMOOTH",
"222 55 OFFCURVE",
"143 113 OFFCURVE",
"143 244 CURVE SMOOTH",
"143 699 LINE",
"65 699 LINE",
"65 250 LINE SMOOTH",
"65 88 OFFCURVE",
"156 -15 OFFCURVE",
"344 -15 CURVE SMOOTH"
);
},
{
closed = 1;
nodes = (
"370 742 LINE",
"370 777 LINE",
"432 783 OFFCURVE",
"464 823 OFFCURVE",
"464 871 CURVE SMOOTH",
"464 926 OFFCURVE",
"424 964 OFFCURVE",
"342 964 CURVE SMOOTH",
"314 964 OFFCURVE",
"283 959 OFFCURVE",
"266 953 CURVE",
"266 908 LINE",
"278 914 OFFCURVE",
"309 918 OFFCURVE",
"326 918 CURVE SMOOTH",
"373 918 OFFCURVE",
"396 903 OFFCURVE",
"396 868 CURVE SMOOTH",
"396 827 OFFCURVE",
"367 810 OFFCURVE",
"303 810 CURVE",
"303 742 LINE"
);
}
);
width = 814;
}
);
leftKerningGroup = U;
note = Uhornhookabove;
rightKerningGroup = U;
unicode = 1EEC;
},
{
glyphname = Uhorntilde;
lastChange = "2015-11-30 00:00:47 +0000";
layers = (
{
layerId = "36D117B3-9CBE-4AED-BB8C-253BFD0905A8";
name = Light;
paths = (
{
closed = 1;
nodes = (
"532 -15 OFFCURVE",
"623 88 OFFCURVE",
"623 250 CURVE SMOOTH",
"623 561 LINE",
"729 561 OFFCURVE",
"789 628 OFFCURVE",
"789 707 CURVE SMOOTH",
"789 747 LINE",
"718 747 LINE",
"718 711 LINE SMOOTH",
"718 654 OFFCURVE",
"689 623 OFFCURVE",
"623 623 CURVE",
"623 699 LINE",
"545 699 LINE",
"545 244 LINE SMOOTH",
"545 113 OFFCURVE",
"466 55 OFFCURVE",
"344 55 CURVE SMOOTH",
"222 55 OFFCURVE",
"143 113 OFFCURVE",
"143 244 CURVE SMOOTH",
"143 699 LINE",
"65 699 LINE",
"65 250 LINE SMOOTH",
"65 88 OFFCURVE",
"156 -15 OFFCURVE",
"344 -15 CURVE SMOOTH"
);
},
{
closed = 1;
nodes = (
"192 783 OFFCURVE",
"223 795 OFFCURVE",
"258 795 CURVE SMOOTH",
"322 795 OFFCURVE",
"366 745 OFFCURVE",
"439 745 CURVE SMOOTH",
"479 745 OFFCURVE",
"513 755 OFFCURVE",
"534 787 CURVE",
"534 856 LINE",
"507 816 OFFCURVE",
"475 804 OFFCURVE",
"439 804 CURVE SMOOTH",
"374 804 OFFCURVE",
"326 854 OFFCURVE",
"258 854 CURVE SMOOTH",
"219 854 OFFCURVE",
"184 843 OFFCURVE",
"163 811 CURVE",
"163 742 LINE"
);
}
);
width = 814;
}
);
leftKerningGroup = U;
note = Uhorntilde;
rightKerningGroup = U;
unicode = 1EEE;
},
{
glyphname = Uhungarumlaut;
lastChange = "2015-11-30 00:00:46 +0000";
layers = (
{
layerId = "36D117B3-9CBE-4AED-BB8C-253BFD0905A8";
name = Light;
paths = (
{
closed = 1;
nodes = (
"532 -15 OFFCURVE",
"623 88 OFFCURVE",
"623 250 CURVE SMOOTH",
"623 699 LINE",
"545 699 LINE",
"545 244 LINE SMOOTH",
"545 113 OFFCURVE",
"466 55 OFFCURVE",
"344 55 CURVE SMOOTH",
"222 55 OFFCURVE",
"143 113 OFFCURVE",
"143 244 CURVE SMOOTH",
"143 699 LINE",
"65 699 LINE",
"65 250 LINE SMOOTH",
"65 88 OFFCURVE",
"156 -15 OFFCURVE",
"344 -15 CURVE SMOOTH"
);
},
{
closed = 1;
nodes = (
"270 742 LINE",
"350 912 LINE",
"269 912 LINE",
"201 742 LINE"
);
},
{
closed = 1;
nodes = (
"460 742 LINE",
"540 912 LINE",
"459 912 LINE",
"391 742 LINE"
);
}
);
width = 688;
}
);
leftKerningGroup = U;
note = Uhungarumlaut;
rightKerningGroup = U;
unicode = 0170;
},
{
glyphname = Umacron;
lastChange = "2015-11-30 00:00:46 +0000";
layers = (
{
layerId = "36D117B3-9CBE-4AED-BB8C-253BFD0905A8";
name = Light;
paths = (
{
closed = 1;
nodes = (
"532 -15 OFFCURVE",
"623 88 OFFCURVE",
"623 250 CURVE SMOOTH",
"623 699 LINE",
"545 699 LINE",
"545 244 LINE SMOOTH",
"545 113 OFFCURVE",
"466 55 OFFCURVE",
"344 55 CURVE SMOOTH",
"222 55 OFFCURVE",
"143 113 OFFCURVE",
"143 244 CURVE SMOOTH",
"143 699 LINE",
"65 699 LINE",
"65 250 LINE SMOOTH",
"65 88 OFFCURVE",
"156 -15 OFFCURVE",
"344 -15 CURVE SMOOTH"
);
},
{
closed = 1;
nodes = (
"494 762 LINE",
"494 816 LINE",
"193 816 LINE",
"193 762 LINE"
);
}
);
width = 688;
}
);
leftKerningGroup = U;
note = Umacron;
rightKerningGroup = U;
unicode = 016A;
},
{
glyphname = Uogonek;
lastChange = "2015-11-30 00:00:47 +0000";
layers = (
{
layerId = "36D117B3-9CBE-4AED-BB8C-253BFD0905A8";
name = Light;
paths = (
{
closed = 1;
nodes = (
"532 -15 OFFCURVE",
"623 88 OFFCURVE",
"623 250 CURVE SMOOTH",
"623 699 LINE",
"545 699 LINE",
"545 244 LINE SMOOTH",
"545 113 OFFCURVE",
"466 55 OFFCURVE",
"344 55 CURVE SMOOTH",
"222 55 OFFCURVE",
"143 113 OFFCURVE",
"143 244 CURVE SMOOTH",
"143 699 LINE",
"65 699 LINE",
"65 250 LINE SMOOTH",
"65 88 OFFCURVE",
"156 -15 OFFCURVE",
"344 -15 CURVE SMOOTH"
);
},
{
closed = 1;
nodes = (
"376 -210 OFFCURVE",
"400 -206 OFFCURVE",
"416 -199 CURVE",
"416 -149 LINE",
"403 -155 OFFCURVE",
"387 -159 OFFCURVE",
"369 -159 CURVE SMOOTH",
"336 -159 OFFCURVE",
"321 -145 OFFCURVE",
"321 -112 CURVE SMOOTH",
"321 -69 OFFCURVE",
"350 -34 OFFCURVE",
"400 0 CURVE",
"328 0 LINE",
"286 -27 OFFCURVE",
"253 -71 OFFCURVE",
"253 -123 CURVE SMOOTH",
"253 -182 OFFCURVE",
"297 -210 OFFCURVE",
"350 -210 CURVE SMOOTH"
);
}
);
width = 688;
}
);
leftKerningGroup = U;
note = Uogonek;
rightKerningGroup = U;
unicode = 0172;
},
{
glyphname = Uring;
lastChange = "2015-11-30 00:00:46 +0000";
layers = (
{
layerId = "36D117B3-9CBE-4AED-BB8C-253BFD0905A8";
name = Light;
paths = (
{
closed = 1;
nodes = (
"532 -15 OFFCURVE",
"623 88 OFFCURVE",
"623 250 CURVE SMOOTH",
"623 699 LINE",
"545 699 LINE",
"545 244 LINE SMOOTH",
"545 113 OFFCURVE",
"466 55 OFFCURVE",
"344 55 CURVE SMOOTH",
"222 55 OFFCURVE",
"143 113 OFFCURVE",
"143 244 CURVE SMOOTH",
"143 699 LINE",
"65 699 LINE",
"65 250 LINE SMOOTH",
"65 88 OFFCURVE",
"156 -15 OFFCURVE",
"344 -15 CURVE SMOOTH"
);
},
{
closed = 1;
nodes = (
"403 742 OFFCURVE",
"452 790 OFFCURVE",
"452 850 CURVE SMOOTH",
"452 909 OFFCURVE",
"403 958 OFFCURVE",
"344 958 CURVE SMOOTH",
"284 958 OFFCURVE",
"236 909 OFFCURVE",
"236 850 CURVE SMOOTH",
"236 790 OFFCURVE",
"284 742 OFFCURVE",
"344 742 CURVE SMOOTH"
);
},
{
closed = 1;
nodes = (
"313 792 OFFCURVE",
"287 819 OFFCURVE",
"287 850 CURVE SMOOTH",
"287 881 OFFCURVE",
"312 907 OFFCURVE",
"344 907 CURVE SMOOTH",
"375 907 OFFCURVE",
"401 881 OFFCURVE",
"401 850 CURVE SMOOTH",
"401 819 OFFCURVE",
"375 792 OFFCURVE",
"344 792 CURVE SMOOTH"
);
}
);
width = 688;
}
);
leftKerningGroup = U;
note = Uring;
rightKerningGroup = U;
unicode = 016E;
},
{
glyphname = Utilde;
lastChange = "2015-11-30 00:00:45 +0000";
layers = (
{
layerId = "36D117B3-9CBE-4AED-BB8C-253BFD0905A8";
name = Light;
paths = (
{
closed = 1;
nodes = (
"532 -15 OFFCURVE",
"623 88 OFFCURVE",
"623 250 CURVE SMOOTH",
"623 699 LINE",
"545 699 LINE",
"545 244 LINE SMOOTH",
"545 113 OFFCURVE",
"466 55 OFFCURVE",
"344 55 CURVE SMOOTH",
"222 55 OFFCURVE",
"143 113 OFFCURVE",
"143 244 CURVE SMOOTH",
"143 699 LINE",
"65 699 LINE",
"65 250 LINE SMOOTH",
"65 88 OFFCURVE",
"156 -15 OFFCURVE",
"344 -15 CURVE SMOOTH"
);
},
{
closed = 1;
nodes = (
"188 783 OFFCURVE",
"219 795 OFFCURVE",
"254 795 CURVE SMOOTH",
"318 795 OFFCURVE",
"362 745 OFFCURVE",
"435 745 CURVE SMOOTH",
"475 745 OFFCURVE",
"509 755 OFFCURVE",
"530 787 CURVE",
"530 856 LINE",
"503 816 OFFCURVE",
"471 804 OFFCURVE",
"435 804 CURVE SMOOTH",
"370 804 OFFCURVE",
"322 854 OFFCURVE",
"254 854 CURVE SMOOTH",
"215 854 OFFCURVE",
"180 843 OFFCURVE",
"159 811 CURVE",
"159 742 LINE"
);
}
);
width = 688;
}
);
leftKerningGroup = U;
note = Utilde;
rightKerningGroup = U;
unicode = 0168;
},
{
glyphname = V;
lastChange = "2015-11-30 00:00:42 +0000";
layers = (
{
layerId = "36D117B3-9CBE-4AED-BB8C-253BFD0905A8";
name = Light;
paths = (
{
closed = 1;
nodes = (
"402 0 LINE",
"681 699 LINE",
"599 699 LINE",
"365 108 LINE",
"132 699 LINE",
"50 699 LINE",
"329 0 LINE"
);
}
);
width = 731;
}
);
note = V;
unicode = 0056;
},
{
glyphname = W;
lastChange = "2015-11-30 00:00:42 +0000";
layers = (
{
layerId = "36D117B3-9CBE-4AED-BB8C-253BFD0905A8";
name = Light;
paths = (
{
closed = 1;
nodes = (
"335 0 LINE",
"504 571 LINE",
"674 0 LINE",
"750 0 LINE",
"959 699 LINE",
"878 699 LINE",
"706 131 LINE",
"537 699 LINE",
"475 699 LINE",
"303 132 LINE",
"131 699 LINE",
"50 699 LINE",
"259 0 LINE"
);
}
);
width = 1009;
}
);
leftKerningGroup = W;
note = W;
rightKerningGroup = W;
unicode = 0057;
},
{
glyphname = Wacute;
lastChange = "2015-11-30 00:00:47 +0000";
layers = (
{
layerId = "36D117B3-9CBE-4AED-BB8C-253BFD0905A8";
name = Light;
paths = (
{
closed = 1;
nodes = (
"335 0 LINE",
"504 571 LINE",
"674 0 LINE",
"750 0 LINE",
"959 699 LINE",
"878 699 LINE",
"706 131 LINE",
"537 699 LINE",
"475 699 LINE",
"303 132 LINE",
"131 699 LINE",
"50 699 LINE",
"259 0 LINE"
);
},
{
closed = 1;
nodes = (
"545 742 LINE",
"625 912 LINE",
"544 912 LINE",
"476 742 LINE"
);
}
);
width = 1009;
}
);
leftKerningGroup = W;
note = Wacute;
rightKerningGroup = W;
unicode = 1E82;
},
{
glyphname = Wcircumflex;
lastChange = "2015-11-30 00:00:47 +0000";
layers = (
{
layerId = "36D117B3-9CBE-4AED-BB8C-253BFD0905A8";
name = Light;
paths = (
{
closed = 1;
nodes = (
"335 0 LINE",
"504 571 LINE",
"674 0 LINE",
"750 0 LINE",
"959 699 LINE",
"878 699 LINE",
"706 131 LINE",
"537 699 LINE",
"475 699 LINE",
"303 132 LINE",
"131 699 LINE",
"50 699 LINE",
"259 0 LINE"
);
},
{
closed = 1;
nodes = (
"413 742 LINE",
"505 856 LINE",
"597 742 LINE",
"675 742 LINE",
"538 903 LINE",
"471 903 LINE",
"334 742 LINE"
);
}
);
width = 1009;
}
);
leftKerningGroup = W;
note = Wcircumflex;
rightKerningGroup = W;
unicode = 0174;
},
{
glyphname = Wdieresis;
lastChange = "2015-11-30 00:00:47 +0000";
layers = (
{
layerId = "36D117B3-9CBE-4AED-BB8C-253BFD0905A8";
name = Light;
paths = (
{
closed = 1;
nodes = (
"335 0 LINE",
"504 571 LINE",
"674 0 LINE",
"750 0 LINE",
"959 699 LINE",
"878 699 LINE",
"706 131 LINE",
"537 699 LINE",
"475 699 LINE",
"303 132 LINE",
"131 699 LINE",
"50 699 LINE",
"259 0 LINE"
);
},
{
closed = 1;
nodes = (
"422 742 OFFCURVE",
"445 764 OFFCURVE",
"445 791 CURVE SMOOTH",
"445 818 OFFCURVE",
"422 840 OFFCURVE",
"396 840 CURVE SMOOTH",
"369 840 OFFCURVE",
"346 818 OFFCURVE",
"346 791 CURVE SMOOTH",
"346 764 OFFCURVE",
"369 742 OFFCURVE",
"396 742 CURVE SMOOTH"
);
},
{
closed = 1;
nodes = (
"639 742 OFFCURVE",
"662 764 OFFCURVE",
"662 791 CURVE SMOOTH",
"662 818 OFFCURVE",
"639 840 OFFCURVE",
"613 840 CURVE SMOOTH",
"586 840 OFFCURVE",
"563 818 OFFCURVE",
"563 791 CURVE SMOOTH",
"563 764 OFFCURVE",
"586 742 OFFCURVE",
"613 742 CURVE SMOOTH"
);
}
);
width = 1009;
}
);
leftKerningGroup = W;
note = Wdieresis;
rightKerningGroup = W;
unicode = 1E84;
},
{
glyphname = Wgrave;
lastChange = "2015-11-30 00:00:46 +0000";
layers = (
{
layerId = "36D117B3-9CBE-4AED-BB8C-253BFD0905A8";
name = Light;
paths = (
{
closed = 1;
nodes = (
"335 0 LINE",
"504 571 LINE",
"674 0 LINE",
"750 0 LINE",
"959 699 LINE",
"878 699 LINE",
"706 131 LINE",
"537 699 LINE",
"475 699 LINE",
"303 132 LINE",
"131 699 LINE",
"50 699 LINE",
"259 0 LINE"
);
},
{
closed = 1;
nodes = (
"533 742 LINE",
"465 912 LINE",
"384 912 LINE",
"464 742 LINE"
);
}
);
width = 1009;
}
);
leftKerningGroup = W;
note = Wgrave;
rightKerningGroup = W;
unicode = 1E80;
},
{
glyphname = X;
lastChange = "2015-11-30 00:00:42 +0000";
layers = (
{
layerId = "36D117B3-9CBE-4AED-BB8C-253BFD0905A8";
name = Light;
paths = (
{
closed = 1;
nodes = (
"141 0 LINE",
"361 298 LINE",
"582 0 LINE",
"671 0 LINE",
"406 358 LINE",
"658 699 LINE",
"569 699 LINE",
"361 418 LINE",
"154 699 LINE",
"65 699 LINE",
"317 358 LINE",
"52 0 LINE"
);
}
);
width = 723;
}
);
note = X;
unicode = 0058;
},
{
glyphname = Y;
lastChange = "2015-11-30 00:00:42 +0000";
layers = (
{
layerId = "36D117B3-9CBE-4AED-BB8C-253BFD0905A8";
name = Light;
paths = (
{
closed = 1;
nodes = (
"382 0 LINE",
"382 265 LINE",
"636 699 LINE",
"554 699 LINE",
"343 336 LINE",
"133 699 LINE",
"50 699 LINE",
"304 265 LINE",
"304 0 LINE"
);
}
);
width = 686;
}
);
leftKerningGroup = Y;
note = Y;
rightKerningGroup = Y;
unicode = 0059;
},
{
glyphname = Yacute;
lastChange = "2015-11-30 00:00:45 +0000";
layers = (
{
layerId = "36D117B3-9CBE-4AED-BB8C-253BFD0905A8";
name = Light;
paths = (
{
closed = 1;
nodes = (
"382 0 LINE",
"382 265 LINE",
"636 699 LINE",
"554 699 LINE",
"343 336 LINE",
"133 699 LINE",
"50 699 LINE",
"304 265 LINE",
"304 0 LINE"
);
},
{
closed = 1;
nodes = (
"371 742 LINE",
"451 912 LINE",
"370 912 LINE",
"302 742 LINE"
);
}
);
width = 686;
}
);
leftKerningGroup = Y;
note = Yacute;
rightKerningGroup = Y;
unicode = 00DD;
},
{
glyphname = Ycircumflex;
lastChange = "2015-11-30 00:00:46 +0000";
layers = (
{
layerId = "36D117B3-9CBE-4AED-BB8C-253BFD0905A8";
name = Light;
paths = (
{
closed = 1;
nodes = (
"382 0 LINE",
"382 265 LINE",
"636 699 LINE",
"554 699 LINE",
"343 336 LINE",
"133 699 LINE",
"50 699 LINE",
"304 265 LINE",
"304 0 LINE"
);
},
{
closed = 1;
nodes = (
"252 742 LINE",
"344 856 LINE",
"436 742 LINE",
"514 742 LINE",
"377 903 LINE",
"310 903 LINE",
"173 742 LINE"
);
}
);
width = 686;
}
);
leftKerningGroup = Y;
note = Ycircumflex;
rightKerningGroup = Y;
unicode = 0176;
},
{
glyphname = Ydieresis;
lastChange = "2015-11-30 00:00:47 +0000";
layers = (
{
layerId = "36D117B3-9CBE-4AED-BB8C-253BFD0905A8";
name = Light;
paths = (
{
closed = 1;
nodes = (
"382 0 LINE",
"382 265 LINE",
"636 699 LINE",
"554 699 LINE",
"343 336 LINE",
"133 699 LINE",
"50 699 LINE",
"304 265 LINE",
"304 0 LINE"
);
},
{
closed = 1;
nodes = (
"261 742 OFFCURVE",
"284 764 OFFCURVE",
"284 791 CURVE SMOOTH",
"284 818 OFFCURVE",
"261 840 OFFCURVE",
"235 840 CURVE SMOOTH",
"208 840 OFFCURVE",
"185 818 OFFCURVE",
"185 791 CURVE SMOOTH",
"185 764 OFFCURVE",
"208 742 OFFCURVE",
"235 742 CURVE SMOOTH"
);
},
{
closed = 1;
nodes = (
"478 742 OFFCURVE",
"501 764 OFFCURVE",
"501 791 CURVE SMOOTH",
"501 818 OFFCURVE",
"478 840 OFFCURVE",
"452 840 CURVE SMOOTH",
"425 840 OFFCURVE",
"402 818 OFFCURVE",
"402 791 CURVE SMOOTH",
"402 764 OFFCURVE",
"425 742 OFFCURVE",
"452 742 CURVE SMOOTH"
);
}
);
width = 686;
}
);
leftKerningGroup = Y;
note = Ydieresis;
rightKerningGroup = Y;
unicode = 0178;
},
{
glyphname = Ydotaccent;
lastChange = "2015-11-30 00:00:47 +0000";
layers = (
{
layerId = "36D117B3-9CBE-4AED-BB8C-253BFD0905A8";
name = Light;
paths = (
{
closed = 1;
nodes = (
"382 0 LINE",
"382 265 LINE",
"636 699 LINE",
"554 699 LINE",
"343 336 LINE",
"133 699 LINE",
"50 699 LINE",
"304 265 LINE",
"304 0 LINE"
);
},
{
closed = 1;
nodes = (
"370 742 OFFCURVE",
"393 764 OFFCURVE",
"393 791 CURVE SMOOTH",
"393 818 OFFCURVE",
"370 840 OFFCURVE",
"344 840 CURVE SMOOTH",
"317 840 OFFCURVE",
"294 818 OFFCURVE",
"294 791 CURVE SMOOTH",
"294 764 OFFCURVE",
"317 742 OFFCURVE",
"344 742 CURVE SMOOTH"
);
}
);
width = 686;
}
);
leftKerningGroup = Y;
note = Ydotaccent;
rightKerningGroup = Y;
unicode = 1E8E;
},
{
glyphname = Ydotbelow;
lastChange = "2015-11-30 00:00:47 +0000";
layers = (
{
layerId = "36D117B3-9CBE-4AED-BB8C-253BFD0905A8";
name = Light;
paths = (
{
closed = 1;
nodes = (
"382 0 LINE",
"382 265 LINE",
"636 699 LINE",
"554 699 LINE",
"343 336 LINE",
"133 699 LINE",
"50 699 LINE",
"304 265 LINE",
"304 0 LINE"
);
},
{
closed = 1;
nodes = (
"370 -152 OFFCURVE",
"393 -130 OFFCURVE",
"393 -103 CURVE SMOOTH",
"393 -76 OFFCURVE",
"370 -54 OFFCURVE",
"344 -54 CURVE SMOOTH",
"317 -54 OFFCURVE",
"294 -76 OFFCURVE",
"294 -103 CURVE SMOOTH",
"294 -130 OFFCURVE",
"317 -152 OFFCURVE",
"344 -152 CURVE SMOOTH"
);
}
);
width = 686;
}
);
leftKerningGroup = Y;
note = Ydotbelow;
rightKerningGroup = Y;
unicode = 1EF4;
},
{
glyphname = Ygrave;
lastChange = "2015-11-30 00:00:47 +0000";
layers = (
{
layerId = "36D117B3-9CBE-4AED-BB8C-253BFD0905A8";
name = Light;
paths = (
{
closed = 1;
nodes = (
"382 0 LINE",
"382 265 LINE",
"636 699 LINE",
"554 699 LINE",
"343 336 LINE",
"133 699 LINE",
"50 699 LINE",
"304 265 LINE",
"304 0 LINE"
);
},
{
closed = 1;
nodes = (
"375 742 LINE",
"307 912 LINE",
"226 912 LINE",
"306 742 LINE"
);
}
);
width = 686;
}
);
leftKerningGroup = Y;
note = Ygrave;
rightKerningGroup = Y;
unicode = 1EF2;
},
{
glyphname = Yhookabove;
lastChange = "2015-11-30 00:00:46 +0000";
layers = (
{
layerId = "36D117B3-9CBE-4AED-BB8C-253BFD0905A8";
name = Light;
paths = (
{
closed = 1;
nodes = (
"382 0 LINE",
"382 265 LINE",
"636 699 LINE",
"554 699 LINE",
"343 336 LINE",
"133 699 LINE",
"50 699 LINE",
"304 265 LINE",
"304 0 LINE"
);
},
{
closed = 1;
nodes = (
"369 742 LINE",
"369 777 LINE",
"431 783 OFFCURVE",
"463 823 OFFCURVE",
"463 871 CURVE SMOOTH",
"463 926 OFFCURVE",
"423 964 OFFCURVE",
"341 964 CURVE SMOOTH",
"313 964 OFFCURVE",
"282 959 OFFCURVE",
"265 953 CURVE",
"265 908 LINE",
"277 914 OFFCURVE",
"308 918 OFFCURVE",
"325 918 CURVE SMOOTH",
"372 918 OFFCURVE",
"395 903 OFFCURVE",
"395 868 CURVE SMOOTH",
"395 827 OFFCURVE",
"366 810 OFFCURVE",
"302 810 CURVE",
"302 742 LINE"
);
}
);
width = 686;
}
);
leftKerningGroup = Y;
note = Yhookabove;
rightKerningGroup = Y;
unicode = 1EF6;
},
{
glyphname = Ytilde;
lastChange = "2015-11-30 00:00:45 +0000";
layers = (
{
layerId = "36D117B3-9CBE-4AED-BB8C-253BFD0905A8";
name = Light;
paths = (
{
closed = 1;
nodes = (
"382 0 LINE",
"382 265 LINE",
"636 699 LINE",
"554 699 LINE",
"343 336 LINE",
"133 699 LINE",
"50 699 LINE",
"304 265 LINE",
"304 0 LINE"
);
},
{
closed = 1;
nodes = (
"187 783 OFFCURVE",
"218 795 OFFCURVE",
"253 795 CURVE SMOOTH",
"317 795 OFFCURVE",
"361 745 OFFCURVE",
"434 745 CURVE SMOOTH",
"474 745 OFFCURVE",
"508 755 OFFCURVE",
"529 787 CURVE",
"529 856 LINE",
"502 816 OFFCURVE",
"470 804 OFFCURVE",
"434 804 CURVE SMOOTH",
"369 804 OFFCURVE",
"321 854 OFFCURVE",
"253 854 CURVE SMOOTH",
"214 854 OFFCURVE",
"179 843 OFFCURVE",
"158 811 CURVE",
"158 742 LINE"
);
}
);
width = 686;
}
);
leftKerningGroup = Y;
note = Ytilde;
rightKerningGroup = Y;
unicode = 1EF8;
},
{
glyphname = Z;
lastChange = "2015-11-30 00:00:42 +0000";
layers = (
{
layerId = "36D117B3-9CBE-4AED-BB8C-253BFD0905A8";
name = Light;
paths = (
{
closed = 1;
nodes = (
"567 0 LINE",
"567 65 LINE",
"145 65 LINE",
"552 643 LINE",
"552 699 LINE",
"60 699 LINE",
"60 633 LINE",
"458 633 LINE",
"50 55 LINE",
"50 0 LINE"
);
}
);
width = 617;
}
);
leftKerningGroup = Z;
note = Z;
rightKerningGroup = Z;
unicode = 005A;
},
{
glyphname = Zacute;
lastChange = "2015-11-30 00:00:47 +0000";
layers = (
{
layerId = "36D117B3-9CBE-4AED-BB8C-253BFD0905A8";
name = Light;
paths = (
{
closed = 1;
nodes = (
"567 0 LINE",
"567 65 LINE",
"145 65 LINE",
"552 643 LINE",
"552 699 LINE",
"60 699 LINE",
"60 633 LINE",
"458 633 LINE",
"50 55 LINE",
"50 0 LINE"
);
},
{
closed = 1;
nodes = (
"319 742 LINE",
"399 912 LINE",
"318 912 LINE",
"250 742 LINE"
);
}
);
width = 617;
}
);
leftKerningGroup = Z;
note = Zacute;
rightKerningGroup = Z;
unicode = 0179;
},
{
glyphname = Zcaron;
lastChange = "2015-11-30 00:00:47 +0000";
layers = (
{
layerId = "36D117B3-9CBE-4AED-BB8C-253BFD0905A8";
name = Light;
paths = (
{
closed = 1;
nodes = (
"567 0 LINE",
"567 65 LINE",
"145 65 LINE",
"552 643 LINE",
"552 699 LINE",
"60 699 LINE",
"60 633 LINE",
"458 633 LINE",
"50 55 LINE",
"50 0 LINE"
);
},
{
closed = 1;
nodes = (
"343 742 LINE",
"480 903 LINE",
"402 903 LINE",
"310 789 LINE",
"218 903 LINE",
"139 903 LINE",
"276 742 LINE"
);
}
);
width = 617;
}
);
leftKerningGroup = Z;
note = Zcaron;
rightKerningGroup = Z;
unicode = 017D;
},
{
glyphname = Zdotaccent;
lastChange = "2015-11-30 00:00:47 +0000";
layers = (
{
layerId = "36D117B3-9CBE-4AED-BB8C-253BFD0905A8";
name = Light;
paths = (
{
closed = 1;
nodes = (
"567 0 LINE",
"567 65 LINE",
"145 65 LINE",
"552 643 LINE",
"552 699 LINE",
"60 699 LINE",
"60 633 LINE",
"458 633 LINE",
"50 55 LINE",
"50 0 LINE"
);
},
{
closed = 1;
nodes = (
"325 742 OFFCURVE",
"348 764 OFFCURVE",
"348 791 CURVE SMOOTH",
"348 818 OFFCURVE",
"325 840 OFFCURVE",
"299 840 CURVE SMOOTH",
"272 840 OFFCURVE",
"249 818 OFFCURVE",
"249 791 CURVE SMOOTH",
"249 764 OFFCURVE",
"272 742 OFFCURVE",
"299 742 CURVE SMOOTH"
);
}
);
width = 617;
}
);
leftKerningGroup = Z;
note = Zdotaccent;
rightKerningGroup = Z;
unicode = 017B;
},
{
glyphname = Zdotbelow;
lastChange = "2015-11-30 00:00:46 +0000";
layers = (
{
layerId = "36D117B3-9CBE-4AED-BB8C-253BFD0905A8";
name = Light;
paths = (
{
closed = 1;
nodes = (
"567 0 LINE",
"567 65 LINE",
"145 65 LINE",
"552 643 LINE",
"552 699 LINE",
"60 699 LINE",
"60 633 LINE",
"458 633 LINE",
"50 55 LINE",
"50 0 LINE"
);
},
{
closed = 1;
nodes = (
"344 -152 OFFCURVE",
"367 -130 OFFCURVE",
"367 -103 CURVE SMOOTH",
"367 -76 OFFCURVE",
"344 -54 OFFCURVE",
"318 -54 CURVE SMOOTH",
"291 -54 OFFCURVE",
"268 -76 OFFCURVE",
"268 -103 CURVE SMOOTH",
"268 -130 OFFCURVE",
"291 -152 OFFCURVE",
"318 -152 CURVE SMOOTH"
);
}
);
width = 617;
}
);
leftKerningGroup = Z;
note = Zdotbelow;
rightKerningGroup = Z;
unicode = 1E92;
},
{
glyphname = a;
lastChange = "2015-11-30 00:00:46 +0000";
layers = (
{
layerId = "36D117B3-9CBE-4AED-BB8C-253BFD0905A8";
name = Light;
paths = (
{
closed = 1;
nodes = (
"326 -15 OFFCURVE",
"385 13 OFFCURVE",
"425 62 CURVE",
"425 0 LINE",
"497 0 LINE",
"497 301 LINE SMOOTH",
"497 418 OFFCURVE",
"430 495 OFFCURVE",
"273 495 CURVE SMOOTH",
"217 495 OFFCURVE",
"149 483 OFFCURVE",
"109 466 CURVE",
"109 401 LINE",
"152 420 OFFCURVE",
"207 433 OFFCURVE",
"266 433 CURVE SMOOTH",
"374 433 OFFCURVE",
"420 390 OFFCURVE",
"420 305 CURVE SMOOTH",
"420 269 LINE",
"371 297 OFFCURVE",
"309 312 OFFCURVE",
"241 312 CURVE SMOOTH",
"117 312 OFFCURVE",
"50 253 OFFCURVE",
"50 148 CURVE SMOOTH",
"50 47 OFFCURVE",
"122 -15 OFFCURVE",
"238 -15 CURVE SMOOTH"
);
},
{
closed = 1;
nodes = (
"168 48 OFFCURVE",
"127 83 OFFCURVE",
"127 148 CURVE SMOOTH",
"127 216 OFFCURVE",
"164 251 OFFCURVE",
"256 251 CURVE SMOOTH",
"322 251 OFFCURVE",
"370 236 OFFCURVE",
"420 207 CURVE",
"420 130 LINE",
"391 78 OFFCURVE",
"329 48 OFFCURVE",
"257 48 CURVE SMOOTH"
);
}
);
width = 562;
}
);
leftKerningGroup = a;
note = a;
rightKerningGroup = a;
unicode = 0061;
},
{
glyphname = aacute;
lastChange = "2015-11-30 00:00:47 +0000";
layers = (
{
layerId = "36D117B3-9CBE-4AED-BB8C-253BFD0905A8";
name = Light;
paths = (
{
closed = 1;
nodes = (
"326 -15 OFFCURVE",
"385 13 OFFCURVE",
"425 62 CURVE",
"425 0 LINE",
"497 0 LINE",
"497 301 LINE SMOOTH",
"497 418 OFFCURVE",
"430 495 OFFCURVE",
"273 495 CURVE SMOOTH",
"217 495 OFFCURVE",
"149 483 OFFCURVE",
"109 466 CURVE",
"109 401 LINE",
"152 420 OFFCURVE",
"207 433 OFFCURVE",
"266 433 CURVE SMOOTH",
"374 433 OFFCURVE",
"420 390 OFFCURVE",
"420 305 CURVE SMOOTH",
"420 269 LINE",
"371 297 OFFCURVE",
"309 312 OFFCURVE",
"241 312 CURVE SMOOTH",
"117 312 OFFCURVE",
"50 253 OFFCURVE",
"50 148 CURVE SMOOTH",
"50 47 OFFCURVE",
"122 -15 OFFCURVE",
"238 -15 CURVE SMOOTH"
);
},
{
closed = 1;
nodes = (
"168 48 OFFCURVE",
"127 83 OFFCURVE",
"127 148 CURVE SMOOTH",
"127 216 OFFCURVE",
"164 251 OFFCURVE",
"256 251 CURVE SMOOTH",
"322 251 OFFCURVE",
"370 236 OFFCURVE",
"420 207 CURVE",
"420 130 LINE",
"391 78 OFFCURVE",
"329 48 OFFCURVE",
"257 48 CURVE SMOOTH"
);
},
{
closed = 1;
nodes = (
"322 535 LINE",
"402 705 LINE",
"321 705 LINE",
"253 535 LINE"
);
}
);
width = 562;
}
);
leftKerningGroup = a;
note = aacute;
rightKerningGroup = a;
unicode = 00E1;
},
{
glyphname = abreve;
lastChange = "2015-11-30 00:00:45 +0000";
layers = (
{
layerId = "36D117B3-9CBE-4AED-BB8C-253BFD0905A8";
name = Light;
paths = (
{
closed = 1;
nodes = (
"326 -15 OFFCURVE",
"385 13 OFFCURVE",
"425 62 CURVE",
"425 0 LINE",
"497 0 LINE",
"497 301 LINE SMOOTH",
"497 418 OFFCURVE",
"430 495 OFFCURVE",
"273 495 CURVE SMOOTH",
"217 495 OFFCURVE",
"149 483 OFFCURVE",
"109 466 CURVE",
"109 401 LINE",
"152 420 OFFCURVE",
"207 433 OFFCURVE",
"266 433 CURVE SMOOTH",
"374 433 OFFCURVE",
"420 390 OFFCURVE",
"420 305 CURVE SMOOTH",
"420 269 LINE",
"371 297 OFFCURVE",
"309 312 OFFCURVE",
"241 312 CURVE SMOOTH",
"117 312 OFFCURVE",
"50 253 OFFCURVE",
"50 148 CURVE SMOOTH",
"50 47 OFFCURVE",
"122 -15 OFFCURVE",
"238 -15 CURVE SMOOTH"
);
},
{
closed = 1;
nodes = (
"168 48 OFFCURVE",
"127 83 OFFCURVE",
"127 148 CURVE SMOOTH",
"127 216 OFFCURVE",
"164 251 OFFCURVE",
"256 251 CURVE SMOOTH",
"322 251 OFFCURVE",
"370 236 OFFCURVE",
"420 207 CURVE",
"420 130 LINE",
"391 78 OFFCURVE",
"329 48 OFFCURVE",
"257 48 CURVE SMOOTH"
);
},
{
closed = 1;
nodes = (
"388 535 OFFCURVE",
"442 590 OFFCURVE",
"442 665 CURVE",
"383 665 LINE",
"383 619 OFFCURVE",
"353 589 OFFCURVE",
"303 589 CURVE SMOOTH",
"253 589 OFFCURVE",
"223 619 OFFCURVE",
"223 665 CURVE",
"163 665 LINE",
"163 590 OFFCURVE",
"217 535 OFFCURVE",
"303 535 CURVE SMOOTH"
);
}
);
width = 562;
}
);
leftKerningGroup = a;
note = abreve;
rightKerningGroup = a;
unicode = 0103;
},
{
glyphname = abreveacute;
lastChange = "2015-11-30 00:00:46 +0000";
layers = (
{
layerId = "36D117B3-9CBE-4AED-BB8C-253BFD0905A8";
name = Light;
paths = (
{
closed = 1;
nodes = (
"326 -15 OFFCURVE",
"385 13 OFFCURVE",
"425 62 CURVE",
"425 0 LINE",
"497 0 LINE",
"497 301 LINE SMOOTH",
"497 418 OFFCURVE",
"430 495 OFFCURVE",
"273 495 CURVE SMOOTH",
"217 495 OFFCURVE",
"149 483 OFFCURVE",
"109 466 CURVE",
"109 401 LINE",
"152 420 OFFCURVE",
"207 433 OFFCURVE",
"266 433 CURVE SMOOTH",
"374 433 OFFCURVE",
"420 390 OFFCURVE",
"420 305 CURVE SMOOTH",
"420 269 LINE",
"371 297 OFFCURVE",
"309 312 OFFCURVE",
"241 312 CURVE SMOOTH",
"117 312 OFFCURVE",
"50 253 OFFCURVE",
"50 148 CURVE SMOOTH",
"50 47 OFFCURVE",
"122 -15 OFFCURVE",
"238 -15 CURVE SMOOTH"
);
},
{
closed = 1;
nodes = (
"168 48 OFFCURVE",
"127 83 OFFCURVE",
"127 148 CURVE SMOOTH",
"127 216 OFFCURVE",
"164 251 OFFCURVE",
"256 251 CURVE SMOOTH",
"322 251 OFFCURVE",
"370 236 OFFCURVE",
"420 207 CURVE",
"420 130 LINE",
"391 78 OFFCURVE",
"329 48 OFFCURVE",
"257 48 CURVE SMOOTH"
);
},
{
closed = 1;
nodes = (
"374 535 OFFCURVE",
"427 589 OFFCURVE",
"427 663 CURVE",
"369 663 LINE",
"369 617 OFFCURVE",
"340 588 OFFCURVE",
"290 588 CURVE SMOOTH",
"241 588 OFFCURVE",
"211 617 OFFCURVE",
"211 663 CURVE",
"153 663 LINE",
"153 589 OFFCURVE",
"206 535 OFFCURVE",
"290 535 CURVE SMOOTH"
);
},
{
closed = 1;
nodes = (
"309 648 LINE",
"372 771 LINE",
"308 771 LINE",
"255 648 LINE"
);
}
);
width = 562;
}
);
leftKerningGroup = a;
note = abreveacute;
rightKerningGroup = a;
unicode = 1EAF;
},
{
glyphname = abrevedotbelow;
lastChange = "2015-11-30 00:00:47 +0000";
layers = (
{
layerId = "36D117B3-9CBE-4AED-BB8C-253BFD0905A8";
name = Light;
paths = (
{
closed = 1;
nodes = (
"326 -15 OFFCURVE",
"385 13 OFFCURVE",
"425 62 CURVE",
"425 0 LINE",
"497 0 LINE",
"497 301 LINE SMOOTH",
"497 418 OFFCURVE",
"430 495 OFFCURVE",
"273 495 CURVE SMOOTH",
"217 495 OFFCURVE",
"149 483 OFFCURVE",
"109 466 CURVE",
"109 401 LINE",
"152 420 OFFCURVE",
"207 433 OFFCURVE",
"266 433 CURVE SMOOTH",
"374 433 OFFCURVE",
"420 390 OFFCURVE",
"420 305 CURVE SMOOTH",
"420 269 LINE",
"371 297 OFFCURVE",
"309 312 OFFCURVE",
"241 312 CURVE SMOOTH",
"117 312 OFFCURVE",
"50 253 OFFCURVE",
"50 148 CURVE SMOOTH",
"50 47 OFFCURVE",
"122 -15 OFFCURVE",
"238 -15 CURVE SMOOTH"
);
},
{
closed = 1;
nodes = (
"310 -152 OFFCURVE",
"333 -130 OFFCURVE",
"333 -103 CURVE SMOOTH",
"333 -76 OFFCURVE",
"310 -54 OFFCURVE",
"284 -54 CURVE SMOOTH",
"257 -54 OFFCURVE",
"234 -76 OFFCURVE",
"234 -103 CURVE SMOOTH",
"234 -130 OFFCURVE",
"257 -152 OFFCURVE",
"284 -152 CURVE SMOOTH"
);
},
{
closed = 1;
nodes = (
"168 48 OFFCURVE",
"127 83 OFFCURVE",
"127 148 CURVE SMOOTH",
"127 216 OFFCURVE",
"164 251 OFFCURVE",
"256 251 CURVE SMOOTH",
"322 251 OFFCURVE",
"370 236 OFFCURVE",
"420 207 CURVE",
"420 130 LINE",
"391 78 OFFCURVE",
"329 48 OFFCURVE",
"257 48 CURVE SMOOTH"
);
},
{
closed = 1;
nodes = (
"368 535 OFFCURVE",
"422 590 OFFCURVE",
"422 665 CURVE",
"363 665 LINE",
"363 619 OFFCURVE",
"333 589 OFFCURVE",
"283 589 CURVE SMOOTH",
"233 589 OFFCURVE",
"203 619 OFFCURVE",
"203 665 CURVE",
"143 665 LINE",
"143 590 OFFCURVE",
"197 535 OFFCURVE",
"283 535 CURVE SMOOTH"
);
}
);
width = 562;
}
);
leftKerningGroup = a;
note = abrevedotbelow;
rightKerningGroup = a;
unicode = 1EB7;
},
{
glyphname = abrevegrave;
lastChange = "2015-11-30 00:00:46 +0000";
layers = (
{
layerId = "36D117B3-9CBE-4AED-BB8C-253BFD0905A8";
name = Light;
paths = (
{
closed = 1;
nodes = (
"326 -15 OFFCURVE",
"385 13 OFFCURVE",
"425 62 CURVE",
"425 0 LINE",
"497 0 LINE",
"497 301 LINE SMOOTH",
"497 418 OFFCURVE",
"430 495 OFFCURVE",
"273 495 CURVE SMOOTH",
"217 495 OFFCURVE",
"149 483 OFFCURVE",
"109 466 CURVE",
"109 401 LINE",
"152 420 OFFCURVE",
"207 433 OFFCURVE",
"266 433 CURVE SMOOTH",
"374 433 OFFCURVE",
"420 390 OFFCURVE",
"420 305 CURVE SMOOTH",
"420 269 LINE",
"371 297 OFFCURVE",
"309 312 OFFCURVE",
"241 312 CURVE SMOOTH",
"117 312 OFFCURVE",
"50 253 OFFCURVE",
"50 148 CURVE SMOOTH",
"50 47 OFFCURVE",
"122 -15 OFFCURVE",
"238 -15 CURVE SMOOTH"
);
},
{
closed = 1;
nodes = (
"168 48 OFFCURVE",
"127 83 OFFCURVE",
"127 148 CURVE SMOOTH",
"127 216 OFFCURVE",
"164 251 OFFCURVE",
"256 251 CURVE SMOOTH",
"322 251 OFFCURVE",
"370 236 OFFCURVE",
"420 207 CURVE",
"420 130 LINE",
"391 78 OFFCURVE",
"329 48 OFFCURVE",
"257 48 CURVE SMOOTH"
);
},
{
closed = 1;
nodes = (
"378 535 OFFCURVE",
"431 589 OFFCURVE",
"431 663 CURVE",
"373 663 LINE",
"373 617 OFFCURVE",
"344 588 OFFCURVE",
"294 588 CURVE SMOOTH",
"245 588 OFFCURVE",
"215 617 OFFCURVE",
"215 663 CURVE",
"157 663 LINE",
"157 589 OFFCURVE",
"210 535 OFFCURVE",
"294 535 CURVE SMOOTH"
);
},
{
closed = 1;
nodes = (
"330 648 LINE",
"277 771 LINE",
"212 771 LINE",
"276 648 LINE"
);
}
);
width = 562;
}
);
leftKerningGroup = a;
note = abrevegrave;
rightKerningGroup = a;
unicode = 1EB1;
},
{
glyphname = abrevehookabove;
lastChange = "2015-11-30 00:00:46 +0000";
layers = (
{
layerId = "36D117B3-9CBE-4AED-BB8C-253BFD0905A8";
name = Light;
paths = (
{
closed = 1;
nodes = (
"326 -15 OFFCURVE",
"385 13 OFFCURVE",
"425 62 CURVE",
"425 0 LINE",
"497 0 LINE",
"497 301 LINE SMOOTH",
"497 418 OFFCURVE",
"430 495 OFFCURVE",
"273 495 CURVE SMOOTH",
"217 495 OFFCURVE",
"149 483 OFFCURVE",
"109 466 CURVE",
"109 401 LINE",
"152 420 OFFCURVE",
"207 433 OFFCURVE",
"266 433 CURVE SMOOTH",
"374 433 OFFCURVE",
"420 390 OFFCURVE",
"420 305 CURVE SMOOTH",
"420 269 LINE",
"371 297 OFFCURVE",
"309 312 OFFCURVE",
"241 312 CURVE SMOOTH",
"117 312 OFFCURVE",
"50 253 OFFCURVE",
"50 148 CURVE SMOOTH",
"50 47 OFFCURVE",
"122 -15 OFFCURVE",
"238 -15 CURVE SMOOTH"
);
},
{
closed = 1;
nodes = (
"168 48 OFFCURVE",
"127 83 OFFCURVE",
"127 148 CURVE SMOOTH",
"127 216 OFFCURVE",
"164 251 OFFCURVE",
"256 251 CURVE SMOOTH",
"322 251 OFFCURVE",
"370 236 OFFCURVE",
"420 207 CURVE",
"420 130 LINE",
"391 78 OFFCURVE",
"329 48 OFFCURVE",
"257 48 CURVE SMOOTH"
);
},
{
closed = 1;
nodes = (
"374 535 OFFCURVE",
"427 589 OFFCURVE",
"427 663 CURVE",
"370 663 LINE",
"370 617 OFFCURVE",
"340 587 OFFCURVE",
"290 587 CURVE SMOOTH",
"240 587 OFFCURVE",
"210 617 OFFCURVE",
"210 663 CURVE",
"153 663 LINE",
"153 589 OFFCURVE",
"206 535 OFFCURVE",
"290 535 CURVE SMOOTH"
);
},
{
closed = 1;
nodes = (
"312 635 LINE",
"312 660 LINE",
"355 666 OFFCURVE",
"379 693 OFFCURVE",
"379 725 CURVE SMOOTH",
"379 765 OFFCURVE",
"350 791 OFFCURVE",
"295 791 CURVE SMOOTH",
"274 791 OFFCURVE",
"249 787 OFFCURVE",
"235 782 CURVE",
"235 746 LINE",
"245 751 OFFCURVE",
"264 754 OFFCURVE",
"280 754 CURVE SMOOTH",
"309 754 OFFCURVE",
"324 743 OFFCURVE",
"324 721 CURVE SMOOTH",
"324 697 OFFCURVE",
"305 685 OFFCURVE",
"262 685 CURVE",
"262 635 LINE"
);
}
);
width = 562;
}
);
leftKerningGroup = a;
note = abrevehookabove;
rightKerningGroup = a;
unicode = 1EB3;
},
{
glyphname = abrevetilde;
lastChange = "2015-11-30 00:00:47 +0000";
layers = (
{
layerId = "36D117B3-9CBE-4AED-BB8C-253BFD0905A8";
name = Light;
paths = (
{
closed = 1;
nodes = (
"326 -15 OFFCURVE",
"385 13 OFFCURVE",
"425 62 CURVE",
"425 0 LINE",
"497 0 LINE",
"497 301 LINE SMOOTH",
"497 418 OFFCURVE",
"430 495 OFFCURVE",
"273 495 CURVE SMOOTH",
"217 495 OFFCURVE",
"149 483 OFFCURVE",
"109 466 CURVE",
"109 401 LINE",
"152 420 OFFCURVE",
"207 433 OFFCURVE",
"266 433 CURVE SMOOTH",
"374 433 OFFCURVE",
"420 390 OFFCURVE",
"420 305 CURVE SMOOTH",
"420 269 LINE",
"371 297 OFFCURVE",
"309 312 OFFCURVE",
"241 312 CURVE SMOOTH",
"117 312 OFFCURVE",
"50 253 OFFCURVE",
"50 148 CURVE SMOOTH",
"50 47 OFFCURVE",
"122 -15 OFFCURVE",
"238 -15 CURVE SMOOTH"
);
},
{
closed = 1;
nodes = (
"168 48 OFFCURVE",
"127 83 OFFCURVE",
"127 148 CURVE SMOOTH",
"127 216 OFFCURVE",
"164 251 OFFCURVE",
"256 251 CURVE SMOOTH",
"322 251 OFFCURVE",
"370 236 OFFCURVE",
"420 207 CURVE",
"420 130 LINE",
"391 78 OFFCURVE",
"329 48 OFFCURVE",
"257 48 CURVE SMOOTH"
);
},
{
closed = 1;
nodes = (
"387 535 OFFCURVE",
"440 589 OFFCURVE",
"440 663 CURVE",
"383 663 LINE",
"383 617 OFFCURVE",
"353 587 OFFCURVE",
"303 587 CURVE SMOOTH",
"253 587 OFFCURVE",
"223 617 OFFCURVE",
"223 663 CURVE",
"166 663 LINE",
"166 589 OFFCURVE",
"219 535 OFFCURVE",
"303 535 CURVE SMOOTH"
);
},
{
closed = 1;
nodes = (
"161 715 OFFCURVE",
"188 725 OFFCURVE",
"218 725 CURVE SMOOTH",
"274 725 OFFCURVE",
"313 682 OFFCURVE",
"377 682 CURVE SMOOTH",
"412 682 OFFCURVE",
"442 690 OFFCURVE",
"460 718 CURVE",
"460 779 LINE",
"436 744 OFFCURVE",
"408 733 OFFCURVE",
"377 733 CURVE SMOOTH",
"320 733 OFFCURVE",
"278 777 OFFCURVE",
"218 777 CURVE SMOOTH",
"184 777 OFFCURVE",
"154 768 OFFCURVE",
"135 740 CURVE",
"135 679 LINE"
);
}
);
width = 562;
}
);
leftKerningGroup = a;
note = abrevetilde;
rightKerningGroup = a;
unicode = 1EB5;
},
{
glyphname = acaron;
lastChange = "2015-11-30 00:00:46 +0000";
layers = (
{
layerId = "36D117B3-9CBE-4AED-BB8C-253BFD0905A8";
name = Light;
paths = (
{
closed = 1;
nodes = (
"326 -15 OFFCURVE",
"385 13 OFFCURVE",
"425 62 CURVE",
"425 0 LINE",
"497 0 LINE",
"497 301 LINE SMOOTH",
"497 418 OFFCURVE",
"430 495 OFFCURVE",
"273 495 CURVE SMOOTH",
"217 495 OFFCURVE",
"149 483 OFFCURVE",
"109 466 CURVE",
"109 401 LINE",
"152 420 OFFCURVE",
"207 433 OFFCURVE",
"266 433 CURVE SMOOTH",
"374 433 OFFCURVE",
"420 390 OFFCURVE",
"420 305 CURVE SMOOTH",
"420 269 LINE",
"371 297 OFFCURVE",
"309 312 OFFCURVE",
"241 312 CURVE SMOOTH",
"117 312 OFFCURVE",
"50 253 OFFCURVE",
"50 148 CURVE SMOOTH",
"50 47 OFFCURVE",
"122 -15 OFFCURVE",
"238 -15 CURVE SMOOTH"
);
},
{
closed = 1;
nodes = (
"168 48 OFFCURVE",
"127 83 OFFCURVE",
"127 148 CURVE SMOOTH",
"127 216 OFFCURVE",
"164 251 OFFCURVE",
"256 251 CURVE SMOOTH",
"322 251 OFFCURVE",
"370 236 OFFCURVE",
"420 207 CURVE",
"420 130 LINE",
"391 78 OFFCURVE",
"329 48 OFFCURVE",
"257 48 CURVE SMOOTH"
);
},
{
closed = 1;
nodes = (
"325 535 LINE",
"462 696 LINE",
"384 696 LINE",
"292 582 LINE",
"200 696 LINE",
"121 696 LINE",
"258 535 LINE"
);
}
);
width = 562;
}
);
leftKerningGroup = a;
note = acaron;
rightKerningGroup = a;
unicode = 01CE;
},
{
glyphname = acircumflex;
lastChange = "2015-11-30 00:00:46 +0000";
layers = (
{
layerId = "36D117B3-9CBE-4AED-BB8C-253BFD0905A8";
name = Light;
paths = (
{
closed = 1;
nodes = (
"326 -15 OFFCURVE",
"385 13 OFFCURVE",
"425 62 CURVE",
"425 0 LINE",
"497 0 LINE",
"497 301 LINE SMOOTH",
"497 418 OFFCURVE",
"430 495 OFFCURVE",
"273 495 CURVE SMOOTH",
"217 495 OFFCURVE",
"149 483 OFFCURVE",
"109 466 CURVE",
"109 401 LINE",
"152 420 OFFCURVE",
"207 433 OFFCURVE",
"266 433 CURVE SMOOTH",
"374 433 OFFCURVE",
"420 390 OFFCURVE",
"420 305 CURVE SMOOTH",
"420 269 LINE",
"371 297 OFFCURVE",
"309 312 OFFCURVE",
"241 312 CURVE SMOOTH",
"117 312 OFFCURVE",
"50 253 OFFCURVE",
"50 148 CURVE SMOOTH",
"50 47 OFFCURVE",
"122 -15 OFFCURVE",
"238 -15 CURVE SMOOTH"
);
},
{
closed = 1;
nodes = (
"168 48 OFFCURVE",
"127 83 OFFCURVE",
"127 148 CURVE SMOOTH",
"127 216 OFFCURVE",
"164 251 OFFCURVE",
"256 251 CURVE SMOOTH",
"322 251 OFFCURVE",
"370 236 OFFCURVE",
"420 207 CURVE",
"420 130 LINE",
"391 78 OFFCURVE",
"329 48 OFFCURVE",
"257 48 CURVE SMOOTH"
);
},
{
closed = 1;
nodes = (
"200 535 LINE",
"292 649 LINE",
"384 535 LINE",
"462 535 LINE",
"325 696 LINE",
"258 696 LINE",
"121 535 LINE"
);
}
);
width = 562;
}
);
leftKerningGroup = a;
note = acircumflex;
rightKerningGroup = a;
unicode = 00E2;
},
{
glyphname = acircumflexacute;
lastChange = "2015-11-30 00:00:47 +0000";
layers = (
{
layerId = "36D117B3-9CBE-4AED-BB8C-253BFD0905A8";
name = Light;
paths = (
{
closed = 1;
nodes = (
"326 -15 OFFCURVE",
"385 13 OFFCURVE",
"425 62 CURVE",
"425 0 LINE",
"497 0 LINE",
"497 301 LINE SMOOTH",
"497 418 OFFCURVE",
"430 495 OFFCURVE",
"273 495 CURVE SMOOTH",
"217 495 OFFCURVE",
"149 483 OFFCURVE",
"109 466 CURVE",
"109 401 LINE",
"152 420 OFFCURVE",
"207 433 OFFCURVE",
"266 433 CURVE SMOOTH",
"374 433 OFFCURVE",
"420 390 OFFCURVE",
"420 305 CURVE SMOOTH",
"420 269 LINE",
"371 297 OFFCURVE",
"309 312 OFFCURVE",
"241 312 CURVE SMOOTH",
"117 312 OFFCURVE",
"50 253 OFFCURVE",
"50 148 CURVE SMOOTH",
"50 47 OFFCURVE",
"122 -15 OFFCURVE",
"238 -15 CURVE SMOOTH"
);
},
{
closed = 1;
nodes = (
"168 48 OFFCURVE",
"127 83 OFFCURVE",
"127 148 CURVE SMOOTH",
"127 216 OFFCURVE",
"164 251 OFFCURVE",
"256 251 CURVE SMOOTH",
"322 251 OFFCURVE",
"370 236 OFFCURVE",
"420 207 CURVE",
"420 130 LINE",
"391 78 OFFCURVE",
"329 48 OFFCURVE",
"257 48 CURVE SMOOTH"
);
},
{
closed = 1;
nodes = (
"203 535 LINE",
"295 630 LINE",
"387 535 LINE",
"465 535 LINE",
"328 673 LINE",
"261 673 LINE",
"124 535 LINE"
);
},
{
closed = 1;
nodes = (
"435 638 LINE",
"516 758 LINE",
"452 758 LINE",
"381 638 LINE"
);
}
);
width = 562;
}
);
leftKerningGroup = a;
note = acircumflexacute;
rightKerningGroup = a;
unicode = 1EA5;
},
{
glyphname = acircumflexdotbelow;
lastChange = "2015-11-30 00:00:46 +0000";
layers = (
{
layerId = "36D117B3-9CBE-4AED-BB8C-253BFD0905A8";
name = Light;
paths = (
{
closed = 1;
nodes = (
"326 -15 OFFCURVE",
"385 13 OFFCURVE",
"425 62 CURVE",
"425 0 LINE",
"497 0 LINE",
"497 301 LINE SMOOTH",
"497 418 OFFCURVE",
"430 495 OFFCURVE",
"273 495 CURVE SMOOTH",
"217 495 OFFCURVE",
"149 483 OFFCURVE",
"109 466 CURVE",
"109 401 LINE",
"152 420 OFFCURVE",
"207 433 OFFCURVE",
"266 433 CURVE SMOOTH",
"374 433 OFFCURVE",
"420 390 OFFCURVE",
"420 305 CURVE SMOOTH",
"420 269 LINE",
"371 297 OFFCURVE",
"309 312 OFFCURVE",
"241 312 CURVE SMOOTH",
"117 312 OFFCURVE",
"50 253 OFFCURVE",
"50 148 CURVE SMOOTH",
"50 47 OFFCURVE",
"122 -15 OFFCURVE",
"238 -15 CURVE SMOOTH"
);
},
{
closed = 1;
nodes = (
"310 -152 OFFCURVE",
"333 -130 OFFCURVE",
"333 -103 CURVE SMOOTH",
"333 -76 OFFCURVE",
"310 -54 OFFCURVE",
"284 -54 CURVE SMOOTH",
"257 -54 OFFCURVE",
"234 -76 OFFCURVE",
"234 -103 CURVE SMOOTH",
"234 -130 OFFCURVE",
"257 -152 OFFCURVE",
"284 -152 CURVE SMOOTH"
);
},
{
closed = 1;
nodes = (
"168 48 OFFCURVE",
"127 83 OFFCURVE",
"127 148 CURVE SMOOTH",
"127 216 OFFCURVE",
"164 251 OFFCURVE",
"256 251 CURVE SMOOTH",
"322 251 OFFCURVE",
"370 236 OFFCURVE",
"420 207 CURVE",
"420 130 LINE",
"391 78 OFFCURVE",
"329 48 OFFCURVE",
"257 48 CURVE SMOOTH"
);
},
{
closed = 1;
nodes = (
"198 535 LINE",
"290 649 LINE",
"382 535 LINE",
"460 535 LINE",
"323 696 LINE",
"256 696 LINE",
"119 535 LINE"
);
}
);
width = 562;
}
);
leftKerningGroup = a;
note = acircumflexdotbelow;
rightKerningGroup = a;
unicode = 1EAD;
},
{
glyphname = acircumflexgrave;
lastChange = "2015-11-30 00:00:45 +0000";
layers = (
{
layerId = "36D117B3-9CBE-4AED-BB8C-253BFD0905A8";
name = Light;
paths = (
{
closed = 1;
nodes = (
"326 -15 OFFCURVE",
"385 13 OFFCURVE",
"425 62 CURVE",
"425 0 LINE",
"497 0 LINE",
"497 301 LINE SMOOTH",
"497 418 OFFCURVE",
"430 495 OFFCURVE",
"273 495 CURVE SMOOTH",
"217 495 OFFCURVE",
"149 483 OFFCURVE",
"109 466 CURVE",
"109 401 LINE",
"152 420 OFFCURVE",
"207 433 OFFCURVE",
"266 433 CURVE SMOOTH",
"374 433 OFFCURVE",
"420 390 OFFCURVE",
"420 305 CURVE SMOOTH",
"420 269 LINE",
"371 297 OFFCURVE",
"309 312 OFFCURVE",
"241 312 CURVE SMOOTH",
"117 312 OFFCURVE",
"50 253 OFFCURVE",
"50 148 CURVE SMOOTH",
"50 47 OFFCURVE",
"122 -15 OFFCURVE",
"238 -15 CURVE SMOOTH"
);
},
{
closed = 1;
nodes = (
"168 48 OFFCURVE",
"127 83 OFFCURVE",
"127 148 CURVE SMOOTH",
"127 216 OFFCURVE",
"164 251 OFFCURVE",
"256 251 CURVE SMOOTH",
"322 251 OFFCURVE",
"370 236 OFFCURVE",
"420 207 CURVE",
"420 130 LINE",
"391 78 OFFCURVE",
"329 48 OFFCURVE",
"257 48 CURVE SMOOTH"
);
},
{
closed = 1;
nodes = (
"198 638 LINE",
"127 758 LINE",
"63 758 LINE",
"144 638 LINE"
);
},
{
closed = 1;
nodes = (
"192 535 LINE",
"284 630 LINE",
"376 535 LINE",
"455 535 LINE",
"318 673 LINE",
"251 673 LINE",
"114 535 LINE"
);
}
);
width = 562;
}
);
leftKerningGroup = a;
note = acircumflexgrave;
rightKerningGroup = a;
unicode = 1EA7;
},
{
glyphname = acircumflexhookabove;
lastChange = "2015-11-30 00:00:47 +0000";
layers = (
{
layerId = "36D117B3-9CBE-4AED-BB8C-253BFD0905A8";
name = Light;
paths = (
{
closed = 1;
nodes = (
"326 -15 OFFCURVE",
"385 13 OFFCURVE",
"425 62 CURVE",
"425 0 LINE",
"497 0 LINE",
"497 301 LINE SMOOTH",
"497 418 OFFCURVE",
"430 495 OFFCURVE",
"273 495 CURVE SMOOTH",
"217 495 OFFCURVE",
"149 483 OFFCURVE",
"109 466 CURVE",
"109 401 LINE",
"152 420 OFFCURVE",
"207 433 OFFCURVE",
"266 433 CURVE SMOOTH",
"374 433 OFFCURVE",
"420 390 OFFCURVE",
"420 305 CURVE SMOOTH",
"420 269 LINE",
"371 297 OFFCURVE",
"309 312 OFFCURVE",
"241 312 CURVE SMOOTH",
"117 312 OFFCURVE",
"50 253 OFFCURVE",
"50 148 CURVE SMOOTH",
"50 47 OFFCURVE",
"122 -15 OFFCURVE",
"238 -15 CURVE SMOOTH"
);
},
{
closed = 1;
nodes = (
"168 48 OFFCURVE",
"127 83 OFFCURVE",
"127 148 CURVE SMOOTH",
"127 216 OFFCURVE",
"164 251 OFFCURVE",
"256 251 CURVE SMOOTH",
"322 251 OFFCURVE",
"370 236 OFFCURVE",
"420 207 CURVE",
"420 130 LINE",
"391 78 OFFCURVE",
"329 48 OFFCURVE",
"257 48 CURVE SMOOTH"
);
},
{
closed = 1;
nodes = (
"196 535 LINE",
"288 630 LINE",
"380 535 LINE",
"459 535 LINE",
"322 673 LINE",
"255 673 LINE",
"118 535 LINE"
);
},
{
closed = 1;
nodes = (
"430 631 LINE",
"430 656 LINE",
"473 662 OFFCURVE",
"497 689 OFFCURVE",
"497 721 CURVE SMOOTH",
"497 761 OFFCURVE",
"468 787 OFFCURVE",
"413 787 CURVE SMOOTH",
"392 787 OFFCURVE",
"367 783 OFFCURVE",
"353 778 CURVE",
"353 742 LINE",
"363 747 OFFCURVE",
"382 750 OFFCURVE",
"398 750 CURVE SMOOTH",
"427 750 OFFCURVE",
"442 739 OFFCURVE",
"442 717 CURVE SMOOTH",
"442 693 OFFCURVE",
"423 681 OFFCURVE",
"380 681 CURVE",
"380 631 LINE"
);
}
);
width = 562;
}
);
leftKerningGroup = a;
note = acircumflexhookabove;
rightKerningGroup = a;
unicode = 1EA9;
},
{
glyphname = acircumflextilde;
lastChange = "2015-11-30 00:00:47 +0000";
layers = (
{
layerId = "36D117B3-9CBE-4AED-BB8C-253BFD0905A8";
name = Light;
paths = (
{
closed = 1;
nodes = (
"326 -15 OFFCURVE",
"385 13 OFFCURVE",
"425 62 CURVE",
"425 0 LINE",
"497 0 LINE",
"497 301 LINE SMOOTH",
"497 418 OFFCURVE",
"430 495 OFFCURVE",
"273 495 CURVE SMOOTH",
"217 495 OFFCURVE",
"149 483 OFFCURVE",
"109 466 CURVE",
"109 401 LINE",
"152 420 OFFCURVE",
"207 433 OFFCURVE",
"266 433 CURVE SMOOTH",
"374 433 OFFCURVE",
"420 390 OFFCURVE",
"420 305 CURVE SMOOTH",
"420 269 LINE",
"371 297 OFFCURVE",
"309 312 OFFCURVE",
"241 312 CURVE SMOOTH",
"117 312 OFFCURVE",
"50 253 OFFCURVE",
"50 148 CURVE SMOOTH",
"50 47 OFFCURVE",
"122 -15 OFFCURVE",
"238 -15 CURVE SMOOTH"
);
},
{
closed = 1;
nodes = (
"168 48 OFFCURVE",
"127 83 OFFCURVE",
"127 148 CURVE SMOOTH",
"127 216 OFFCURVE",
"164 251 OFFCURVE",
"256 251 CURVE SMOOTH",
"322 251 OFFCURVE",
"370 236 OFFCURVE",
"420 207 CURVE",
"420 130 LINE",
"391 78 OFFCURVE",
"329 48 OFFCURVE",
"257 48 CURVE SMOOTH"
);
},
{
closed = 1;
nodes = (
"200 535 LINE",
"292 630 LINE",
"384 535 LINE",
"463 535 LINE",
"326 673 LINE",
"259 673 LINE",
"122 535 LINE"
);
},
{
closed = 1;
nodes = (
"161 711 OFFCURVE",
"188 721 OFFCURVE",
"218 721 CURVE SMOOTH",
"274 721 OFFCURVE",
"313 678 OFFCURVE",
"377 678 CURVE SMOOTH",
"412 678 OFFCURVE",
"442 686 OFFCURVE",
"460 714 CURVE",
"460 775 LINE",
"436 740 OFFCURVE",
"408 729 OFFCURVE",
"377 729 CURVE SMOOTH",
"320 729 OFFCURVE",
"278 773 OFFCURVE",
"218 773 CURVE SMOOTH",
"184 773 OFFCURVE",
"154 764 OFFCURVE",
"135 736 CURVE",
"135 675 LINE"
);
}
);
width = 562;
}
);
leftKerningGroup = a;
note = acircumflextilde;
rightKerningGroup = a;
unicode = 1EAB;
},
{
glyphname = adieresis;
lastChange = "2015-11-30 00:00:46 +0000";
layers = (
{
layerId = "36D117B3-9CBE-4AED-BB8C-253BFD0905A8";
name = Light;
paths = (
{
closed = 1;
nodes = (
"326 -15 OFFCURVE",
"385 13 OFFCURVE",
"425 62 CURVE",
"425 0 LINE",
"497 0 LINE",
"497 301 LINE SMOOTH",
"497 418 OFFCURVE",
"430 495 OFFCURVE",
"273 495 CURVE SMOOTH",
"217 495 OFFCURVE",
"149 483 OFFCURVE",
"109 466 CURVE",
"109 401 LINE",
"152 420 OFFCURVE",
"207 433 OFFCURVE",
"266 433 CURVE SMOOTH",
"374 433 OFFCURVE",
"420 390 OFFCURVE",
"420 305 CURVE SMOOTH",
"420 269 LINE",
"371 297 OFFCURVE",
"309 312 OFFCURVE",
"241 312 CURVE SMOOTH",
"117 312 OFFCURVE",
"50 253 OFFCURVE",
"50 148 CURVE SMOOTH",
"50 47 OFFCURVE",
"122 -15 OFFCURVE",
"238 -15 CURVE SMOOTH"
);
},
{
closed = 1;
nodes = (
"168 48 OFFCURVE",
"127 83 OFFCURVE",
"127 148 CURVE SMOOTH",
"127 216 OFFCURVE",
"164 251 OFFCURVE",
"256 251 CURVE SMOOTH",
"322 251 OFFCURVE",
"370 236 OFFCURVE",
"420 207 CURVE",
"420 130 LINE",
"391 78 OFFCURVE",
"329 48 OFFCURVE",
"257 48 CURVE SMOOTH"
);
},
{
closed = 1;
nodes = (
"213 535 OFFCURVE",
"236 557 OFFCURVE",
"236 584 CURVE SMOOTH",
"236 611 OFFCURVE",
"213 633 OFFCURVE",
"187 633 CURVE SMOOTH",
"160 633 OFFCURVE",
"137 611 OFFCURVE",
"137 584 CURVE SMOOTH",
"137 557 OFFCURVE",
"160 535 OFFCURVE",
"187 535 CURVE SMOOTH"
);
},
{
closed = 1;
nodes = (
"430 535 OFFCURVE",
"453 557 OFFCURVE",
"453 584 CURVE SMOOTH",
"453 611 OFFCURVE",
"430 633 OFFCURVE",
"404 633 CURVE SMOOTH",
"377 633 OFFCURVE",
"354 611 OFFCURVE",
"354 584 CURVE SMOOTH",
"354 557 OFFCURVE",
"377 535 OFFCURVE",
"404 535 CURVE SMOOTH"
);
}
);
width = 562;
}
);
leftKerningGroup = a;
note = adieresis;
rightKerningGroup = a;
unicode = 00E4;
},
{
glyphname = adotbelow;
lastChange = "2015-11-30 00:00:47 +0000";
layers = (
{
layerId = "36D117B3-9CBE-4AED-BB8C-253BFD0905A8";
name = Light;
paths = (
{
closed = 1;
nodes = (
"326 -15 OFFCURVE",
"385 13 OFFCURVE",
"425 62 CURVE",
"425 0 LINE",
"497 0 LINE",
"497 301 LINE SMOOTH",
"497 418 OFFCURVE",
"430 495 OFFCURVE",
"273 495 CURVE SMOOTH",
"217 495 OFFCURVE",
"149 483 OFFCURVE",
"109 466 CURVE",
"109 401 LINE",
"152 420 OFFCURVE",
"207 433 OFFCURVE",
"266 433 CURVE SMOOTH",
"374 433 OFFCURVE",
"420 390 OFFCURVE",
"420 305 CURVE SMOOTH",
"420 269 LINE",
"371 297 OFFCURVE",
"309 312 OFFCURVE",
"241 312 CURVE SMOOTH",
"117 312 OFFCURVE",
"50 253 OFFCURVE",
"50 148 CURVE SMOOTH",
"50 47 OFFCURVE",
"122 -15 OFFCURVE",
"238 -15 CURVE SMOOTH"
);
},
{
closed = 1;
nodes = (
"302 -152 OFFCURVE",
"325 -130 OFFCURVE",
"325 -103 CURVE SMOOTH",
"325 -76 OFFCURVE",
"302 -54 OFFCURVE",
"276 -54 CURVE SMOOTH",
"249 -54 OFFCURVE",
"226 -76 OFFCURVE",
"226 -103 CURVE SMOOTH",
"226 -130 OFFCURVE",
"249 -152 OFFCURVE",
"276 -152 CURVE SMOOTH"
);
},
{
closed = 1;
nodes = (
"168 48 OFFCURVE",
"127 83 OFFCURVE",
"127 148 CURVE SMOOTH",
"127 216 OFFCURVE",
"164 251 OFFCURVE",
"256 251 CURVE SMOOTH",
"322 251 OFFCURVE",
"370 236 OFFCURVE",
"420 207 CURVE",
"420 130 LINE",
"391 78 OFFCURVE",
"329 48 OFFCURVE",
"257 48 CURVE SMOOTH"
);
}
);
width = 562;
}
);
leftKerningGroup = a;
note = adotbelow;
rightKerningGroup = a;
unicode = 1EA1;
},
{
glyphname = agrave;
lastChange = "2015-11-30 00:00:47 +0000";
layers = (
{
layerId = "36D117B3-9CBE-4AED-BB8C-253BFD0905A8";
name = Light;
paths = (
{
closed = 1;
nodes = (
"326 -15 OFFCURVE",
"385 13 OFFCURVE",
"425 62 CURVE",
"425 0 LINE",
"497 0 LINE",
"497 301 LINE SMOOTH",
"497 418 OFFCURVE",
"430 495 OFFCURVE",
"273 495 CURVE SMOOTH",
"217 495 OFFCURVE",
"149 483 OFFCURVE",
"109 466 CURVE",
"109 401 LINE",
"152 420 OFFCURVE",
"207 433 OFFCURVE",
"266 433 CURVE SMOOTH",
"374 433 OFFCURVE",
"420 390 OFFCURVE",
"420 305 CURVE SMOOTH",
"420 269 LINE",
"371 297 OFFCURVE",
"309 312 OFFCURVE",
"241 312 CURVE SMOOTH",
"117 312 OFFCURVE",
"50 253 OFFCURVE",
"50 148 CURVE SMOOTH",
"50 47 OFFCURVE",
"122 -15 OFFCURVE",
"238 -15 CURVE SMOOTH"
);
},
{
closed = 1;
nodes = (
"168 48 OFFCURVE",
"127 83 OFFCURVE",
"127 148 CURVE SMOOTH",
"127 216 OFFCURVE",
"164 251 OFFCURVE",
"256 251 CURVE SMOOTH",
"322 251 OFFCURVE",
"370 236 OFFCURVE",
"420 207 CURVE",
"420 130 LINE",
"391 78 OFFCURVE",
"329 48 OFFCURVE",
"257 48 CURVE SMOOTH"
);
},
{
closed = 1;
nodes = (
"337 535 LINE",
"269 705 LINE",
"188 705 LINE",
"268 535 LINE"
);
}
);
width = 562;
}
);
leftKerningGroup = a;
note = agrave;
rightKerningGroup = a;
unicode = 00E0;
},
{
glyphname = ahookabove;
lastChange = "2015-11-30 00:00:47 +0000";
layers = (
{
layerId = "36D117B3-9CBE-4AED-BB8C-253BFD0905A8";
name = Light;
paths = (
{
closed = 1;
nodes = (
"326 -15 OFFCURVE",
"385 13 OFFCURVE",
"425 62 CURVE",
"425 0 LINE",
"497 0 LINE",
"497 301 LINE SMOOTH",
"497 418 OFFCURVE",
"430 495 OFFCURVE",
"273 495 CURVE SMOOTH",
"217 495 OFFCURVE",
"149 483 OFFCURVE",
"109 466 CURVE",
"109 401 LINE",
"152 420 OFFCURVE",
"207 433 OFFCURVE",
"266 433 CURVE SMOOTH",
"374 433 OFFCURVE",
"420 390 OFFCURVE",
"420 305 CURVE SMOOTH",
"420 269 LINE",
"371 297 OFFCURVE",
"309 312 OFFCURVE",
"241 312 CURVE SMOOTH",
"117 312 OFFCURVE",
"50 253 OFFCURVE",
"50 148 CURVE SMOOTH",
"50 47 OFFCURVE",
"122 -15 OFFCURVE",
"238 -15 CURVE SMOOTH"
);
},
{
closed = 1;
nodes = (
"168 48 OFFCURVE",
"127 83 OFFCURVE",
"127 148 CURVE SMOOTH",
"127 216 OFFCURVE",
"164 251 OFFCURVE",
"256 251 CURVE SMOOTH",
"322 251 OFFCURVE",
"370 236 OFFCURVE",
"420 207 CURVE",
"420 130 LINE",
"391 78 OFFCURVE",
"329 48 OFFCURVE",
"257 48 CURVE SMOOTH"
);
},
{
closed = 1;
nodes = (
"321 535 LINE",
"321 570 LINE",
"383 576 OFFCURVE",
"415 616 OFFCURVE",
"415 664 CURVE SMOOTH",
"415 719 OFFCURVE",
"375 757 OFFCURVE",
"293 757 CURVE SMOOTH",
"265 757 OFFCURVE",
"234 752 OFFCURVE",
"217 746 CURVE",
"217 701 LINE",
"229 707 OFFCURVE",
"260 711 OFFCURVE",
"277 711 CURVE SMOOTH",
"324 711 OFFCURVE",
"347 696 OFFCURVE",
"347 661 CURVE SMOOTH",
"347 620 OFFCURVE",
"318 603 OFFCURVE",
"254 603 CURVE",
"254 535 LINE"
);
}
);
width = 562;
}
);
leftKerningGroup = a;
note = ahookabove;
rightKerningGroup = a;
unicode = 1EA3;
},
